{"glyphs":{"0":{"ha":833,"x_min":0,"x_max":0,"o":"m 771 307 l 771 776 b 417 1101 771 964 653 1101 b 63 776 181 1101 63 964 l 63 307 b 417 -18 63 119 181 -18 b 771 307 653 -18 771 119 z m 549 774 l 549 310 b 419 176 549 231 508 176 l 414 176 b 285 310 325 176 285 231 l 285 774 b 414 907 285 853 325 907 l 419 907 b 549 774 508 907 549 853 z "},"1":{"ha":833,"x_min":0,"x_max":0,"o":"m 779 0 l 779 194 l 542 194 l 542 1085 l 376 1085 l 39 856 l 149 694 l 319 810 l 319 194 l 82 194 l 82 0 z "},"2":{"ha":833,"x_min":0,"x_max":0,"o":"m 474 194 l 375 193 l 651 496 b 772 776 732 585 772 649 l 772 801 b 417 1101 772 943 681 1101 b 61 750 175 1101 61 983 l 61 722 l 283 722 b 410 907 283 860 333 907 l 424 907 b 550 760 497 907 550 858 l 550 746 b 478 600 550 686 526 651 l 61 140 l 61 0 l 772 0 l 772 194 z "},"3":{"ha":833,"x_min":0,"x_max":0,"o":"m 276 347 l 54 347 l 54 329 b 417 -18 54 107 174 -18 b 779 290 676 -18 779 153 l 779 317 b 646 554 779 436 721 511 b 772 786 717 596 772 671 l 772 813 b 417 1101 772 943 681 1101 b 61 750 175 1101 61 983 l 61 722 l 283 722 b 410 907 283 860 332 907 l 424 907 b 550 786 497 907 550 858 l 550 774 b 422 650 550 690 503 650 l 278 650 l 278 456 l 426 456 b 557 329 507 456 557 414 l 557 314 b 424 176 557 218 493 176 l 410 176 b 276 347 335 176 276 218 z "},"4":{"ha":833,"x_min":0,"x_max":0,"o":"m 678 0 l 678 236 l 796 236 l 796 431 l 678 431 l 678 1083 l 468 1083 l 38 392 l 38 236 l 456 236 l 456 0 z m 458 731 l 456 650 l 456 431 l 339 431 l 268 428 z "},"5":{"ha":833,"x_min":0,"x_max":0,"o":"m 54 347 l 54 329 b 417 -18 54 107 174 -18 b 779 329 654 -18 779 117 l 779 356 b 428 703 779 568 654 703 b 264 669 368 703 313 690 l 274 889 l 765 889 l 765 1083 l 88 1083 l 63 489 l 253 424 b 404 510 282 482 347 510 l 413 510 b 557 350 493 510 557 465 l 557 335 b 424 176 557 219 493 176 l 410 176 b 276 347 335 176 276 218 z "},"6":{"ha":833,"x_min":0,"x_max":0,"o":"m 726 1101 b 207 897 507 1101 326 1057 b 54 397 92 743 54 569 l 54 379 b 418 -18 54 140 183 -18 b 781 328 657 -18 781 114 l 781 342 b 478 683 781 556 660 683 b 307 632 408 683 353 663 b 379 772 324 686 347 733 b 726 904 456 867 567 904 z m 421 489 l 428 489 b 558 347 503 489 558 447 l 558 321 b 422 176 558 228 497 176 l 414 176 b 276 361 338 176 276 240 l 276 406 b 421 489 307 461 365 489 z "},"7":{"ha":833,"x_min":0,"x_max":0,"o":"m 50 694 l 246 694 l 246 889 l 406 889 l 538 892 l 164 0 l 401 0 l 786 946 l 786 1083 l 50 1083 z "},"8":{"ha":833,"x_min":0,"x_max":0,"o":"m 417 -18 b 779 289 676 -18 779 151 l 779 315 b 646 554 779 435 719 511 b 772 788 717 596 772 671 l 772 814 b 417 1101 772 943 681 1101 b 61 814 153 1101 61 943 l 61 788 b 188 554 61 671 117 596 b 54 315 113 511 54 435 l 54 289 b 417 -18 54 151 157 -18 z m 407 456 l 426 456 b 557 329 507 456 557 413 l 557 314 b 424 176 557 217 493 176 l 410 176 b 276 314 340 176 276 217 l 276 329 b 407 456 276 413 326 456 z m 424 907 b 550 788 497 907 550 860 l 550 774 b 422 650 550 690 503 650 l 411 650 b 283 774 331 650 283 690 l 283 788 b 410 907 283 860 336 907 z "},"9":{"ha":833,"x_min":0,"x_max":0,"o":"m 107 -18 b 626 186 326 -18 507 26 b 779 686 742 340 779 514 l 779 704 b 415 1101 779 943 650 1101 b 53 756 176 1101 53 969 l 53 742 b 356 400 53 528 174 400 b 525 450 424 400 481 419 b 454 311 510 396 486 350 b 107 179 378 217 267 179 z m 413 594 l 406 594 b 275 736 331 594 275 636 l 275 763 b 411 907 275 856 336 907 l 419 907 b 557 722 496 907 557 843 l 557 678 b 413 594 525 622 467 594 z "}," ":{"ha":278,"x_min":0,"x_max":0,"o":""},"Œ":{"ha":1306,"x_min":0,"x_max":0,"o":"m 54 569 l 54 514 b 510 0 54 139 188 0 l 1250 0 l 1250 194 l 813 194 l 813 456 l 1181 456 l 1181 650 l 813 650 l 813 889 l 1250 889 l 1250 1083 l 510 1083 b 54 569 188 1083 54 944 z m 588 889 l 588 194 l 522 194 b 282 514 336 194 282 297 l 282 569 b 522 889 282 786 336 889 z "},"a":{"ha":763,"x_min":0,"x_max":0,"o":"m 511 0 l 708 0 l 694 208 l 694 474 b 382 754 694 651 622 754 b 69 506 139 754 69 633 l 69 493 l 276 493 b 375 588 276 542 296 588 b 475 479 450 588 474 551 l 306 453 b 42 217 151 429 42 376 l 42 203 b 267 -18 42 85 101 -18 b 497 76 369 -18 446 21 z m 347 160 b 260 235 283 160 260 197 l 260 243 b 350 331 260 288 282 319 l 475 350 l 475 215 b 347 160 451 190 410 160 z "},"b":{"ha":797,"x_min":0,"x_max":0,"o":"m 293 1111 l 74 1111 l 74 208 l 61 0 l 257 0 l 272 89 b 482 -18 314 26 379 -18 b 756 343 683 -18 756 131 l 756 393 b 482 754 756 606 683 754 b 293 674 394 754 335 722 z m 293 496 b 418 565 311 522 353 565 b 536 393 503 565 536 501 l 536 343 b 418 171 536 235 503 171 b 293 240 353 171 311 214 z "},"c":{"ha":732,"x_min":0,"x_max":0,"o":"m 261 343 l 261 393 b 379 565 261 501 294 565 b 485 450 449 565 485 525 l 692 450 l 692 482 b 375 754 692 644 586 754 b 42 393 143 754 42 606 l 42 343 b 375 -18 42 131 143 -18 b 692 242 586 -18 692 90 l 692 272 l 485 272 b 379 171 485 214 450 171 b 261 343 294 171 261 235 z "},"d":{"ha":808,"x_min":0,"x_max":0,"o":"m 326 754 b 53 393 125 754 53 606 l 53 343 b 326 -18 53 131 125 -18 b 535 88 428 -18 493 26 l 550 0 l 747 0 l 735 208 l 735 1111 l 515 1111 l 515 674 b 326 754 474 722 413 754 z m 515 496 l 515 240 b 390 171 497 214 456 171 b 271 343 304 171 271 235 l 271 393 b 390 565 271 501 304 565 b 515 496 456 565 497 522 z "},"e":{"ha":772,"x_min":0,"x_max":0,"o":"m 731 289 l 731 388 b 390 754 731 600 624 754 b 42 388 158 754 42 600 l 42 349 b 399 -18 42 136 154 -18 b 731 231 611 -18 731 90 l 731 236 l 524 236 b 400 149 524 192 476 149 b 261 289 318 149 269 186 z m 386 588 b 510 447 464 588 503 543 l 263 447 b 386 588 269 543 308 588 z "},"f":{"ha":571,"x_min":0,"x_max":0,"o":"m 358 832 b 467 940 358 922 400 940 b 533 931 490 940 525 935 l 533 1111 b 415 1129 521 1118 482 1129 b 139 856 250 1129 139 1058 l 139 736 l 26 736 l 26 544 l 139 544 l 139 0 l 358 0 l 358 544 l 519 544 l 519 736 l 358 736 z "},"g":{"ha":797,"x_min":0,"x_max":0,"o":"m 504 15 b 379 -118 504 -85 464 -118 b 263 0 288 -118 263 -69 l 56 0 l 56 -29 b 383 -296 56 -178 138 -296 b 724 14 615 -296 724 -189 l 724 528 l 736 736 l 540 736 l 525 651 b 315 754 483 711 418 754 b 42 410 119 754 42 607 l 42 371 b 315 26 42 161 119 26 b 504 101 401 26 463 56 z m 379 215 b 261 371 300 215 261 265 l 261 410 b 379 565 261 503 300 565 b 504 496 446 565 488 522 l 504 285 b 379 215 488 258 446 215 z "},"h":{"ha":806,"x_min":0,"x_max":0,"o":"m 294 1111 l 75 1111 l 75 0 l 294 0 l 294 496 b 424 565 311 522 354 565 b 521 463 499 565 521 515 l 521 0 l 739 0 l 739 499 b 511 754 739 632 678 754 b 294 665 413 754 342 718 z "},"i":{"ha":369,"x_min":0,"x_max":0,"o":"m 75 0 l 294 0 l 294 736 l 75 736 z m 300 1072 l 69 1072 l 69 840 l 300 840 z "},"j":{"ha":372,"x_min":0,"x_max":0,"o":"m 75 1 b -33 -107 75 -89 32 -107 b -101 -97 -58 -107 -93 -101 l -101 -278 b 18 -296 -89 -285 -49 -296 b 294 -22 182 -296 294 -225 l 294 736 l 75 736 z m 300 1072 l 69 1072 l 69 840 l 300 840 z "},"k":{"ha":781,"x_min":0,"x_max":0,"o":"m 69 0 l 289 0 l 289 200 l 361 283 l 500 0 l 756 0 l 513 457 l 756 736 l 493 736 l 289 486 l 289 1111 l 69 1111 z "},"l":{"ha":369,"x_min":0,"x_max":0,"o":"m 75 0 l 294 0 l 294 1111 l 75 1111 z "},"m":{"ha":1199,"x_min":0,"x_max":0,"o":"m 1132 0 l 1132 507 b 914 754 1132 646 1067 754 b 688 640 804 754 732 706 b 494 754 656 710 593 754 b 274 647 389 754 318 710 l 258 736 l 63 736 l 75 528 l 75 0 l 294 0 l 294 501 b 407 565 311 528 346 565 b 494 472 468 565 494 531 l 494 0 l 713 0 l 713 501 b 826 565 731 528 764 565 b 914 472 888 565 914 531 l 914 0 z "},"n":{"ha":806,"x_min":0,"x_max":0,"o":"m 739 0 l 739 499 b 511 754 739 632 678 754 b 275 642 397 754 321 707 l 258 736 l 63 736 l 75 528 l 75 0 l 294 0 l 294 496 b 424 565 311 522 354 565 b 521 463 499 565 521 515 l 521 0 z "},"o":{"ha":772,"x_min":0,"x_max":0,"o":"m 386 -18 b 731 343 624 -18 731 131 l 731 393 b 386 754 731 606 624 754 b 42 393 150 754 42 606 l 42 343 b 386 -18 42 131 150 -18 z m 386 171 b 261 343 300 171 261 235 l 261 393 b 386 565 261 501 300 565 b 511 393 474 565 511 501 l 511 343 b 386 171 511 235 474 171 z "},"p":{"ha":797,"x_min":0,"x_max":0,"o":"m 482 -18 b 756 343 683 -18 756 131 l 756 393 b 482 754 756 606 683 754 b 272 646 379 754 314 708 l 257 736 l 61 736 l 74 528 l 74 -278 l 293 -278 l 293 63 b 482 -18 335 14 394 -18 z m 418 565 b 536 393 503 565 536 501 l 536 343 b 418 171 536 235 503 171 b 293 240 353 171 311 214 l 293 496 b 418 565 311 522 353 565 z "},"q":{"ha":807,"x_min":0,"x_max":0,"o":"m 508 -278 l 728 -278 l 728 528 l 740 736 l 543 736 l 528 647 b 319 754 486 710 421 754 b 46 393 118 754 46 606 l 46 343 b 319 -18 46 131 118 -18 b 508 63 406 -18 467 14 z m 508 240 b 383 171 490 214 449 171 b 264 343 297 171 264 235 l 264 393 b 383 565 264 501 297 565 b 508 496 449 565 490 522 z "},"r":{"ha":535,"x_min":0,"x_max":0,"o":"m 469 754 b 274 650 383 754 317 711 l 258 736 l 63 736 l 75 528 l 75 0 l 294 0 l 294 478 b 453 542 314 506 364 542 l 490 542 l 490 753 b 469 754 485 754 476 754 z "},"s":{"ha":733,"x_min":0,"x_max":0,"o":"m 367 149 b 267 233 293 149 267 185 l 49 233 l 49 226 b 367 -18 49 83 151 -18 b 686 229 579 -18 686 76 l 686 242 b 379 450 686 397 564 435 b 274 521 294 457 274 476 b 367 588 274 561 306 588 b 461 494 433 588 461 553 l 676 494 l 676 501 b 367 754 676 660 583 754 b 57 514 192 754 57 683 l 57 501 b 356 294 57 363 147 311 b 465 221 442 288 465 267 b 367 149 465 179 438 149 z "},"t":{"ha":599,"x_min":0,"x_max":0,"o":"m 358 736 l 358 944 l 139 944 l 139 736 l 26 736 l 26 544 l 139 544 l 139 256 b 415 -18 139 53 250 -18 b 533 0 482 -18 521 -7 l 533 181 b 467 171 525 176 490 171 b 358 279 400 171 358 189 l 358 544 l 547 544 l 547 736 z "},"u":{"ha":806,"x_min":0,"x_max":0,"o":"m 67 736 l 67 238 b 294 -18 67 104 126 -18 b 531 93 407 -18 483 28 l 547 0 l 743 0 l 731 208 l 731 736 l 511 736 l 511 240 b 382 171 493 214 451 171 b 285 274 307 171 285 221 l 285 736 z "},"v":{"ha":763,"x_min":0,"x_max":0,"o":"m 228 0 l 535 0 l 750 736 l 522 736 l 382 176 l 240 736 l 14 736 z "},"w":{"ha":1064,"x_min":0,"x_max":0,"o":"m 532 507 l 635 0 l 910 0 l 1038 736 l 822 736 l 767 238 l 663 736 l 400 736 l 297 238 l 242 736 l 26 736 l 153 0 l 429 0 z "},"x":{"ha":775,"x_min":0,"x_max":0,"o":"m 24 736 l 211 381 l 24 0 l 271 0 l 388 264 l 506 0 l 753 0 l 564 381 l 753 736 l 499 736 l 388 488 l 276 736 z "},"y":{"ha":765,"x_min":0,"x_max":0,"o":"m 385 267 l 246 736 l 7 736 l 265 39 l 147 -278 l 408 -278 l 503 39 l 763 736 l 524 736 z "},"z":{"ha":693,"x_min":0,"x_max":0,"o":"m 33 150 l 33 0 l 660 0 l 660 192 l 474 192 l 321 188 l 646 586 l 646 736 l 47 736 l 47 544 l 206 544 l 358 549 z "},"&":{"ha":960,"x_min":0,"x_max":0,"o":"m 347 -18 b 635 51 460 -18 556 8 l 679 0 l 943 0 l 789 182 b 918 543 875 288 918 421 l 918 549 l 688 549 l 688 544 b 647 350 688 475 672 408 l 475 554 b 689 838 583 614 689 685 l 689 853 b 390 1101 689 986 603 1101 b 90 853 178 1101 90 986 l 90 838 b 179 594 90 732 122 668 b 26 307 96 533 26 449 l 26 293 b 347 -18 26 106 143 -18 z m 383 171 b 250 313 296 171 250 224 l 250 321 b 304 443 250 372 271 411 l 511 199 b 390 171 475 181 435 171 z m 311 844 b 386 921 311 889 339 921 l 394 921 b 468 844 442 921 468 889 l 468 836 b 356 699 468 776 419 738 b 311 836 329 742 311 788 z "},".":{"ha":369,"x_min":0,"x_max":0,"o":"m 300 232 l 69 232 l 69 0 l 300 0 z "},",":{"ha":369,"x_min":0,"x_max":0,"o":"m 300 232 l 69 232 l 69 0 l 186 0 b 63 -89 172 -60 129 -89 l 63 -199 b 300 49 219 -199 300 -114 z "},":":{"ha":369,"x_min":0,"x_max":0,"o":"m 300 232 l 69 232 l 69 0 l 300 0 z m 300 658 l 69 658 l 69 426 l 300 426 z "},";":{"ha":369,"x_min":0,"x_max":0,"o":"m 300 232 l 69 232 l 69 0 l 186 0 b 63 -89 172 -60 129 -89 l 63 -199 b 300 49 219 -199 300 -114 z m 300 658 l 69 658 l 69 426 l 300 426 z "},"…":{"ha":1389,"x_min":0,"x_max":0,"o":"m 365 232 l 135 232 l 135 0 l 365 0 z m 810 232 l 579 232 l 579 0 l 810 0 z m 1254 232 l 1024 232 l 1024 0 l 1254 0 z "},"!":{"ha":368,"x_min":0,"x_max":0,"o":"m 49 1083 l 107 317 l 263 317 l 321 1083 z m 300 232 l 69 232 l 69 0 l 300 0 z "},"?":{"ha":690,"x_min":0,"x_max":0,"o":"m 351 908 b 444 804 421 908 444 869 b 263 317 444 681 243 579 l 417 317 b 665 822 436 579 665 543 b 351 1101 665 961 596 1101 b 29 742 111 1101 29 974 l 29 717 l 250 717 b 351 908 250 853 275 908 z m 456 232 l 225 232 l 225 0 l 456 0 z "},"¿":{"ha":690,"x_min":0,"x_max":0,"o":"m 339 -103 b 246 -18 272 -103 246 -72 b 428 419 246 94 446 208 l 274 419 b 25 -36 256 208 25 232 b 339 -296 25 -164 97 -296 b 660 60 579 -296 660 -171 l 660 83 l 440 83 b 339 -103 440 -49 415 -103 z m 235 504 l 465 504 l 465 736 l 235 736 z "},"":{"ha":690,"x_min":0,"x_max":0,"o":"m 339 175 b 246 279 269 175 246 214 b 428 767 246 403 447 504 l 274 767 b 25 261 254 504 25 540 b 339 -18 25 122 94 -18 b 661 342 579 -18 661 110 l 661 367 l 440 367 b 339 175 440 231 415 175 z m 235 851 l 465 851 l 465 1083 l 235 1083 z "},"‘":{"ha":369,"x_min":0,"x_max":0,"o":"m 69 689 l 300 689 l 300 921 l 182 921 b 307 1010 196 981 239 1010 l 307 1119 b 69 872 150 1119 69 1035 z "},"’":{"ha":369,"x_min":0,"x_max":0,"o":"m 300 1083 l 69 1083 l 69 851 l 186 851 b 63 763 172 792 129 763 l 63 653 b 300 900 219 653 300 738 z "},"“":{"ha":675,"x_min":0,"x_max":0,"o":"m 69 689 l 300 689 l 300 921 l 182 921 b 307 1010 196 981 239 1010 l 307 1119 b 69 872 150 1119 69 1035 z m 375 689 l 606 689 l 606 921 l 488 921 b 613 1010 501 981 544 1010 l 613 1119 b 375 872 456 1119 375 1035 z "},"”":{"ha":675,"x_min":0,"x_max":0,"o":"m 300 1083 l 69 1083 l 69 851 l 186 851 b 63 763 172 792 129 763 l 63 653 b 300 900 219 653 300 738 z m 606 1083 l 375 1083 l 375 851 l 492 851 b 368 763 478 792 435 763 l 368 653 b 606 900 525 653 606 738 z "},"‚":{"ha":369,"x_min":0,"x_max":0,"o":"m 300 232 l 69 232 l 69 0 l 186 0 b 63 -89 172 -60 129 -89 l 63 -199 b 300 49 219 -199 300 -114 z "},"„":{"ha":675,"x_min":0,"x_max":0,"o":"m 300 232 l 69 232 l 69 0 l 186 0 b 63 -89 172 -60 129 -89 l 63 -199 b 300 49 219 -199 300 -114 z m 606 232 l 375 232 l 375 0 l 492 0 b 368 -89 478 -60 435 -89 l 368 -199 b 606 49 525 -199 606 -114 z "},"‛":{"ha":369,"x_min":0,"x_max":0,"o":"m 69 1083 l 69 900 b 307 653 69 738 150 653 l 307 763 b 182 851 239 763 196 792 l 300 851 l 300 1083 z "},"‟":{"ha":675,"x_min":0,"x_max":0,"o":"m 69 1083 l 69 900 b 307 653 69 738 150 653 l 307 763 b 182 851 239 763 196 792 l 300 851 l 300 1083 z m 375 1083 l 375 900 b 613 653 375 738 456 653 l 613 763 b 488 851 544 763 501 792 l 606 851 l 606 1083 z "},"‹":{"ha":439,"x_min":0,"x_max":0,"o":"m 369 782 l 69 578 l 69 367 l 369 163 l 369 356 l 218 472 l 369 589 z "},"«":{"ha":785,"x_min":0,"x_max":0,"o":"m 369 782 l 69 578 l 69 367 l 369 163 l 369 356 l 218 472 l 369 589 z m 715 782 l 415 578 l 415 367 l 715 163 l 715 356 l 564 472 l 715 589 z "},"/":{"ha":575,"x_min":0,"x_max":0,"o":"m 554 1167 l 340 1167 l 21 -167 l 235 -167 z "},"\\":{"ha":572,"x_min":0,"x_max":0,"o":"m 340 -167 l 554 -167 l 235 1167 l 21 1167 z "},"|":{"ha":363,"x_min":0,"x_max":0,"o":"m 75 -167 l 289 -167 l 289 1167 l 75 1167 z "},"‖":{"ha":638,"x_min":0,"x_max":0,"o":"m 75 -167 l 289 -167 l 289 1167 l 75 1167 z m 349 -167 l 563 -167 l 563 1167 l 349 1167 z "},"¦":{"ha":363,"x_min":0,"x_max":0,"o":"m 75 533 l 289 533 l 289 1167 l 75 1167 z m 75 -167 l 289 -167 l 289 467 l 75 467 z "},"•":{"ha":618,"x_min":0,"x_max":0,"o":"m 532 710 l 86 710 l 86 263 l 532 263 z "},"":{"ha":529,"x_min":0,"x_max":0,"o":"m 239 0 l 506 1083 l 292 1083 l 25 0 z "},"":{"ha":529,"x_min":0,"x_max":0,"o":"m 25 1083 l 292 0 l 506 0 l 239 1083 z "},"":{"ha":363,"x_min":0,"x_max":0,"o":"m 75 0 l 289 0 l 289 1083 l 75 1083 z "},"":{"ha":638,"x_min":0,"x_max":0,"o":"m 75 0 l 289 0 l 289 1083 l 75 1083 z m 349 0 l 563 0 l 563 1083 l 349 1083 z "},"":{"ha":363,"x_min":0,"x_max":0,"o":"m 75 575 l 289 575 l 289 1083 l 75 1083 z m 75 0 l 289 0 l 289 508 l 75 508 z "},"":{"ha":618,"x_min":0,"x_max":0,"o":"m 532 765 l 86 765 l 86 318 l 532 318 z "}," ":{"ha":278,"x_min":0,"x_max":0,"o":""}," ":{"ha":694,"x_min":0,"x_max":0,"o":""}," ":{"ha":1389,"x_min":0,"x_max":0,"o":""}," ":{"ha":463,"x_min":0,"x_max":0,"o":""}," ":{"ha":347,"x_min":0,"x_max":0,"o":""}," ":{"ha":232,"x_min":0,"x_max":0,"o":""}," ":{"ha":833,"x_min":0,"x_max":0,"o":""}," ":{"ha":250,"x_min":0,"x_max":0,"o":""}," ":{"ha":208,"x_min":0,"x_max":0,"o":""}," ":{"ha":69,"x_min":0,"x_max":0,"o":""},"​":{"ha":0,"x_min":0,"x_max":0,"o":""},"·":{"ha":369,"x_min":0,"x_max":0,"o":"m 300 603 l 69 603 l 69 371 l 300 371 z "},"-":{"ha":490,"x_min":0,"x_max":0,"o":"m 56 390 l 435 390 l 435 582 l 56 582 z "},"­":{"ha":490,"x_min":0,"x_max":0,"o":"m 56 390 l 435 390 l 435 582 l 56 582 z "},"":{"ha":463,"x_min":0,"x_max":0,"o":"m 407 390 l 407 582 l 56 582 l 56 390 z "},"–":{"ha":694,"x_min":0,"x_max":0,"o":"m 56 390 l 639 390 l 639 582 l 56 582 z "},"":{"ha":1042,"x_min":0,"x_max":0,"o":"m 56 390 l 986 390 l 986 582 l 56 582 z "},"—":{"ha":1389,"x_min":0,"x_max":0,"o":"m 56 390 l 1333 390 l 1333 582 l 56 582 z "},"‒":{"ha":833,"x_min":0,"x_max":0,"o":"m 56 390 l 778 390 l 778 582 l 56 582 z "},"―":{"ha":1667,"x_min":0,"x_max":0,"o":"m 56 390 l 1611 390 l 1611 582 l 56 582 z "},"(":{"ha":507,"x_min":0,"x_max":0,"o":"m 54 486 b 253 -167 54 167 142 -6 l 481 -167 b 274 486 365 8 274 203 l 274 514 b 481 1167 274 797 365 992 l 253 1167 b 54 514 142 1006 54 833 z "},")":{"ha":507,"x_min":0,"x_max":0,"o":"m 453 514 b 254 1167 453 833 367 1006 l 26 1167 b 233 514 142 992 233 797 l 233 486 b 26 -167 233 203 142 8 l 254 -167 b 453 486 367 -6 453 167 z "},"[":{"ha":507,"x_min":0,"x_max":0,"o":"m 81 1167 l 81 -167 l 461 -167 l 461 25 l 299 25 l 299 975 l 461 975 l 461 1167 z "},"]":{"ha":507,"x_min":0,"x_max":0,"o":"m 426 -167 l 426 1167 l 46 1167 l 46 975 l 208 975 l 208 25 l 46 25 l 46 -167 z "},"{":{"ha":507,"x_min":0,"x_max":0,"o":"m 461 1167 l 424 1167 b 138 919 251 1167 138 1104 l 138 710 b 33 596 138 628 104 596 l 33 404 b 138 301 100 404 133 375 l 138 81 b 424 -167 138 -104 251 -167 l 461 -167 l 461 25 b 356 143 390 25 356 58 l 356 339 b 272 500 356 418 326 469 b 356 661 326 531 356 582 l 356 869 b 461 975 358 944 393 975 z "},"}":{"ha":507,"x_min":0,"x_max":0,"o":"m 46 -167 l 83 -167 b 369 81 256 -167 369 -104 l 369 290 b 474 404 369 372 403 404 l 474 596 b 369 697 406 596 372 625 l 369 919 b 83 1167 369 1104 256 1167 l 46 1167 l 46 975 b 151 857 117 975 151 942 l 151 661 b 233 500 151 582 181 531 b 151 339 181 469 151 418 l 151 143 b 46 25 151 58 117 25 z "},"〈":{"ha":507,"x_min":0,"x_max":0,"o":"m 482 1167 l 256 1167 l 31 500 l 256 -167 l 482 -167 l 257 500 z "},"〉":{"ha":507,"x_min":0,"x_max":0,"o":"m 25 -167 l 251 -167 l 476 500 l 251 1167 l 25 1167 l 250 500 z "},"":{"ha":507,"x_min":0,"x_max":0,"o":"m 63 528 b 228 0 63 286 138 111 l 456 0 b 282 528 375 117 282 306 l 282 556 b 456 1083 282 778 375 967 l 228 1083 b 63 556 138 972 63 797 z "},"":{"ha":507,"x_min":0,"x_max":0,"o":"m 444 556 b 279 1083 444 797 369 972 l 51 1083 b 225 556 132 967 225 778 l 225 528 b 51 0 225 306 132 117 l 279 0 b 444 528 369 111 444 286 z "},"":{"ha":507,"x_min":0,"x_max":0,"o":"m 81 1083 l 81 0 l 461 0 l 461 192 l 299 192 l 299 892 l 461 892 l 461 1083 z "},"":{"ha":507,"x_min":0,"x_max":0,"o":"m 426 0 l 426 1083 l 46 1083 l 46 892 l 208 892 l 208 192 l 46 192 l 46 0 z "},"":{"ha":507,"x_min":0,"x_max":0,"o":"m 461 1083 l 424 1083 b 138 836 251 1083 138 1021 l 138 751 b 33 638 138 669 104 638 l 33 446 b 138 332 104 446 138 414 l 138 247 b 424 0 138 63 251 0 l 461 0 l 461 192 b 356 310 390 192 356 225 l 356 381 b 272 542 356 460 326 511 b 356 703 326 572 356 624 l 356 786 b 461 892 358 861 393 892 z "},"":{"ha":507,"x_min":0,"x_max":0,"o":"m 46 892 b 151 774 117 892 151 858 l 151 703 b 233 542 151 624 181 572 b 151 381 181 511 151 460 l 151 310 b 46 192 151 225 117 192 l 46 0 l 83 0 b 369 247 256 0 369 63 l 369 332 b 474 446 369 414 403 446 l 474 638 b 369 751 403 638 369 669 l 369 836 b 83 1083 369 1021 256 1083 l 46 1083 z "},"":{"ha":507,"x_min":0,"x_max":0,"o":"m 453 1083 l 226 1083 l 38 542 l 226 0 l 453 0 l 264 542 z "},"":{"ha":507,"x_min":0,"x_max":0,"o":"m 244 542 l 54 0 l 281 0 l 471 542 l 281 1083 l 54 1083 z "},"*":{"ha":574,"x_min":0,"x_max":0,"o":"m 225 1111 l 232 925 l 342 925 l 349 1111 z m 7 863 l 185 811 l 219 915 l 44 981 z m 175 576 l 279 731 l 190 794 l 75 649 z m 528 981 l 354 915 l 388 811 l 567 863 z m 497 649 l 382 794 l 293 731 l 399 576 z "},"†":{"ha":574,"x_min":0,"x_max":0,"o":"m 225 607 l 232 426 l 342 426 l 349 607 l 342 786 l 232 786 z m 225 1111 l 232 925 l 342 925 l 349 1111 z m 33 794 l 217 801 l 217 910 l 33 917 z m 539 917 l 357 910 l 357 801 l 539 794 z "},"‡":{"ha":574,"x_min":0,"x_max":0,"o":"m 225 281 l 232 101 l 342 101 l 349 281 l 342 460 l 232 460 z m 225 1111 l 232 925 l 342 925 l 349 1111 z m 225 693 l 232 600 l 342 600 l 349 693 l 342 786 l 232 786 z m 33 468 l 217 475 l 217 585 l 33 592 z m 539 592 l 357 585 l 357 475 l 539 468 z m 33 794 l 217 801 l 217 910 l 33 917 z m 539 917 l 357 910 l 357 801 l 539 794 z "},"~":{"ha":833,"x_min":0,"x_max":0,"o":"m 256 669 b 39 538 157 669 83 608 l 142 435 b 264 501 164 461 207 501 b 578 411 365 501 433 411 b 794 543 676 411 750 472 l 692 646 b 569 579 669 619 626 579 b 256 669 468 579 400 669 z "},"_":{"ha":444,"x_min":0,"x_max":0,"o":"m 58 -257 l 386 -257 l 386 -65 l 58 -65 z "},"":{"ha":444,"x_min":0,"x_max":0,"o":"m 58 0 l 386 0 l 386 190 l 58 190 z "},"":{"ha":833,"x_min":0,"x_max":0,"o":"m 58 -257 l 775 -257 l 775 -65 l 58 -65 z "},"＿":{"ha":833,"x_min":0,"x_max":0,"o":"m 58 -257 l 775 -257 l 775 -65 l 58 -65 z "},"'":{"ha":368,"x_min":0,"x_max":0,"o":"m 65 1083 l 100 635 l 268 635 l 303 1083 z "},"\"":{"ha":619,"x_min":0,"x_max":0,"o":"m 65 1083 l 100 635 l 268 635 l 281 1083 z m 340 1083 l 351 635 l 521 635 l 554 1083 z "},"‴":{"ha":872,"x_min":0,"x_max":0,"o":"m 592 1083 l 603 635 l 772 635 l 807 1083 z m 65 1083 l 100 635 l 268 635 l 281 1083 z m 340 1083 l 351 635 l 521 635 l 532 1083 z "},"@":{"ha":1376,"x_min":0,"x_max":0,"o":"m 713 -153 b 183 375 401 -153 183 21 l 183 431 b 706 958 183 782 403 958 l 714 958 b 1190 553 949 958 1190 876 l 1190 511 b 972 225 1190 297 1132 233 l 972 546 l 985 736 l 814 736 l 799 654 b 606 754 761 713 700 754 b 349 433 433 754 349 619 l 349 386 b 606 65 349 200 433 65 b 799 165 700 65 761 107 l 814 83 l 960 83 b 1339 511 1175 83 1339 178 l 1339 553 b 710 1101 1339 944 1046 1101 b 38 431 322 1101 38 864 l 38 375 b 717 -296 38 -58 322 -296 b 1261 -112 879 -296 1069 -265 l 1179 -1 b 721 -153 1043 -101 889 -153 z m 782 519 l 782 300 b 665 235 765 274 725 235 b 549 386 585 235 549 293 l 549 433 b 665 585 549 526 585 585 b 782 519 725 585 765 546 z "},"":{"ha":1376,"x_min":0,"x_max":0,"o":"m 713 -14 b 183 514 401 -14 183 160 l 183 569 b 706 1097 183 921 403 1097 l 714 1097 b 1190 692 949 1097 1190 1015 l 1190 650 b 972 364 1190 436 1132 372 l 972 685 l 985 875 l 814 875 l 799 793 b 606 893 761 851 700 893 b 349 572 433 893 349 758 l 349 525 b 606 204 349 339 433 204 b 799 304 700 204 761 246 l 814 222 l 960 222 b 1339 650 1175 222 1339 317 l 1339 692 b 710 1240 1339 1083 1046 1240 b 38 569 322 1240 38 1003 l 38 514 b 717 -157 38 81 322 -157 b 1261 26 879 -157 1069 -126 l 1179 138 b 721 -14 1043 38 889 -14 z m 782 658 l 782 439 b 665 374 765 413 725 374 b 549 525 585 374 549 432 l 549 572 b 665 724 549 665 585 724 b 782 658 725 724 765 685 z "},"£":{"ha":833,"x_min":0,"x_max":0,"o":"m 447 908 b 553 694 524 908 553 829 l 774 694 l 774 718 b 447 1101 774 974 688 1101 b 128 810 203 1101 128 953 b 156 603 128 732 139 665 l 61 603 l 61 413 l 218 413 b 274 193 242 344 263 274 l 61 193 l 61 0 l 772 0 l 772 193 l 465 193 b 431 413 460 274 446 346 l 625 413 l 625 603 l 381 603 b 350 792 363 671 350 732 b 447 908 350 863 378 908 z "},"+":{"ha":833,"x_min":0,"x_max":0,"o":"m 319 900 l 319 639 l 58 639 l 58 444 l 319 444 l 319 183 l 514 183 l 514 444 l 775 444 l 775 639 l 514 639 l 514 900 z "},"−":{"ha":833,"x_min":0,"x_max":0,"o":"m 58 444 l 775 444 l 775 639 l 58 639 z "},"×":{"ha":833,"x_min":0,"x_max":0,"o":"m 179 165 l 417 403 l 654 165 l 793 304 l 556 542 l 793 779 l 654 918 l 417 681 l 179 918 l 40 779 l 278 542 l 40 304 z "},"÷":{"ha":833,"x_min":0,"x_max":0,"o":"m 58 444 l 775 444 l 775 639 l 58 639 z m 532 368 l 301 368 l 301 138 l 532 138 z m 532 946 l 301 946 l 301 715 l 532 715 z "},"=":{"ha":833,"x_min":0,"x_max":0,"o":"m 58 594 l 775 594 l 775 790 l 58 790 z m 58 293 l 775 293 l 775 489 l 58 489 z "},"≠":{"ha":833,"x_min":0,"x_max":0,"o":"m 58 594 l 369 594 l 310 489 l 58 489 l 58 293 l 197 293 l 115 149 l 268 149 l 350 293 l 775 293 l 775 489 l 463 489 l 522 594 l 775 594 l 775 790 l 635 790 l 718 935 l 565 935 l 482 790 l 58 790 z "},"≈":{"ha":833,"x_min":0,"x_max":0,"o":"m 256 519 b 39 388 157 519 83 458 l 142 285 b 264 351 164 311 207 351 b 578 261 365 351 433 261 b 794 393 676 261 750 322 l 692 496 b 569 428 669 469 626 428 b 256 519 468 428 400 519 z m 256 819 b 39 688 157 819 83 758 l 142 585 b 264 651 164 611 207 651 b 578 561 365 651 433 561 b 794 693 676 561 750 622 l 692 796 b 569 729 669 769 626 729 b 256 819 468 729 400 819 z "},"<":{"ha":833,"x_min":0,"x_max":0,"o":"m 58 649 l 58 435 l 775 150 l 775 367 l 306 542 l 775 717 l 775 933 z "},">":{"ha":833,"x_min":0,"x_max":0,"o":"m 775 649 l 58 933 l 58 717 l 528 542 l 58 367 l 58 150 l 775 435 z "},"≤":{"ha":833,"x_min":0,"x_max":0,"o":"m 775 751 l 775 968 l 58 744 l 58 532 l 775 308 l 775 525 l 375 638 z m 775 242 l 58 464 l 58 339 l 775 115 z "},"≥":{"ha":833,"x_min":0,"x_max":0,"o":"m 58 525 l 58 308 l 775 532 l 775 744 l 58 968 l 58 751 l 458 638 z m 58 115 l 775 339 l 775 464 l 58 242 z "},"¬":{"ha":833,"x_min":0,"x_max":0,"o":"m 58 604 l 579 604 l 579 269 l 775 269 l 775 800 l 58 800 z "},"≡":{"ha":833,"x_min":0,"x_max":0,"o":"m 58 744 l 775 744 l 775 940 l 58 940 z m 58 143 l 775 143 l 775 339 l 58 339 z m 58 444 l 775 444 l 775 639 l 58 639 z "},"œ":{"ha":1242,"x_min":0,"x_max":0,"o":"m 1200 289 l 1200 388 b 860 754 1200 600 1093 754 b 624 654 753 754 676 714 b 386 754 574 714 496 754 b 42 393 150 754 42 606 l 42 343 b 386 -18 42 131 150 -18 b 624 81 496 -18 574 21 b 868 -18 676 21 756 -18 b 1200 231 1081 -18 1200 90 l 1200 236 l 993 236 b 869 149 993 192 946 149 b 731 289 788 149 739 186 z m 261 343 l 261 393 b 386 565 261 501 300 565 b 511 393 474 565 511 501 l 511 343 b 386 171 511 235 474 171 b 261 343 300 171 261 235 z m 856 588 b 979 447 933 588 972 543 l 732 447 b 856 588 739 543 778 588 z "},"A":{"ha":890,"x_min":0,"x_max":0,"o":"m 290 1086 l 19 0 l 261 0 l 313 233 l 578 233 l 631 0 l 871 0 l 600 1086 z m 444 826 l 533 428 l 356 428 z "},"B":{"ha":876,"x_min":0,"x_max":0,"o":"m 78 1083 l 78 0 l 444 0 b 810 311 619 0 810 47 l 810 339 b 676 560 810 456 754 522 b 782 756 739 596 782 657 l 782 783 b 433 1083 782 1038 603 1083 z m 451 456 b 582 332 514 456 582 431 l 582 319 b 451 194 582 221 514 194 l 303 194 l 303 456 z m 432 889 b 554 779 490 889 554 868 l 554 761 b 432 651 554 672 490 651 l 303 651 l 303 889 z "},"C":{"ha":903,"x_min":0,"x_max":0,"o":"m 282 514 l 282 569 b 461 907 282 786 317 907 l 474 907 b 624 672 592 907 624 821 l 849 672 l 849 722 b 461 1101 849 993 718 1101 b 54 569 179 1101 54 944 l 54 514 b 461 -18 54 139 179 -18 b 849 357 718 -18 849 90 l 849 369 l 624 369 b 474 176 624 253 583 176 l 461 176 b 282 514 317 176 282 297 z "},"D":{"ha":921,"x_min":0,"x_max":0,"o":"m 867 514 l 867 569 b 410 1083 867 944 732 1083 l 78 1083 l 78 0 l 410 0 b 867 514 732 0 867 139 z m 303 194 l 303 889 l 397 889 b 638 569 585 889 638 786 l 638 514 b 397 194 638 297 585 194 z "},"E":{"ha":796,"x_min":0,"x_max":0,"o":"m 78 1083 l 78 0 l 740 0 l 740 194 l 303 194 l 303 456 l 671 456 l 671 650 l 303 650 l 303 889 l 740 889 l 740 1083 z "},"F":{"ha":763,"x_min":0,"x_max":0,"o":"m 78 1083 l 78 0 l 303 0 l 303 456 l 665 456 l 665 650 l 303 650 l 303 889 l 735 889 l 735 1083 z "},"G":{"ha":935,"x_min":0,"x_max":0,"o":"m 483 -18 b 863 108 672 -18 782 42 l 863 586 l 494 586 l 494 392 l 638 392 l 638 218 b 490 176 604 194 554 176 l 478 176 b 283 514 319 176 283 297 l 283 569 b 469 907 283 786 321 907 l 482 907 b 639 672 607 907 639 821 l 864 672 l 864 722 b 469 1101 864 993 728 1101 b 54 569 189 1101 54 944 l 54 514 b 483 -18 54 139 189 -18 z "},"H":{"ha":921,"x_min":0,"x_max":0,"o":"m 618 1083 l 618 650 l 303 650 l 303 1083 l 78 1083 l 78 0 l 303 0 l 303 456 l 618 456 l 618 0 l 843 0 l 843 1083 z "},"I":{"ha":393,"x_min":0,"x_max":0,"o":"m 310 1083 l 85 1083 l 85 0 l 310 0 z "},"J":{"ha":746,"x_min":0,"x_max":0,"o":"m 450 1083 l 450 358 b 347 176 450 242 428 176 b 244 369 268 176 244 242 l 32 369 l 32 333 b 353 -18 32 110 114 -18 b 675 331 582 -18 675 110 l 675 1083 z "},"K":{"ha":868,"x_min":0,"x_max":0,"o":"m 303 1083 l 78 1083 l 78 0 l 303 0 l 303 313 l 394 443 l 592 0 l 842 0 l 538 649 l 842 1083 l 569 1083 l 303 658 z "},"L":{"ha":724,"x_min":0,"x_max":0,"o":"m 703 0 l 703 194 l 303 194 l 303 1083 l 78 1083 l 78 0 z "},"M":{"ha":1207,"x_min":0,"x_max":0,"o":"m 911 693 l 906 476 l 906 0 l 1131 0 l 1131 1083 l 797 1083 l 604 390 l 410 1083 l 78 1083 l 78 0 l 303 0 l 303 476 l 296 693 l 489 0 l 718 0 z "},"N":{"ha":949,"x_min":0,"x_max":0,"o":"m 871 1083 l 657 1083 l 657 629 l 664 411 l 315 1083 l 78 1083 l 78 0 l 290 0 l 290 454 l 283 672 l 633 0 l 871 0 z "},"O":{"ha":935,"x_min":0,"x_max":0,"o":"m 467 -18 b 881 514 749 -18 881 139 l 881 569 b 467 1101 881 944 749 1101 b 54 569 186 1101 54 944 l 54 514 b 467 -18 54 139 186 -18 z m 461 176 b 282 514 322 176 282 297 l 282 569 b 461 907 282 786 322 907 l 474 907 b 651 569 613 907 651 786 l 651 514 b 474 176 651 297 613 176 z "},"P":{"ha":846,"x_min":0,"x_max":0,"o":"m 303 389 l 433 389 b 810 722 610 389 810 433 l 810 750 b 433 1083 810 1038 610 1083 l 78 1083 l 78 0 l 303 0 z m 303 583 l 303 889 l 443 889 b 582 743 504 889 582 865 l 582 729 b 443 583 582 607 504 583 z "},"Q":{"ha":935,"x_min":0,"x_max":0,"o":"m 467 -18 b 518 -15 485 -18 501 -17 l 565 -139 l 740 -139 l 675 24 b 881 514 814 92 881 249 l 881 569 b 467 1101 881 944 749 1101 b 54 569 186 1101 54 944 l 54 514 b 467 -18 54 139 186 -18 z m 540 364 l 371 364 l 443 176 b 282 514 318 188 282 307 l 282 569 b 461 907 282 786 322 907 l 474 907 b 651 569 613 907 651 786 l 651 514 b 593 229 651 381 636 283 z "},"R":{"ha":865,"x_min":0,"x_max":0,"o":"m 303 389 l 418 389 l 567 0 l 810 0 l 639 421 b 810 722 736 461 810 547 l 810 750 b 433 1083 810 1038 610 1083 l 78 1083 l 78 0 l 303 0 z m 303 583 l 303 889 l 443 889 b 582 743 504 889 582 865 l 582 729 b 443 583 582 607 504 583 z "},"S":{"ha":876,"x_min":0,"x_max":0,"o":"m 403 453 b 600 311 560 432 600 389 l 600 304 b 444 176 600 232 549 176 l 432 176 b 272 369 328 176 272 233 l 47 369 l 47 357 b 438 -18 47 96 182 -18 b 829 311 692 -18 829 103 l 829 325 b 474 639 829 526 710 607 b 283 781 315 660 283 701 l 283 788 b 426 907 283 857 336 907 l 439 907 b 596 700 553 907 596 842 l 821 700 l 821 729 b 438 1101 821 983 704 1101 b 56 779 190 1101 56 975 l 56 764 b 403 453 56 568 167 485 z "},"T":{"ha":774,"x_min":0,"x_max":0,"o":"m 499 889 l 750 889 l 750 1083 l 24 1083 l 24 889 l 274 889 l 274 0 l 499 0 z "},"U":{"ha":921,"x_min":0,"x_max":0,"o":"m 460 -18 b 850 343 754 -18 850 107 l 850 1083 l 625 1083 l 625 350 b 460 176 625 235 588 176 b 296 350 332 176 296 235 l 296 1083 l 71 1083 l 71 343 b 460 -18 71 107 165 -18 z "},"V":{"ha":890,"x_min":0,"x_max":0,"o":"m 600 -3 l 871 1083 l 629 1083 l 444 257 l 260 1083 l 19 1083 l 290 -3 z "},"W":{"ha":1301,"x_min":0,"x_max":0,"o":"m 807 -3 l 1096 -3 l 1275 1083 l 1040 1083 l 936 304 l 790 1083 l 511 1083 l 365 304 l 261 1083 l 26 1083 l 206 -3 l 493 -3 l 650 826 z "},"X":{"ha":901,"x_min":0,"x_max":0,"o":"m 26 0 l 275 0 l 450 404 l 625 0 l 875 0 l 611 568 l 875 1083 l 614 1083 l 450 724 l 288 1083 l 26 1083 l 290 568 z "},"Y":{"ha":868,"x_min":0,"x_max":0,"o":"m 547 332 l 857 1083 l 611 1083 l 435 610 l 257 1083 l 11 1083 l 322 332 l 322 0 l 547 0 z "},"Z":{"ha":832,"x_min":0,"x_max":0,"o":"m 56 154 l 56 0 l 776 0 l 776 194 l 529 194 l 331 190 l 763 929 l 763 1083 l 69 1083 l 69 889 l 289 889 l 488 893 z "},"Æ":{"ha":1229,"x_min":0,"x_max":0,"o":"m 389 1083 l 11 0 l 253 0 l 328 236 l 581 236 l 607 0 l 1174 0 l 1174 194 l 819 194 l 783 456 l 1104 456 l 1104 650 l 756 650 l 724 889 l 1174 889 l 1174 1083 z m 515 825 l 558 431 l 389 431 z "},"Ø":{"ha":931,"x_min":0,"x_max":0,"o":"m 54 569 l 54 514 b 138 132 54 343 82 218 l 53 0 l 189 0 l 218 47 b 467 -18 282 3 364 -18 b 881 514 749 -18 881 139 l 881 569 b 796 953 881 740 853 867 l 879 1083 l 743 1083 l 714 1038 b 467 1101 650 1081 568 1101 b 54 569 186 1101 54 944 z m 651 569 l 651 514 b 474 176 651 297 613 176 l 461 176 b 338 233 404 176 365 196 l 643 713 b 651 569 649 671 651 624 z m 282 514 l 282 569 b 461 907 282 786 322 907 l 474 907 b 596 851 528 907 568 888 l 290 372 b 282 514 285 413 282 461 z "},"ß":{"ha":878,"x_min":0,"x_max":0,"o":"m 396 464 l 525 375 b 631 225 603 322 631 268 b 579 149 631 185 621 149 b 525 233 543 149 525 178 l 339 233 l 339 222 b 583 -18 339 83 382 -18 b 850 228 774 -18 850 100 l 850 240 b 654 531 850 353 781 446 l 621 553 b 761 811 708 617 761 692 l 761 825 b 415 1129 761 986 653 1129 b 68 825 161 1129 68 994 l 68 0 l 288 0 l 288 813 b 415 940 288 876 324 940 b 542 801 504 940 542 883 b 396 603 542 717 482 650 z "},"´":{"ha":694,"x_min":0,"x_max":0,"o":"m 365 1083 l 239 828 l 456 828 l 604 1083 z "},"˘":{"ha":694,"x_min":0,"x_max":0,"o":"m 347 808 b 607 1083 542 808 610 925 l 450 1083 b 347 975 450 1001 407 975 b 244 1083 288 975 244 1001 l 88 1083 b 347 808 85 925 153 808 z "},"ˇ":{"ha":694,"x_min":0,"x_max":0,"o":"m 56 1083 l 242 828 l 453 828 l 639 1083 l 447 1083 l 347 968 l 247 1083 z "},"":{"ha":694,"x_min":0,"x_max":0,"o":"m 425 1111 l 425 828 l 522 828 l 558 1111 z "},"¸":{"ha":836,"x_min":0,"x_max":0,"o":"m 200 -264 b 349 -299 226 -281 281 -299 b 515 -176 458 -299 515 -256 b 376 -56 515 -99 454 -61 l 397 0 l 297 0 l 257 -100 l 278 -139 b 331 -132 278 -139 306 -132 b 397 -164 375 -132 397 -143 b 332 -196 397 -183 381 -196 b 232 -172 296 -196 254 -186 z "},"":{"ha":836,"x_min":0,"x_max":0,"o":"m 397 -164 b 332 -196 397 -183 381 -196 b 232 -172 296 -196 254 -186 l 200 -264 b 349 -299 226 -281 281 -299 b 515 -176 458 -299 515 -256 b 358 -56 515 -93 446 -56 b 264 -69 315 -56 283 -62 l 264 -142 b 332 -132 272 -137 304 -132 b 397 -164 376 -132 397 -143 z "},"ˆ":{"ha":694,"x_min":0,"x_max":0,"o":"m 247 828 l 347 942 l 447 828 l 639 828 l 453 1083 l 242 1083 l 56 828 z "},"":{"ha":836,"x_min":0,"x_max":0,"o":"m 446 -61 l 249 -61 l 249 -189 l 358 -189 b 242 -239 340 -226 300 -239 l 242 -314 b 446 -140 379 -314 446 -264 z "},"":{"ha":836,"x_min":0,"x_max":0,"o":"m 446 -61 l 249 -61 l 249 -189 l 358 -189 b 242 -239 340 -226 300 -239 l 242 -314 b 446 -140 379 -314 446 -264 z "},"¨":{"ha":694,"x_min":0,"x_max":0,"o":"m 313 1072 l 83 1072 l 83 842 l 313 842 z m 611 1072 l 382 1072 l 382 842 l 611 842 z "},"˙":{"ha":694,"x_min":0,"x_max":0,"o":"m 463 1072 l 232 1072 l 232 842 l 463 842 z "},"":{"ha":836,"x_min":0,"x_max":0,"o":"m 446 -71 l 249 -71 l 249 -268 l 446 -268 z "},"":{"ha":694,"x_min":0,"x_max":0,"o":"m 257 1083 l 374 828 l 544 828 l 451 1083 z m 3 1083 l 151 828 l 322 828 l 196 1083 z "},"`":{"ha":694,"x_min":0,"x_max":0,"o":"m 90 1083 l 239 828 l 456 828 l 329 1083 z "},"˝":{"ha":694,"x_min":0,"x_max":0,"o":"m 243 1083 l 150 828 l 321 828 l 438 1083 z m 499 1083 l 372 828 l 543 828 l 692 1083 z "},"":{"ha":694,"x_min":0,"x_max":0,"o":"m 347 1101 b 88 828 153 1101 85 985 l 244 828 b 347 936 244 908 288 936 b 450 828 407 936 450 908 l 607 828 b 347 1101 610 985 542 1101 z "},"¯":{"ha":694,"x_min":0,"x_max":0,"o":"m 139 860 l 556 860 l 556 1051 l 139 1051 z "},"˛":{"ha":836,"x_min":0,"x_max":0,"o":"m 319 -96 b 406 0 319 -54 351 -24 l 368 92 b 157 -149 265 60 157 -24 b 344 -299 157 -250 232 -299 b 488 -264 401 -299 458 -282 l 438 -131 b 379 -146 426 -137 406 -146 b 319 -96 343 -146 319 -125 z "},"˚":{"ha":694,"x_min":0,"x_max":0,"o":"m 201 956 b 347 808 201 875 267 808 b 493 956 428 808 493 875 b 347 1101 493 1036 428 1101 b 201 956 267 1101 201 1036 z m 276 956 b 347 1025 276 994 308 1025 b 418 956 386 1025 418 994 b 347 885 418 917 386 885 b 276 956 308 885 276 917 z "},"˜":{"ha":694,"x_min":0,"x_max":0,"o":"m 481 1072 b 438 1021 481 1035 463 1021 b 222 1093 382 1021 311 1093 b 68 872 136 1093 68 1028 l 214 872 b 257 924 214 910 232 924 b 472 851 313 924 383 851 b 626 1072 558 851 626 917 z "},"":{"ha":694,"x_min":0,"x_max":0,"o":"m 315 1319 l 239 1167 l 456 1167 l 544 1319 z "},"":{"ha":694,"x_min":0,"x_max":0,"o":"m 347 1146 b 601 1319 551 1146 601 1225 l 450 1319 b 347 1264 450 1283 421 1264 b 244 1319 274 1264 244 1283 l 93 1319 b 347 1146 93 1225 143 1146 z "},"":{"ha":694,"x_min":0,"x_max":0,"o":"m 64 1319 l 236 1167 l 458 1167 l 631 1319 l 433 1319 l 347 1257 l 261 1319 z "},"":{"ha":694,"x_min":0,"x_max":0,"o":"m 261 1167 l 347 1228 l 433 1167 l 631 1167 l 458 1319 l 236 1319 l 64 1167 z "},"":{"ha":694,"x_min":0,"x_max":0,"o":"m 254 1167 l 440 1167 l 440 1250 l 339 1250 b 443 1292 356 1285 392 1292 l 443 1344 b 254 1201 317 1344 254 1296 z "},"":{"ha":694,"x_min":0,"x_max":0,"o":"m 318 1313 l 133 1313 l 133 1174 l 318 1174 z m 561 1313 l 376 1313 l 376 1174 l 561 1174 z "},"":{"ha":694,"x_min":0,"x_max":0,"o":"m 440 1313 l 254 1313 l 254 1174 l 440 1174 z "},"":{"ha":694,"x_min":0,"x_max":0,"o":"m 289 1319 l 367 1167 l 560 1167 l 496 1319 z m 46 1319 l 135 1167 l 328 1167 l 253 1319 z "},"":{"ha":694,"x_min":0,"x_max":0,"o":"m 150 1319 l 239 1167 l 456 1167 l 379 1319 z "},"":{"ha":694,"x_min":0,"x_max":0,"o":"m 199 1319 l 135 1167 l 328 1167 l 406 1319 z m 442 1319 l 367 1167 l 560 1167 l 649 1319 z "},"":{"ha":694,"x_min":0,"x_max":0,"o":"m 347 1340 b 93 1167 143 1340 93 1261 l 244 1167 b 347 1222 244 1203 274 1222 b 450 1167 421 1222 450 1203 l 601 1167 b 347 1340 601 1261 551 1340 z "},"":{"ha":694,"x_min":0,"x_max":0,"o":"m 140 1176 l 554 1176 l 554 1310 l 140 1310 z "},"":{"ha":694,"x_min":0,"x_max":0,"o":"m 201 1192 b 347 1044 201 1111 267 1044 b 493 1192 428 1044 493 1111 b 347 1338 493 1272 428 1338 b 201 1192 267 1338 201 1272 z m 276 1192 b 347 1261 276 1231 308 1261 b 418 1192 386 1261 418 1231 b 347 1121 418 1153 386 1121 b 276 1192 308 1121 276 1153 z "},"":{"ha":694,"x_min":0,"x_max":0,"o":"m 486 1315 b 440 1269 486 1279 465 1269 b 233 1336 388 1269 322 1336 b 90 1171 158 1336 90 1293 l 208 1171 b 254 1217 208 1207 229 1217 b 461 1150 307 1217 372 1150 b 604 1315 536 1150 604 1193 z "},"‽":{"ha":690,"x_min":0,"x_max":0,"o":"m 417 317 b 665 822 436 579 665 543 b 351 1101 665 961 596 1101 b 29 742 111 1101 29 974 l 29 717 l 228 717 b 285 894 228 815 243 871 l 297 317 z m 469 232 l 239 232 l 239 0 l 469 0 z m 456 799 b 400 654 456 750 429 706 l 404 897 b 456 799 440 879 456 844 z "},"":{"ha":690,"x_min":0,"x_max":0,"o":"m 25 -29 b 339 -296 25 -157 97 -296 b 660 60 579 -296 660 -171 l 660 83 l 468 83 b 415 -86 468 -8 453 -62 l 404 419 l 274 419 b 25 -29 256 208 25 239 z m 228 504 l 458 504 l 458 736 l 228 736 z m 246 -7 b 301 129 246 50 272 88 l 297 -93 b 246 -7 260 -78 246 -46 z "},"":{"ha":690,"x_min":0,"x_max":0,"o":"m 29 261 b 343 -18 29 122 99 -18 b 665 342 583 -18 665 110 l 665 367 l 467 367 b 408 188 467 268 450 211 l 397 767 l 278 767 b 29 261 258 504 29 540 z m 225 851 l 456 851 l 456 1083 l 225 1083 z m 239 285 b 294 428 239 332 264 376 l 289 186 b 239 285 253 203 239 239 z "},"›":{"ha":439,"x_min":0,"x_max":0,"o":"m 69 589 l 221 472 l 69 356 l 69 163 l 369 367 l 369 578 l 69 782 z "},"»":{"ha":785,"x_min":0,"x_max":0,"o":"m 415 589 l 567 472 l 415 356 l 415 163 l 715 367 l 715 578 l 415 782 z m 69 589 l 221 472 l 69 356 l 69 163 l 369 367 l 369 578 l 69 782 z "},"":{"ha":369,"x_min":0,"x_max":0,"o":"m 300 658 l 69 658 l 69 426 l 300 426 z "},"":{"ha":444,"x_min":0,"x_max":0,"o":"m 56 446 l 435 446 l 435 638 l 56 638 z "},"":{"ha":463,"x_min":0,"x_max":0,"o":"m 407 446 l 407 638 l 58 638 l 58 446 z "},"":{"ha":694,"x_min":0,"x_max":0,"o":"m 56 446 l 639 446 l 639 638 l 56 638 z "},"":{"ha":1042,"x_min":0,"x_max":0,"o":"m 56 446 l 986 446 l 986 638 l 56 638 z "},"":{"ha":1389,"x_min":0,"x_max":0,"o":"m 56 446 l 1333 446 l 1333 638 l 56 638 z "},"":{"ha":833,"x_min":0,"x_max":0,"o":"m 56 446 l 778 446 l 778 638 l 56 638 z "},"":{"ha":1667,"x_min":0,"x_max":0,"o":"m 56 446 l 1611 446 l 1611 638 l 56 638 z "},"§":{"ha":763,"x_min":0,"x_max":0,"o":"m 719 546 l 719 558 b 414 785 719 724 599 769 b 306 868 328 793 306 824 b 400 936 306 910 339 936 b 496 842 468 936 496 900 l 710 842 l 710 849 b 400 1101 710 1007 617 1101 b 92 861 226 1101 92 1031 l 92 849 b 139 711 92 792 107 746 b 43 538 76 675 43 618 l 43 525 b 349 299 43 360 164 314 b 456 215 433 290 456 260 b 361 147 456 174 422 147 b 267 242 294 147 267 183 l 53 242 l 53 235 b 361 -18 53 76 146 -18 b 671 222 536 -18 671 53 l 671 235 b 622 371 671 290 654 336 b 719 546 686 407 719 464 z m 379 632 b 500 542 467 629 500 597 b 394 451 500 493 468 454 l 382 451 b 263 542 296 454 263 486 b 367 632 263 590 293 628 z "},"¶":{"ha":763,"x_min":0,"x_max":0,"o":"m 463 0 l 688 0 l 688 1083 l 411 1083 b 35 750 235 1083 35 1038 l 35 722 b 411 389 35 433 235 389 l 463 389 z "},"^":{"ha":833,"x_min":0,"x_max":0,"o":"m 524 1083 l 310 1083 l 25 367 l 242 367 l 417 836 l 592 367 l 808 367 z "},"¡":{"ha":368,"x_min":0,"x_max":0,"o":"m 321 -278 l 263 419 l 107 419 l 49 -278 z m 69 504 l 300 504 l 300 736 l 69 736 z "},"":{"ha":368,"x_min":0,"x_max":0,"o":"m 321 0 l 263 767 l 107 767 l 49 0 z m 69 851 l 300 851 l 300 1083 l 69 1083 z "},"©":{"ha":1278,"x_min":0,"x_max":0,"o":"m 79 542 b 639 -18 79 232 329 -18 b 1199 542 949 -18 1199 232 b 639 1101 1199 851 949 1101 b 79 542 329 1101 79 851 z m 157 542 b 639 1024 157 808 372 1024 b 1121 542 906 1024 1121 808 b 639 60 1121 275 906 60 b 157 542 372 60 157 275 z m 643 367 b 535 518 563 367 535 429 l 535 565 b 643 717 535 654 563 717 b 740 617 708 717 740 679 l 925 617 l 925 646 b 639 888 925 786 832 888 b 339 565 426 888 339 749 l 339 518 b 639 196 339 335 426 196 b 925 426 832 196 925 296 l 925 454 l 740 454 b 643 367 740 406 710 367 z "},"®":{"ha":458,"x_min":0,"x_max":0,"o":"m 24 924 b 229 718 24 810 115 718 b 435 924 343 718 435 810 b 229 1129 435 1038 343 1129 b 24 924 115 1129 24 1038 z m 57 924 b 229 1096 57 1019 133 1096 b 401 924 325 1096 401 1019 b 229 751 401 828 325 751 b 57 924 133 751 57 828 z m 335 957 l 335 964 b 250 1043 335 1026 292 1043 l 124 1043 l 124 804 l 200 804 l 200 878 l 226 878 l 256 804 l 335 804 l 296 886 b 335 957 318 896 335 918 z m 258 963 l 258 958 b 233 935 258 940 247 935 l 200 935 l 200 986 l 233 986 b 258 963 247 986 258 981 z "},"":{"ha":1278,"x_min":0,"x_max":0,"o":"m 79 542 b 639 -18 79 232 329 -18 b 1199 542 949 -18 1199 232 b 639 1101 1199 851 949 1101 b 79 542 329 1101 79 851 z m 157 542 b 639 1024 157 808 372 1024 b 1121 542 906 1024 1121 808 b 639 60 1121 275 906 60 b 157 542 372 60 157 275 z m 553 426 l 650 426 l 717 215 l 922 215 l 826 454 b 922 639 882 482 922 538 l 922 656 b 694 868 922 829 803 868 l 357 868 l 357 215 l 553 215 z m 553 571 l 553 724 l 651 724 b 726 651 688 724 726 710 l 726 643 b 651 571 726 585 688 571 z "},"™":{"ha":776,"x_min":0,"x_max":0,"o":"m 204 1033 l 297 1033 l 297 1111 l 24 1111 l 24 1033 l 115 1033 l 115 736 l 204 736 z m 631 960 l 628 876 l 628 736 l 717 736 l 717 1111 l 583 1111 l 526 890 l 468 1111 l 336 1111 l 336 736 l 425 736 l 425 876 l 422 960 l 479 736 l 574 736 z "},"℠":{"ha":776,"x_min":0,"x_max":0,"o":"m 143 886 b 207 842 193 879 207 868 l 207 839 b 163 800 207 819 194 800 l 158 800 b 106 865 122 800 106 821 l 18 865 l 18 863 b 158 722 18 767 65 722 b 299 842 250 722 299 768 l 299 849 b 174 963 299 924 257 951 b 111 1007 128 969 111 981 l 111 1010 b 153 1044 111 1029 126 1044 l 158 1044 b 208 975 196 1044 208 1022 l 296 975 l 296 985 b 158 1124 296 1078 254 1124 b 21 1006 67 1124 21 1076 l 21 1000 b 143 886 21 925 60 897 z m 631 960 l 628 876 l 628 736 l 717 736 l 717 1111 l 583 1111 l 526 890 l 468 1111 l 336 1111 l 336 736 l 425 736 l 425 876 l 422 960 l 479 736 l 574 736 z "},"$":{"ha":833,"x_min":0,"x_max":0,"o":"m 417 835 b 547 682 510 835 547 778 l 765 682 l 765 701 b 608 978 765 840 714 928 l 653 1167 l 485 1167 l 447 1015 l 417 1015 b 69 738 210 1015 69 919 l 69 724 b 371 461 69 567 171 492 b 550 349 517 439 550 411 l 550 342 b 426 250 550 285 511 250 l 419 250 b 281 390 324 250 281 311 l 60 390 l 60 382 b 231 104 60 239 118 150 l 186 -83 l 354 -83 l 390 69 l 419 69 b 775 351 651 69 775 171 l 775 365 b 457 632 775 525 674 600 b 290 736 317 653 290 682 l 290 743 b 406 835 290 804 339 833 z "},"¢":{"ha":833,"x_min":0,"x_max":0,"o":"m 779 647 l 779 689 b 601 988 779 842 719 942 l 644 1167 l 475 1167 l 439 1015 l 426 1015 b 54 568 169 1015 54 863 l 54 515 b 224 115 54 315 107 181 l 176 -83 l 346 -83 l 382 71 b 426 69 396 69 411 69 b 779 386 661 69 779 178 l 779 408 l 563 408 b 436 263 563 322 529 263 l 426 263 b 278 518 315 263 278 364 l 278 568 b 426 824 278 722 315 824 l 436 824 b 563 647 531 824 563 761 z "},"¥":{"ha":833,"x_min":0,"x_max":0,"o":"m 57 475 l 264 475 l 300 389 l 57 389 l 57 197 l 304 197 l 304 0 l 529 0 l 529 197 l 776 197 l 776 389 l 532 389 l 568 475 l 776 475 l 776 667 l 649 667 l 824 1083 l 576 1083 l 417 619 l 257 1083 l 10 1083 l 183 667 l 57 667 z "},"←":{"ha":1278,"x_min":0,"x_max":0,"o":"m 621 1083 l 79 542 l 621 0 l 896 0 l 451 444 l 1181 444 l 1181 639 l 451 639 l 896 1083 z "},"→":{"ha":1278,"x_min":0,"x_max":0,"o":"m 382 1083 l 826 639 l 97 639 l 97 444 l 826 444 l 382 0 l 657 0 l 1199 542 l 657 1083 z "},"↑":{"ha":1278,"x_min":0,"x_max":0,"o":"m 97 285 l 542 729 l 542 0 l 736 0 l 736 729 l 1181 285 l 1181 560 l 639 1101 l 97 560 z "},"↓":{"ha":1278,"x_min":0,"x_max":0,"o":"m 97 524 l 639 -18 l 1181 524 l 1181 799 l 736 354 l 736 1083 l 542 1083 l 542 354 l 97 799 z "},"↖":{"ha":1278,"x_min":0,"x_max":0,"o":"m 293 0 l 293 750 l 1061 -19 l 1200 119 l 431 888 l 1181 888 l 1181 1083 l 97 1083 l 97 0 z "},"↗":{"ha":1278,"x_min":0,"x_max":0,"o":"m 97 888 l 847 888 l 78 119 l 217 -19 l 985 750 l 985 0 l 1181 0 l 1181 1083 l 97 1083 z "},"↘":{"ha":1278,"x_min":0,"x_max":0,"o":"m 97 0 l 1181 0 l 1181 1083 l 985 1083 l 985 333 l 217 1103 l 78 964 l 847 196 l 97 196 z "},"↙":{"ha":1278,"x_min":0,"x_max":0,"o":"m 1181 196 l 431 196 l 1200 964 l 1061 1103 l 293 333 l 293 1083 l 97 1083 l 97 0 l 1181 0 z "},"○":{"ha":1278,"x_min":0,"x_max":0,"o":"m 79 542 b 639 -18 79 232 329 -18 b 1199 542 949 -18 1199 232 b 639 1101 1199 851 949 1101 b 79 542 329 1101 79 851 z m 272 542 b 639 908 272 744 436 908 b 1006 542 842 908 1006 744 b 639 175 1006 339 842 175 b 272 542 436 175 272 339 z "},"◯":{"ha":1278,"x_min":0,"x_max":0,"o":"m 79 542 b 639 -18 79 232 329 -18 b 1199 542 949 -18 1199 232 b 639 1101 1199 851 949 1101 b 79 542 329 1101 79 851 z m 272 542 b 639 908 272 744 436 908 b 1006 542 842 908 1006 744 b 639 175 1006 339 842 175 b 272 542 436 175 272 339 z "},"●":{"ha":1278,"x_min":0,"x_max":0,"o":"m 79 542 b 639 -18 79 232 329 -18 b 1199 542 949 -18 1199 232 b 639 1101 1199 851 949 1101 b 79 542 329 1101 79 851 z "},"⚪":{"ha":931,"x_min":0,"x_max":0,"o":"m 79 368 b 465 -18 79 154 251 -18 b 851 368 679 -18 851 154 b 465 754 851 582 679 754 b 79 368 251 754 79 582 z m 272 368 b 465 561 272 475 358 561 b 658 368 572 561 658 475 b 465 175 658 261 572 175 b 272 368 358 175 272 261 z "},"⚫":{"ha":931,"x_min":0,"x_max":0,"o":"m 79 368 b 465 -18 79 154 251 -18 b 851 368 679 -18 851 154 b 465 754 851 582 679 754 b 79 368 251 754 79 582 z "},"■":{"ha":1278,"x_min":0,"x_max":0,"o":"m 1181 0 l 1181 1083 l 97 1083 l 97 0 z "},"":{"ha":1278,"x_min":0,"x_max":0,"o":"m 1181 0 l 1181 1083 l 97 1083 l 97 0 z "},"□":{"ha":1278,"x_min":0,"x_max":0,"o":"m 1181 0 l 1181 1083 l 97 1083 l 97 0 z m 988 890 l 988 193 l 290 193 l 290 890 z "},"⊠":{"ha":1278,"x_min":0,"x_max":0,"o":"m 97 1083 l 97 0 l 1181 0 l 1181 1083 z m 988 890 l 988 193 l 290 193 l 290 890 z m 469 233 l 639 403 l 808 233 l 947 233 l 947 372 l 778 542 l 947 711 l 947 850 l 808 850 l 639 681 l 469 850 l 331 850 l 331 711 l 500 542 l 331 372 l 331 233 z "},"▪":{"ha":944,"x_min":0,"x_max":0,"o":"m 833 0 l 833 736 l 97 736 l 97 0 z "},"▫":{"ha":944,"x_min":0,"x_max":0,"o":"m 97 736 l 97 0 l 833 0 l 833 736 z m 640 543 l 640 193 l 290 193 l 290 543 z "},"▲":{"ha":1292,"x_min":0,"x_max":0,"o":"m 753 1101 l 539 1101 l 86 0 l 303 0 l 646 857 l 989 0 l 1206 0 z "},"▼":{"ha":1292,"x_min":0,"x_max":0,"o":"m 539 -18 l 753 -18 l 1206 1083 l 989 1083 l 646 225 l 303 1083 l 86 1083 z "},"◄":{"ha":1292,"x_min":0,"x_max":0,"o":"m 79 649 l 79 435 l 1181 -18 l 1181 199 l 322 542 l 1181 885 l 1181 1101 z "},"►":{"ha":1292,"x_min":0,"x_max":0,"o":"m 1213 649 l 111 1101 l 111 885 l 968 542 l 111 199 l 111 -18 l 1213 435 z "},"◤":{"ha":1292,"x_min":0,"x_max":0,"o":"m 33 1011 l 490 -87 l 644 64 l 281 913 l 1131 550 l 1282 704 l 183 1161 z "},"◥":{"ha":1292,"x_min":0,"x_max":0,"o":"m 1258 1011 l 1108 1161 l 10 704 l 161 550 l 1010 913 l 647 64 l 801 -87 z "},"◢":{"ha":1292,"x_min":0,"x_max":0,"o":"m 1258 75 l 801 1174 l 647 1021 l 1010 172 l 161 536 l 10 382 l 1108 -76 l 1183 -1 z "},"◣":{"ha":1292,"x_min":0,"x_max":0,"o":"m 108 -1 l 183 -76 l 1282 382 l 1131 536 l 281 172 l 644 1021 l 490 1174 l 33 75 z "},"%":{"ha":1363,"x_min":0,"x_max":0,"o":"m 411 1082 b 301 1101 378 1094 340 1101 b 38 840 149 1101 38 1010 l 38 824 b 301 561 38 654 149 561 b 564 824 453 561 564 654 l 564 840 b 563 872 564 851 563 863 b 628 868 583 869 604 868 b 726 879 672 868 707 875 l 360 0 l 551 0 l 961 983 l 961 1088 b 668 1043 917 1072 790 1043 b 411 1082 551 1043 490 1053 z m 799 260 l 799 243 b 1063 -18 799 74 910 -18 b 1325 243 1214 -18 1325 74 l 1325 260 b 1063 522 1325 429 1214 522 b 799 260 910 522 799 429 z m 961 243 l 961 261 b 1058 358 961 319 1000 358 l 1067 358 b 1163 261 1125 358 1163 319 l 1163 243 b 1067 144 1163 185 1125 144 l 1058 144 b 961 243 1000 144 961 185 z m 401 840 l 401 822 b 306 725 401 764 364 725 l 297 725 b 200 822 239 725 200 764 l 200 840 b 297 939 200 899 239 939 l 306 939 b 401 840 364 939 401 899 z "},"±":{"ha":833,"x_min":0,"x_max":0,"o":"m 319 935 l 319 785 l 58 785 l 58 589 l 319 589 l 319 439 l 514 439 l 514 589 l 775 589 l 775 785 l 514 785 l 514 935 z m 58 189 l 775 189 l 775 385 l 58 385 z "},"°":{"ha":556,"x_min":0,"x_max":0,"o":"m 369 871 b 281 782 369 817 331 782 l 275 782 b 186 871 225 782 186 817 l 186 879 b 275 968 186 933 225 968 l 281 968 b 369 879 331 968 369 933 z m 503 878 b 278 1101 503 1017 406 1101 b 53 878 150 1101 53 1017 l 53 871 b 278 647 53 733 150 647 b 503 871 406 647 503 733 z "},"★":{"ha":1222,"x_min":0,"x_max":0,"o":"m 611 250 l 972 -14 l 835 413 l 1196 675 l 749 675 l 611 1100 l 474 675 l 26 675 l 388 413 l 250 -14 z "},"☼":{"ha":1333,"x_min":0,"x_max":0,"o":"m 724 265 b 776 132 732 260 776 196 b 872 33 776 76 819 33 b 911 44 888 33 899 38 b 844 126 911 44 844 51 b 856 213 844 150 856 188 b 819 304 856 268 824 300 l 1058 147 l 901 386 b 1033 329 935 386 993 369 b 1104 300 1053 310 1078 300 b 1190 364 1142 300 1178 321 b 1142 347 1190 364 1171 347 b 1033 442 1086 347 1074 397 b 942 482 996 482 947 482 l 1222 540 l 942 599 b 1075 651 947 607 1011 651 b 1174 747 1131 651 1174 694 b 1163 786 1174 763 1169 774 b 1081 719 1163 786 1156 719 b 994 731 1057 719 1019 731 b 903 694 939 731 907 699 l 1060 933 l 821 776 b 878 908 821 810 838 868 b 907 979 897 928 907 953 b 843 1065 907 1017 886 1053 b 860 1017 843 1065 860 1046 b 765 908 860 961 810 949 b 725 817 725 871 725 822 l 667 1097 l 608 817 b 556 950 600 822 556 886 b 460 1049 556 1006 513 1049 b 421 1038 444 1049 433 1044 b 488 956 421 1038 488 1031 b 476 869 488 932 476 894 b 513 778 476 814 508 782 l 274 935 l 431 696 b 299 753 397 696 339 713 b 228 782 279 772 254 782 b 142 718 190 782 154 761 b 190 735 142 718 161 735 b 299 640 246 735 258 685 b 390 600 336 600 385 600 l 110 542 l 390 483 b 257 431 385 475 321 431 b 158 335 201 431 158 388 b 169 296 158 319 163 308 b 251 363 169 296 176 363 b 338 351 275 363 313 351 b 429 388 393 351 425 383 l 272 149 l 511 306 b 454 174 511 272 494 214 b 425 103 435 154 425 129 b 489 17 425 65 446 29 b 472 65 489 17 472 36 b 567 174 472 121 522 133 b 607 265 607 211 607 260 l 665 -15 z "},"☾":{"ha":1333,"x_min":0,"x_max":0,"o":"m 867 1011 b 1000 990 913 1011 957 1003 b 667 1097 906 1057 789 1097 b 111 542 360 1097 111 849 b 667 -14 111 235 360 -14 b 1000 93 789 -14 906 25 b 867 72 957 79 913 72 b 417 542 618 72 417 282 b 867 1011 417 801 618 1011 z "},"♻":{"ha":1333,"x_min":0,"x_max":0,"o":"m 1199 369 b 1067 297 1199 369 1149 297 l 865 297 l 865 365 l 708 178 l 865 -11 l 865 57 l 944 57 b 1067 135 1018 57 1038 92 l 1200 367 z m 258 169 b 264 319 258 169 222 249 b 364 493 267 326 364 493 l 421 460 l 339 690 l 97 647 l 156 614 l 117 546 b 122 403 79 483 99 447 l 256 169 z m 561 1082 b 688 1003 561 1082 646 1075 l 788 829 l 731 796 l 971 753 l 1056 983 l 996 950 l 957 1018 b 829 1083 921 1081 882 1082 l 561 1083 z m 278 831 l 486 711 l 647 990 b 418 1039 618 1043 500 1088 b 371 996 396 1026 378 1008 z m 619 57 l 619 297 l 297 297 b 371 75 267 246 286 124 b 432 57 392 63 417 57 z m 1119 732 l 913 613 l 1074 333 b 1229 508 1132 333 1231 413 b 1215 569 1229 533 1222 557 z "},"♼":{"ha":1333,"x_min":0,"x_max":0,"o":"m 406 896 b 442 929 411 906 425 919 b 619 892 506 967 597 932 l 494 675 l 333 768 z m 547 964 l 756 964 b 854 913 796 964 826 961 l 885 860 l 931 886 l 865 707 l 679 740 l 724 767 l 646 901 b 547 963 614 956 547 963 z m 447 168 b 400 182 436 168 417 172 b 343 354 335 219 319 314 l 593 354 l 593 168 z m 317 256 l 213 436 b 208 547 194 471 179 499 l 239 600 l 193 626 l 381 660 l 444 481 l 400 507 l 322 372 b 318 256 290 317 318 256 z m 1060 565 b 1071 518 1065 556 1071 538 b 950 382 1072 443 996 382 l 825 599 l 986 692 z m 1049 408 l 944 228 b 850 168 925 194 907 168 l 789 168 l 789 115 l 667 261 l 789 407 l 789 354 l 944 354 b 1047 410 1008 354 1047 410 z m 89 542 b 639 -8 89 238 335 -8 b 1189 542 943 -8 1189 238 b 639 1092 1189 846 943 1092 b 89 542 335 1092 89 846 z "},"♽":{"ha":1333,"x_min":0,"x_max":0,"o":"m 333 768 l 494 675 l 619 892 b 442 929 597 932 506 967 b 406 896 425 919 411 906 z m 547 963 b 646 901 547 963 614 956 l 724 767 l 679 740 l 865 707 l 931 886 l 885 860 l 854 913 b 756 964 826 961 796 964 l 547 964 z m 593 168 l 593 354 l 343 354 b 400 182 319 314 335 219 b 447 168 417 172 436 168 z m 318 256 b 322 372 318 256 290 317 l 400 507 l 444 481 l 381 660 l 193 626 l 239 600 l 208 547 b 213 436 179 499 194 471 l 317 256 z m 986 692 l 825 599 l 950 382 b 1071 518 996 382 1072 443 b 1060 565 1071 538 1065 556 z m 1047 410 b 944 354 1047 410 1008 354 l 789 354 l 789 407 l 667 261 l 789 115 l 789 168 l 850 168 b 944 228 907 168 925 194 l 1049 408 z m 83 542 b 639 -14 83 235 332 -14 b 1194 542 946 -14 1194 235 b 639 1097 1194 849 946 1097 b 83 542 332 1097 83 849 z m 136 542 b 639 1044 136 819 361 1044 b 1142 542 917 1044 1142 819 b 639 39 1142 264 917 39 b 136 542 361 39 136 264 z "},"⌂":{"ha":1181,"x_min":0,"x_max":0,"o":"m 1083 0 l 1083 625 l 590 1097 l 97 625 l 97 0 z "},"♠":{"ha":1250,"x_min":0,"x_max":0,"o":"m 626 1097 l 624 1097 b 300 778 578 1028 447 874 b 72 464 179 699 72 608 b 317 222 72 328 181 222 b 594 446 454 222 547 331 l 599 444 b 485 0 583 257 554 139 l 765 0 b 651 444 696 139 667 257 l 656 446 b 933 222 703 331 796 222 b 1178 464 1069 222 1178 328 b 950 778 1178 608 1071 699 b 626 1097 803 874 672 1028 z "},"♣":{"ha":1250,"x_min":0,"x_max":0,"o":"m 485 0 l 765 0 b 651 444 696 139 667 257 l 656 446 b 933 222 703 331 796 222 b 1178 464 1069 222 1178 328 b 936 714 1178 608 1081 714 b 819 682 889 714 851 699 l 817 685 b 869 847 847 731 869 786 b 625 1097 869 985 765 1097 b 381 847 485 1097 381 985 b 433 685 381 786 403 731 l 431 682 b 314 714 399 699 361 714 b 72 464 169 714 72 608 b 317 222 72 328 181 222 b 594 446 454 222 547 331 l 599 444 b 485 0 583 257 554 139 z "},"♥":{"ha":1250,"x_min":0,"x_max":0,"o":"m 626 -14 b 950 393 672 56 803 226 b 1178 811 1046 501 1178 667 b 913 1097 1178 975 1076 1097 b 628 879 740 1097 668 994 l 622 879 b 338 1097 582 994 510 1097 b 72 811 174 1097 72 975 b 300 393 72 667 204 501 b 624 -14 447 226 578 56 z "},"♦":{"ha":1250,"x_min":0,"x_max":0,"o":"m 1135 542 b 626 1097 938 696 750 901 l 624 1097 b 115 542 500 901 313 696 b 624 -14 313 388 500 182 l 626 -14 b 1135 542 750 182 938 388 z "},"℗":{"ha":1278,"x_min":0,"x_max":0,"o":"m 79 542 b 639 -18 79 232 329 -18 b 1199 542 949 -18 1199 232 b 639 1101 1199 851 949 1101 b 79 542 329 1101 79 851 z m 157 542 b 639 1024 157 808 372 1024 b 1121 542 906 1024 1121 808 b 639 60 1121 275 906 60 b 157 542 372 60 157 275 z m 575 426 l 718 426 b 946 639 825 426 946 465 l 946 656 b 718 868 946 829 825 868 l 381 868 l 381 215 l 575 215 z m 575 571 l 575 724 l 674 724 b 749 651 710 724 749 710 l 749 643 b 674 571 749 585 710 571 z "},"ı":{"ha":368,"x_min":0,"x_max":0,"o":"m 75 0 l 293 0 l 293 736 l 75 736 z "},"":{"ha":369,"x_min":0,"x_max":0,"o":"m 75 0 l 294 0 l 294 736 l 75 736 z m 300 1072 l 69 1072 l 69 840 l 300 840 z "},"ȷ":{"ha":372,"x_min":0,"x_max":0,"o":"m 75 1 b -33 -108 75 -90 32 -108 b -101 -99 -58 -108 -93 -101 l -101 -278 b 18 -296 -89 -285 -50 -296 b 293 -22 182 -296 293 -225 l 293 736 l 75 736 z "},"þ":{"ha":797,"x_min":0,"x_max":0,"o":"m 72 1111 l 72 -278 l 292 -278 l 292 64 b 482 -18 333 14 394 -18 b 756 343 683 -18 756 131 l 756 393 b 482 754 756 606 683 754 b 292 672 394 754 333 721 l 292 1111 z m 293 240 l 293 496 b 418 565 311 522 353 565 b 536 393 503 565 536 501 l 536 343 b 418 171 536 235 503 171 b 293 240 353 171 311 214 z "},"Þ":{"ha":846,"x_min":0,"x_max":0,"o":"m 303 1083 l 78 1083 l 78 0 l 303 0 l 303 194 l 433 194 b 810 528 610 194 810 240 l 810 556 b 433 889 810 843 610 889 l 303 889 z m 303 389 l 303 694 l 443 694 b 582 549 504 694 582 671 l 582 535 b 443 389 582 413 504 389 z "},"Ĳ":{"ha":843,"x_min":0,"x_max":0,"o":"m 549 290 b 442 176 549 197 508 176 b 369 189 417 176 381 183 l 369 4 b 501 -18 385 -6 429 -18 b 774 265 660 -18 774 57 l 774 1083 l 549 1083 z m 310 1083 l 85 1083 l 85 0 l 310 0 z "},"":{"ha":890,"x_min":0,"x_max":0,"o":"m 290 1086 l 19 0 l 261 0 l 444 826 l 631 0 l 871 0 l 600 1086 z "},"₽":{"ha":833,"x_min":0,"x_max":0,"o":"m 346 389 l 410 389 b 786 722 586 389 786 433 l 786 750 b 410 1083 786 1038 586 1083 l 121 1083 l 121 583 l 24 583 l 24 389 l 121 389 l 121 336 l 24 336 l 24 140 l 121 140 l 121 0 l 346 0 l 346 140 l 606 140 l 606 336 l 346 336 z m 346 583 l 346 889 l 419 889 b 558 743 481 889 558 865 l 558 729 b 419 583 558 607 481 583 z "},"#":{"ha":833,"x_min":0,"x_max":0,"o":"m 93 624 l 183 624 l 154 460 l 32 460 l 32 268 l 119 268 l 71 0 l 261 0 l 310 268 l 422 268 l 374 0 l 565 0 l 614 268 l 740 268 l 740 460 l 649 460 l 678 624 l 801 624 l 801 815 l 713 815 l 763 1083 l 572 1083 l 522 815 l 410 815 l 460 1083 l 268 1083 l 218 815 l 93 815 z m 375 624 l 488 624 l 458 460 l 346 460 z "},"":{"ha":439,"x_min":0,"x_max":0,"o":"m 369 851 l 69 647 l 69 436 l 369 232 l 369 425 l 218 542 l 369 658 z "},"":{"ha":439,"x_min":0,"x_max":0,"o":"m 69 658 l 221 542 l 69 425 l 69 232 l 369 436 l 369 647 l 69 851 z "},"":{"ha":785,"x_min":0,"x_max":0,"o":"m 369 851 l 69 647 l 69 436 l 369 232 l 369 425 l 218 542 l 369 658 z m 715 851 l 415 647 l 415 436 l 715 232 l 715 425 l 564 542 l 715 658 z "},"":{"ha":785,"x_min":0,"x_max":0,"o":"m 415 658 l 567 542 l 415 425 l 415 232 l 715 436 l 715 647 l 415 851 z m 69 658 l 221 542 l 69 425 l 69 232 l 369 436 l 369 647 l 69 851 z "},"ø":{"ha":772,"x_min":0,"x_max":0,"o":"m 731 736 l 617 736 l 590 701 b 386 754 538 735 469 754 b 42 393 150 754 42 606 l 42 343 b 115 94 42 243 65 157 l 42 0 l 154 0 l 181 35 b 386 -18 233 0 301 -18 b 731 343 624 -18 731 131 l 731 393 b 657 642 731 493 707 578 z m 511 393 l 511 343 b 386 171 511 235 474 171 b 308 197 353 171 328 179 l 507 450 b 511 393 510 433 511 414 z m 261 343 l 261 393 b 386 565 261 501 300 565 b 463 540 418 565 443 557 l 265 286 b 261 343 263 304 261 322 z "},"Å":{"ha":890,"x_min":0,"x_max":0,"o":"m 299 1192 b 343 1086 299 1150 315 1113 l 290 1086 l 19 0 l 261 0 l 313 233 l 578 233 l 631 0 l 871 0 l 600 1086 l 546 1086 b 590 1192 572 1113 590 1150 b 444 1338 590 1272 525 1338 b 299 1192 364 1338 299 1272 z m 444 826 l 533 428 l 356 428 z m 374 1192 b 444 1261 374 1231 406 1261 b 515 1192 483 1261 515 1231 b 444 1121 515 1153 483 1121 b 374 1192 406 1121 374 1153 z "},"Á":{"ha":890,"x_min":0,"x_max":0,"o":"m 290 1086 l 19 0 l 261 0 l 313 233 l 578 233 l 631 0 l 871 0 l 600 1086 z m 444 826 l 533 428 l 356 428 z m 413 1319 l 336 1167 l 553 1167 l 642 1319 z "},"Ă":{"ha":890,"x_min":0,"x_max":0,"o":"m 290 1086 l 19 0 l 261 0 l 313 233 l 578 233 l 631 0 l 871 0 l 600 1086 z m 444 1146 b 699 1319 649 1146 699 1225 l 547 1319 b 444 1264 547 1283 518 1264 b 342 1319 371 1264 342 1283 l 190 1319 b 444 1146 190 1225 240 1146 z m 444 826 l 533 428 l 356 428 z "},"Â":{"ha":890,"x_min":0,"x_max":0,"o":"m 290 1086 l 19 0 l 261 0 l 313 233 l 578 233 l 631 0 l 871 0 l 600 1086 z m 358 1167 l 444 1228 l 531 1167 l 728 1167 l 556 1319 l 333 1319 l 161 1167 z m 444 826 l 533 428 l 356 428 z "},"Ä":{"ha":890,"x_min":0,"x_max":0,"o":"m 290 1086 l 19 0 l 261 0 l 313 233 l 578 233 l 631 0 l 871 0 l 600 1086 z m 444 826 l 533 428 l 356 428 z m 415 1313 l 231 1313 l 231 1174 l 415 1174 z m 658 1313 l 474 1313 l 474 1174 l 658 1174 z "},"À":{"ha":890,"x_min":0,"x_max":0,"o":"m 290 1086 l 19 0 l 261 0 l 313 233 l 578 233 l 631 0 l 871 0 l 600 1086 z m 444 826 l 533 428 l 356 428 z m 247 1319 l 336 1167 l 553 1167 l 476 1319 z "},"Ā":{"ha":890,"x_min":0,"x_max":0,"o":"m 290 1086 l 19 0 l 261 0 l 313 233 l 578 233 l 631 0 l 871 0 l 600 1086 z m 238 1176 l 651 1176 l 651 1310 l 238 1310 z m 444 826 l 533 428 l 356 428 z "},"Ą":{"ha":890,"x_min":0,"x_max":0,"o":"m 785 -96 b 871 0 785 -54 817 -24 l 600 1086 l 290 1086 l 19 0 l 261 0 l 313 233 l 578 233 l 631 0 l 683 0 b 622 -149 646 -39 622 -89 b 810 -299 622 -250 697 -299 b 953 -264 867 -299 924 -282 l 903 -131 b 844 -146 892 -137 871 -146 b 785 -96 808 -146 785 -125 z m 444 826 l 533 428 l 356 428 z "},"Ã":{"ha":890,"x_min":0,"x_max":0,"o":"m 290 1086 l 19 0 l 261 0 l 313 233 l 578 233 l 631 0 l 871 0 l 600 1086 z m 583 1315 b 538 1269 583 1279 563 1269 b 331 1336 485 1269 419 1336 b 188 1171 256 1336 188 1293 l 306 1171 b 351 1217 306 1207 326 1217 b 558 1150 404 1217 469 1150 b 701 1315 633 1150 701 1193 z m 444 826 l 533 428 l 356 428 z "},"Ḃ":{"ha":876,"x_min":0,"x_max":0,"o":"m 78 1083 l 78 0 l 444 0 b 810 311 619 0 810 47 l 810 339 b 676 560 810 456 754 522 b 782 756 739 596 782 657 l 782 783 b 433 1083 782 1038 603 1083 z m 451 456 b 582 332 514 456 582 431 l 582 319 b 451 194 582 221 514 194 l 303 194 l 303 456 z m 432 889 b 554 779 490 889 554 868 l 554 761 b 432 651 554 672 490 651 l 303 651 l 303 889 z m 507 1313 l 321 1313 l 321 1174 l 507 1174 z "},"Ć":{"ha":903,"x_min":0,"x_max":0,"o":"m 282 514 l 282 569 b 461 907 282 786 317 907 l 474 907 b 624 672 592 907 624 821 l 849 672 l 849 722 b 461 1101 849 993 718 1101 b 54 569 179 1101 54 944 l 54 514 b 461 -18 54 139 179 -18 b 849 357 718 -18 849 90 l 849 369 l 624 369 b 474 176 624 253 583 176 l 461 176 b 282 514 317 176 282 297 z m 429 1319 l 353 1167 l 569 1167 l 658 1319 z "},"Č":{"ha":903,"x_min":0,"x_max":0,"o":"m 282 514 l 282 569 b 461 907 282 786 317 907 l 474 907 b 624 672 592 907 624 821 l 849 672 l 849 722 b 461 1101 849 993 718 1101 b 54 569 179 1101 54 944 l 54 514 b 461 -18 54 139 179 -18 b 849 357 718 -18 849 90 l 849 369 l 624 369 b 474 176 624 253 583 176 l 461 176 b 282 514 317 176 282 297 z m 178 1319 l 350 1167 l 572 1167 l 744 1319 l 547 1319 l 461 1257 l 375 1319 z "},"Ç":{"ha":903,"x_min":0,"x_max":0,"o":"m 326 -264 b 475 -299 353 -281 407 -299 b 642 -176 585 -299 642 -256 b 503 -56 642 -99 581 -61 l 518 -15 b 849 357 738 0 849 111 l 849 369 l 624 369 b 474 176 624 253 583 176 l 461 176 b 282 514 317 176 282 297 l 282 569 b 461 907 282 786 317 907 l 474 907 b 624 672 592 907 624 821 l 849 672 l 849 722 b 461 1101 849 993 718 1101 b 54 569 179 1101 54 944 l 54 514 b 417 -17 54 158 165 0 l 383 -100 l 404 -139 b 457 -132 404 -139 432 -132 b 524 -164 501 -132 524 -143 b 458 -196 524 -183 507 -196 b 358 -172 422 -196 381 -186 z "},"Ĉ":{"ha":903,"x_min":0,"x_max":0,"o":"m 282 514 l 282 569 b 461 907 282 786 317 907 l 474 907 b 624 672 592 907 624 821 l 849 672 l 849 722 b 461 1101 849 993 718 1101 b 54 569 179 1101 54 944 l 54 514 b 461 -18 54 139 179 -18 b 849 357 718 -18 849 90 l 849 369 l 624 369 b 474 176 624 253 583 176 l 461 176 b 282 514 317 176 282 297 z m 375 1167 l 461 1228 l 547 1167 l 744 1167 l 572 1319 l 350 1319 l 178 1167 z "},"Ċ":{"ha":903,"x_min":0,"x_max":0,"o":"m 282 514 l 282 569 b 461 907 282 786 317 907 l 474 907 b 624 672 592 907 624 821 l 849 672 l 849 722 b 461 1101 849 993 718 1101 b 54 569 179 1101 54 944 l 54 514 b 461 -18 54 139 179 -18 b 849 357 718 -18 849 90 l 849 369 l 624 369 b 474 176 624 253 583 176 l 461 176 b 282 514 317 176 282 297 z m 554 1313 l 368 1313 l 368 1174 l 554 1174 z "},"Ď":{"ha":921,"x_min":0,"x_max":0,"o":"m 867 514 l 867 569 b 410 1083 867 944 732 1083 l 78 1083 l 78 0 l 410 0 b 867 514 732 0 867 139 z m 303 194 l 303 889 l 397 889 b 638 569 585 889 638 786 l 638 514 b 397 194 638 297 585 194 z m 151 1319 l 324 1167 l 546 1167 l 718 1319 l 521 1319 l 435 1257 l 349 1319 z "},"Đ":{"ha":1004,"x_min":0,"x_max":0,"o":"m 17 471 l 161 471 l 161 0 l 493 0 b 950 514 815 0 950 139 l 950 569 b 493 1083 950 944 815 1083 l 161 1083 l 161 639 l 17 639 z m 386 889 l 481 889 b 721 569 668 889 721 786 l 721 514 b 481 194 721 297 668 194 l 386 194 l 386 471 l 615 471 l 615 639 l 386 639 z "},"Ḋ":{"ha":921,"x_min":0,"x_max":0,"o":"m 867 514 l 867 569 b 410 1083 867 944 732 1083 l 78 1083 l 78 0 l 410 0 b 867 514 732 0 867 139 z m 303 194 l 303 889 l 397 889 b 638 569 585 889 638 786 l 638 514 b 397 194 638 297 585 194 z m 528 1313 l 342 1313 l 342 1174 l 528 1174 z "},"Ð":{"ha":1004,"x_min":0,"x_max":0,"o":"m 17 471 l 161 471 l 161 0 l 493 0 b 950 514 815 0 950 139 l 950 569 b 493 1083 950 944 815 1083 l 161 1083 l 161 639 l 17 639 z m 386 889 l 481 889 b 721 569 668 889 721 786 l 721 514 b 481 194 721 297 668 194 l 386 194 l 386 471 l 615 471 l 615 639 l 386 639 z "},"É":{"ha":796,"x_min":0,"x_max":0,"o":"m 78 1083 l 78 0 l 740 0 l 740 194 l 303 194 l 303 456 l 671 456 l 671 650 l 303 650 l 303 889 l 740 889 l 740 1083 z m 379 1319 l 303 1167 l 519 1167 l 608 1319 z "},"Ĕ":{"ha":796,"x_min":0,"x_max":0,"o":"m 411 1146 b 665 1319 615 1146 665 1225 l 514 1319 b 411 1264 514 1283 485 1264 b 308 1319 338 1264 308 1283 l 157 1319 b 411 1146 157 1225 207 1146 z m 78 1083 l 78 0 l 740 0 l 740 194 l 303 194 l 303 456 l 671 456 l 671 650 l 303 650 l 303 889 l 740 889 l 740 1083 z "},"Ě":{"ha":796,"x_min":0,"x_max":0,"o":"m 78 1083 l 78 0 l 740 0 l 740 194 l 303 194 l 303 456 l 671 456 l 671 650 l 303 650 l 303 889 l 740 889 l 740 1083 z m 128 1319 l 300 1167 l 522 1167 l 694 1319 l 497 1319 l 411 1257 l 325 1319 z "},"Ê":{"ha":796,"x_min":0,"x_max":0,"o":"m 78 1083 l 78 0 l 740 0 l 740 194 l 303 194 l 303 456 l 671 456 l 671 650 l 303 650 l 303 889 l 740 889 l 740 1083 z m 325 1167 l 411 1228 l 497 1167 l 694 1167 l 522 1319 l 300 1319 l 128 1167 z "},"Ë":{"ha":796,"x_min":0,"x_max":0,"o":"m 78 1083 l 78 0 l 740 0 l 740 194 l 303 194 l 303 456 l 671 456 l 671 650 l 303 650 l 303 889 l 740 889 l 740 1083 z m 382 1313 l 197 1313 l 197 1174 l 382 1174 z m 625 1313 l 440 1313 l 440 1174 l 625 1174 z "},"Ė":{"ha":796,"x_min":0,"x_max":0,"o":"m 78 1083 l 78 0 l 740 0 l 740 194 l 303 194 l 303 456 l 671 456 l 671 650 l 303 650 l 303 889 l 740 889 l 740 1083 z m 504 1313 l 318 1313 l 318 1174 l 504 1174 z "},"È":{"ha":796,"x_min":0,"x_max":0,"o":"m 78 1083 l 78 0 l 740 0 l 740 194 l 303 194 l 303 456 l 671 456 l 671 650 l 303 650 l 303 889 l 740 889 l 740 1083 z m 214 1319 l 303 1167 l 519 1167 l 443 1319 z "},"Ē":{"ha":796,"x_min":0,"x_max":0,"o":"m 78 1083 l 78 0 l 740 0 l 740 194 l 303 194 l 303 456 l 671 456 l 671 650 l 303 650 l 303 889 l 740 889 l 740 1083 z m 204 1176 l 618 1176 l 618 1310 l 204 1310 z "},"Ę":{"ha":796,"x_min":0,"x_max":0,"o":"m 78 1083 l 78 0 l 551 0 b 490 -149 514 -39 490 -89 b 678 -299 490 -250 565 -299 b 821 -264 735 -299 792 -282 l 771 -131 b 713 -146 760 -137 739 -146 b 653 -96 676 -146 653 -125 b 739 0 653 -54 685 -24 l 740 0 l 740 194 l 303 194 l 303 456 l 671 456 l 671 650 l 303 650 l 303 889 l 740 889 l 740 1083 z "},"Ḟ":{"ha":763,"x_min":0,"x_max":0,"o":"m 78 1083 l 78 0 l 303 0 l 303 456 l 665 456 l 665 650 l 303 650 l 303 889 l 735 889 l 735 1083 z m 504 1313 l 318 1313 l 318 1174 l 504 1174 z "},"Ğ":{"ha":935,"x_min":0,"x_max":0,"o":"m 483 -18 b 863 108 672 -18 782 42 l 863 586 l 494 586 l 494 392 l 638 392 l 638 218 b 490 176 604 194 554 176 l 478 176 b 283 514 319 176 283 297 l 283 569 b 469 907 283 786 321 907 l 482 907 b 639 672 607 907 639 821 l 864 672 l 864 722 b 469 1101 864 993 728 1101 b 54 569 189 1101 54 944 l 54 514 b 483 -18 54 139 189 -18 z m 469 1146 b 724 1319 674 1146 724 1225 l 572 1319 b 469 1264 572 1283 543 1264 b 367 1319 396 1264 367 1283 l 215 1319 b 469 1146 215 1225 265 1146 z "},"Ĝ":{"ha":935,"x_min":0,"x_max":0,"o":"m 483 -18 b 863 108 672 -18 782 42 l 863 586 l 494 586 l 494 392 l 638 392 l 638 218 b 490 176 604 194 554 176 l 478 176 b 283 514 319 176 283 297 l 283 569 b 469 907 283 786 321 907 l 482 907 b 639 672 607 907 639 821 l 864 672 l 864 722 b 469 1101 864 993 728 1101 b 54 569 189 1101 54 944 l 54 514 b 483 -18 54 139 189 -18 z m 383 1167 l 469 1228 l 556 1167 l 753 1167 l 581 1319 l 358 1319 l 186 1167 z "},"Ģ":{"ha":935,"x_min":0,"x_max":0,"o":"m 483 -18 b 863 108 672 -18 782 42 l 863 586 l 494 586 l 494 392 l 638 392 l 638 218 b 490 176 604 194 554 176 l 478 176 b 283 514 319 176 283 297 l 283 569 b 469 907 283 786 321 907 l 482 907 b 639 672 607 907 639 821 l 864 672 l 864 722 b 469 1101 864 993 728 1101 b 54 569 189 1101 54 944 l 54 514 b 483 -18 54 139 189 -18 z m 582 -61 l 385 -61 l 385 -189 l 494 -189 b 378 -239 476 -226 436 -239 l 378 -314 b 582 -140 515 -314 582 -264 z "},"Ġ":{"ha":935,"x_min":0,"x_max":0,"o":"m 483 -18 b 863 108 672 -18 782 42 l 863 586 l 494 586 l 494 392 l 638 392 l 638 218 b 490 176 604 194 554 176 l 478 176 b 283 514 319 176 283 297 l 283 569 b 469 907 283 786 321 907 l 482 907 b 639 672 607 907 639 821 l 864 672 l 864 722 b 469 1101 864 993 728 1101 b 54 569 189 1101 54 944 l 54 514 b 483 -18 54 139 189 -18 z m 563 1313 l 376 1313 l 376 1174 l 563 1174 z "},"Ħ":{"ha":921,"x_min":0,"x_max":0,"o":"m 618 1083 l 618 951 l 303 951 l 303 1083 l 78 1083 l 78 0 l 303 0 l 303 456 l 618 456 l 618 0 l 843 0 l 843 1083 z m 303 650 l 303 783 l 618 783 l 618 650 z "},"Ĥ":{"ha":921,"x_min":0,"x_max":0,"o":"m 618 1083 l 618 650 l 303 650 l 303 1083 l 78 1083 l 78 0 l 303 0 l 303 456 l 618 456 l 618 0 l 843 0 l 843 1083 z m 374 1167 l 460 1228 l 546 1167 l 743 1167 l 571 1319 l 349 1319 l 176 1167 z "},"Í":{"ha":393,"x_min":0,"x_max":0,"o":"m 310 1083 l 85 1083 l 85 0 l 310 0 z m 165 1319 l 89 1167 l 306 1167 l 394 1319 z "},"Ĭ":{"ha":393,"x_min":0,"x_max":0,"o":"m 310 1083 l 85 1083 l 85 0 l 310 0 z m 197 1146 b 451 1319 401 1146 451 1225 l 300 1319 b 197 1264 300 1283 271 1264 b 94 1319 124 1264 94 1283 l -57 1319 b 197 1146 -57 1225 -7 1146 z "},"Î":{"ha":393,"x_min":0,"x_max":0,"o":"m 310 1083 l 85 1083 l 85 0 l 310 0 z m 111 1167 l 197 1228 l 283 1167 l 481 1167 l 308 1319 l 86 1319 l -86 1167 z "},"Ï":{"ha":393,"x_min":0,"x_max":0,"o":"m 310 1083 l 85 1083 l 85 0 l 310 0 z m 411 1313 l 226 1313 l 226 1174 l 411 1174 z m 168 1313 l -17 1313 l -17 1174 l 168 1174 z "},"İ":{"ha":393,"x_min":0,"x_max":0,"o":"m 310 1083 l 85 1083 l 85 0 l 310 0 z m 290 1313 l 104 1313 l 104 1174 l 290 1174 z "},"Ì":{"ha":393,"x_min":0,"x_max":0,"o":"m 310 1083 l 85 1083 l 85 0 l 310 0 z m 0 1319 l 89 1167 l 306 1167 l 229 1319 z "},"Ī":{"ha":393,"x_min":0,"x_max":0,"o":"m 310 1083 l 85 1083 l 85 0 l 310 0 z m -10 1176 l 404 1176 l 404 1310 l -10 1310 z "},"Į":{"ha":393,"x_min":0,"x_max":0,"o":"m 222 -96 b 308 0 222 -54 254 -24 l 310 0 l 310 1083 l 85 1083 l 85 -49 b 60 -149 68 -78 60 -111 b 247 -299 60 -250 135 -299 b 390 -264 304 -299 361 -282 l 340 -131 b 282 -146 329 -137 308 -146 b 222 -96 246 -146 222 -125 z "},"Ĩ":{"ha":393,"x_min":0,"x_max":0,"o":"m 310 1083 l 85 1083 l 85 0 l 310 0 z m 336 1315 b 290 1269 336 1279 315 1269 b 83 1336 238 1269 172 1336 b -60 1171 8 1336 -60 1293 l 58 1171 b 104 1217 58 1207 79 1217 b 311 1150 157 1217 222 1150 b 454 1315 386 1150 454 1193 z "},"Ĵ":{"ha":746,"x_min":0,"x_max":0,"o":"m 450 1083 l 450 358 b 347 176 450 242 428 176 b 244 369 268 176 244 242 l 32 369 l 32 333 b 353 -18 32 110 114 -18 b 675 331 582 -18 675 110 l 675 1083 z m 476 1167 l 563 1228 l 649 1167 l 846 1167 l 674 1319 l 451 1319 l 279 1167 z "},"Ķ":{"ha":868,"x_min":0,"x_max":0,"o":"m 303 1083 l 78 1083 l 78 0 l 303 0 l 303 313 l 394 443 l 592 0 l 842 0 l 538 649 l 842 1083 l 569 1083 l 303 658 z m 535 -61 l 338 -61 l 338 -189 l 447 -189 b 331 -239 429 -226 389 -239 l 331 -314 b 535 -140 468 -314 535 -264 z "},"Ĺ":{"ha":724,"x_min":0,"x_max":0,"o":"m 703 0 l 703 194 l 303 194 l 303 1083 l 78 1083 l 78 0 z m 158 1319 l 82 1167 l 299 1167 l 388 1319 z "},"Ľ":{"ha":724,"x_min":0,"x_max":0,"o":"m 703 0 l 703 194 l 303 194 l 303 1083 l 78 1083 l 78 0 z m 460 1111 l 460 828 l 557 828 l 593 1111 z "},"Ļ":{"ha":724,"x_min":0,"x_max":0,"o":"m 703 0 l 703 194 l 303 194 l 303 1083 l 78 1083 l 78 0 z m 489 -61 l 292 -61 l 292 -189 l 401 -189 b 285 -239 383 -226 343 -239 l 285 -314 b 489 -140 422 -314 489 -264 z "},"Ŀ":{"ha":724,"x_min":0,"x_max":0,"o":"m 703 0 l 703 194 l 303 194 l 303 1083 l 78 1083 l 78 0 z m 664 668 l 435 668 l 435 438 l 664 438 z "},"Ł":{"ha":807,"x_min":0,"x_max":0,"o":"m 17 261 l 161 332 l 161 0 l 786 0 l 786 194 l 386 194 l 386 443 l 638 568 l 638 754 l 386 631 l 386 1083 l 161 1083 l 161 519 l 17 449 z "},"Ṁ":{"ha":1207,"x_min":0,"x_max":0,"o":"m 911 693 l 906 476 l 906 0 l 1131 0 l 1131 1083 l 797 1083 l 604 390 l 410 1083 l 78 1083 l 78 0 l 303 0 l 303 476 l 296 693 l 489 0 l 718 0 z m 697 1313 l 511 1313 l 511 1174 l 697 1174 z "},"Ń":{"ha":949,"x_min":0,"x_max":0,"o":"m 871 1083 l 657 1083 l 657 629 l 664 411 l 315 1083 l 78 1083 l 78 0 l 290 0 l 290 454 l 283 672 l 633 0 l 871 0 z m 442 1319 l 365 1167 l 582 1167 l 671 1319 z "},"Ň":{"ha":949,"x_min":0,"x_max":0,"o":"m 871 1083 l 657 1083 l 657 629 l 664 411 l 315 1083 l 78 1083 l 78 0 l 290 0 l 290 454 l 283 672 l 633 0 l 871 0 z m 190 1319 l 363 1167 l 585 1167 l 757 1319 l 560 1319 l 474 1257 l 388 1319 z "},"Ņ":{"ha":949,"x_min":0,"x_max":0,"o":"m 871 1083 l 657 1083 l 657 629 l 664 411 l 315 1083 l 78 1083 l 78 0 l 290 0 l 290 454 l 283 672 l 633 0 l 871 0 z m 572 -61 l 375 -61 l 375 -189 l 485 -189 b 368 -239 467 -226 426 -239 l 368 -314 b 572 -140 506 -314 572 -264 z "},"Ñ":{"ha":949,"x_min":0,"x_max":0,"o":"m 871 1083 l 657 1083 l 657 629 l 664 411 l 315 1083 l 78 1083 l 78 0 l 290 0 l 290 454 l 283 672 l 633 0 l 871 0 z m 613 1315 b 567 1269 613 1279 592 1269 b 360 1336 514 1269 449 1336 b 217 1171 285 1336 217 1293 l 335 1171 b 381 1217 335 1207 356 1217 b 588 1150 433 1217 499 1150 b 731 1315 663 1150 731 1193 z "},"Ŋ":{"ha":949,"x_min":0,"x_max":0,"o":"m 871 1083 l 657 1083 l 657 629 l 664 411 l 315 1083 l 78 1083 l 78 0 l 290 0 l 290 454 l 283 672 l 650 -33 b 544 -108 639 -94 600 -108 b 476 -99 519 -108 485 -101 l 476 -278 b 594 -296 489 -285 528 -296 b 871 -22 760 -296 871 -225 z "},"Ó":{"ha":935,"x_min":0,"x_max":0,"o":"m 467 -18 b 881 514 749 -18 881 139 l 881 569 b 467 1101 881 944 749 1101 b 54 569 186 1101 54 944 l 54 514 b 467 -18 54 139 186 -18 z m 461 176 b 282 514 322 176 282 297 l 282 569 b 461 907 282 786 322 907 l 474 907 b 651 569 613 907 651 786 l 651 514 b 474 176 651 297 613 176 z m 435 1319 l 358 1167 l 575 1167 l 664 1319 z "},"Ŏ":{"ha":935,"x_min":0,"x_max":0,"o":"m 467 -18 b 881 514 749 -18 881 139 l 881 569 b 467 1101 881 944 749 1101 b 54 569 186 1101 54 944 l 54 514 b 467 -18 54 139 186 -18 z m 461 176 b 282 514 322 176 282 297 l 282 569 b 461 907 282 786 322 907 l 474 907 b 651 569 613 907 651 786 l 651 514 b 474 176 651 297 613 176 z m 467 1146 b 721 1319 671 1146 721 1225 l 569 1319 b 467 1264 569 1283 540 1264 b 364 1319 393 1264 364 1283 l 213 1319 b 467 1146 213 1225 263 1146 z "},"Ô":{"ha":935,"x_min":0,"x_max":0,"o":"m 467 -18 b 881 514 749 -18 881 139 l 881 569 b 467 1101 881 944 749 1101 b 54 569 186 1101 54 944 l 54 514 b 467 -18 54 139 186 -18 z m 461 176 b 282 514 322 176 282 297 l 282 569 b 461 907 282 786 322 907 l 474 907 b 651 569 613 907 651 786 l 651 514 b 474 176 651 297 613 176 z m 381 1167 l 467 1228 l 553 1167 l 750 1167 l 578 1319 l 356 1319 l 183 1167 z "},"Ö":{"ha":935,"x_min":0,"x_max":0,"o":"m 467 -18 b 881 514 749 -18 881 139 l 881 569 b 467 1101 881 944 749 1101 b 54 569 186 1101 54 944 l 54 514 b 467 -18 54 139 186 -18 z m 461 176 b 282 514 322 176 282 297 l 282 569 b 461 907 282 786 322 907 l 474 907 b 651 569 613 907 651 786 l 651 514 b 474 176 651 297 613 176 z m 438 1313 l 253 1313 l 253 1174 l 438 1174 z m 681 1313 l 496 1313 l 496 1174 l 681 1174 z "},"Ò":{"ha":935,"x_min":0,"x_max":0,"o":"m 467 -18 b 881 514 749 -18 881 139 l 881 569 b 467 1101 881 944 749 1101 b 54 569 186 1101 54 944 l 54 514 b 467 -18 54 139 186 -18 z m 461 176 b 282 514 322 176 282 297 l 282 569 b 461 907 282 786 322 907 l 474 907 b 651 569 613 907 651 786 l 651 514 b 474 176 651 297 613 176 z m 269 1319 l 358 1167 l 575 1167 l 499 1319 z "},"Ő":{"ha":935,"x_min":0,"x_max":0,"o":"m 467 -18 b 881 514 749 -18 881 139 l 881 569 b 467 1101 881 944 749 1101 b 54 569 186 1101 54 944 l 54 514 b 467 -18 54 139 186 -18 z m 461 176 b 282 514 322 176 282 297 l 282 569 b 461 907 282 786 322 907 l 474 907 b 651 569 613 907 651 786 l 651 514 b 474 176 651 297 613 176 z m 318 1319 l 254 1167 l 447 1167 l 525 1319 z m 561 1319 l 486 1167 l 679 1167 l 768 1319 z "},"Ō":{"ha":935,"x_min":0,"x_max":0,"o":"m 467 -18 b 881 514 749 -18 881 139 l 881 569 b 467 1101 881 944 749 1101 b 54 569 186 1101 54 944 l 54 514 b 467 -18 54 139 186 -18 z m 461 176 b 282 514 322 176 282 297 l 282 569 b 461 907 282 786 322 907 l 474 907 b 651 569 613 907 651 786 l 651 514 b 474 176 651 297 613 176 z m 260 1176 l 674 1176 l 674 1310 l 260 1310 z "},"Õ":{"ha":935,"x_min":0,"x_max":0,"o":"m 467 -18 b 881 514 749 -18 881 139 l 881 569 b 467 1101 881 944 749 1101 b 54 569 186 1101 54 944 l 54 514 b 467 -18 54 139 186 -18 z m 461 176 b 282 514 322 176 282 297 l 282 569 b 461 907 282 786 322 907 l 474 907 b 651 569 613 907 651 786 l 651 514 b 474 176 651 297 613 176 z m 606 1315 b 560 1269 606 1279 585 1269 b 353 1336 507 1269 442 1336 b 210 1171 278 1336 210 1293 l 328 1171 b 374 1217 328 1207 349 1217 b 581 1150 426 1217 492 1150 b 724 1315 656 1150 724 1193 z "},"Ṗ":{"ha":846,"x_min":0,"x_max":0,"o":"m 303 389 l 433 389 b 810 722 610 389 810 433 l 810 750 b 433 1083 810 1038 610 1083 l 78 1083 l 78 0 l 303 0 z m 303 583 l 303 889 l 443 889 b 582 743 504 889 582 865 l 582 729 b 443 583 582 607 504 583 z m 500 1313 l 314 1313 l 314 1174 l 500 1174 z "},"Ŕ":{"ha":865,"x_min":0,"x_max":0,"o":"m 303 389 l 418 389 l 567 0 l 810 0 l 639 421 b 810 722 736 461 810 547 l 810 750 b 433 1083 810 1038 610 1083 l 78 1083 l 78 0 l 303 0 z m 303 583 l 303 889 l 443 889 b 582 743 504 889 582 865 l 582 729 b 443 583 582 607 504 583 z m 382 1319 l 306 1167 l 522 1167 l 611 1319 z "},"Ř":{"ha":865,"x_min":0,"x_max":0,"o":"m 303 389 l 418 389 l 567 0 l 810 0 l 639 421 b 810 722 736 461 810 547 l 810 750 b 433 1083 810 1038 610 1083 l 78 1083 l 78 0 l 303 0 z m 303 583 l 303 889 l 443 889 b 582 743 504 889 582 865 l 582 729 b 443 583 582 607 504 583 z m 131 1319 l 303 1167 l 525 1167 l 697 1319 l 500 1319 l 414 1257 l 328 1319 z "},"Ŗ":{"ha":865,"x_min":0,"x_max":0,"o":"m 303 389 l 418 389 l 567 0 l 810 0 l 639 421 b 810 722 736 461 810 547 l 810 750 b 433 1083 810 1038 610 1083 l 78 1083 l 78 0 l 303 0 z m 303 583 l 303 889 l 443 889 b 582 743 504 889 582 865 l 582 729 b 443 583 582 607 504 583 z m 526 -61 l 329 -61 l 329 -189 l 439 -189 b 322 -239 421 -226 381 -239 l 322 -314 b 526 -140 460 -314 526 -264 z "},"Ś":{"ha":876,"x_min":0,"x_max":0,"o":"m 403 453 b 600 311 560 432 600 389 l 600 304 b 444 176 600 232 549 176 l 432 176 b 272 369 328 176 272 233 l 47 369 l 47 357 b 438 -18 47 96 182 -18 b 829 311 692 -18 829 103 l 829 325 b 474 639 829 526 710 607 b 283 781 315 660 283 701 l 283 788 b 426 907 283 857 336 907 l 439 907 b 596 700 553 907 596 842 l 821 700 l 821 729 b 438 1101 821 983 704 1101 b 56 779 190 1101 56 975 l 56 764 b 403 453 56 568 167 485 z m 406 1319 l 329 1167 l 546 1167 l 635 1319 z "},"Š":{"ha":876,"x_min":0,"x_max":0,"o":"m 403 453 b 600 311 560 432 600 389 l 600 304 b 444 176 600 232 549 176 l 432 176 b 272 369 328 176 272 233 l 47 369 l 47 357 b 438 -18 47 96 182 -18 b 829 311 692 -18 829 103 l 829 325 b 474 639 829 526 710 607 b 283 781 315 660 283 701 l 283 788 b 426 907 283 857 336 907 l 439 907 b 596 700 553 907 596 842 l 821 700 l 821 729 b 438 1101 821 983 704 1101 b 56 779 190 1101 56 975 l 56 764 b 403 453 56 568 167 485 z m 154 1319 l 326 1167 l 549 1167 l 721 1319 l 524 1319 l 438 1257 l 351 1319 z "},"Ş":{"ha":876,"x_min":0,"x_max":0,"o":"m 290 -264 b 439 -299 317 -281 371 -299 b 606 -176 549 -299 606 -256 b 467 -56 606 -99 544 -61 l 481 -17 b 829 311 707 -3 829 115 l 829 325 b 474 639 829 526 710 607 b 283 781 315 660 283 701 l 283 788 b 426 907 283 857 336 907 l 439 907 b 596 700 553 907 596 842 l 821 700 l 821 729 b 438 1101 821 983 704 1101 b 56 779 190 1101 56 975 l 56 764 b 403 453 56 568 167 485 b 600 311 560 432 600 389 l 600 304 b 444 176 600 232 549 176 l 432 176 b 272 369 328 176 272 233 l 47 369 l 47 357 b 381 -15 47 115 163 0 l 347 -100 l 368 -139 b 421 -132 368 -139 396 -132 b 488 -164 465 -132 488 -143 b 422 -196 488 -183 471 -196 b 322 -172 386 -196 344 -186 z "},"Ŝ":{"ha":876,"x_min":0,"x_max":0,"o":"m 403 453 b 600 311 560 432 600 389 l 600 304 b 444 176 600 232 549 176 l 432 176 b 272 369 328 176 272 233 l 47 369 l 47 357 b 438 -18 47 96 182 -18 b 829 311 692 -18 829 103 l 829 325 b 474 639 829 526 710 607 b 283 781 315 660 283 701 l 283 788 b 426 907 283 857 336 907 l 439 907 b 596 700 553 907 596 842 l 821 700 l 821 729 b 438 1101 821 983 704 1101 b 56 779 190 1101 56 975 l 56 764 b 403 453 56 568 167 485 z m 351 1167 l 438 1228 l 524 1167 l 721 1167 l 549 1319 l 326 1319 l 154 1167 z "},"Ș":{"ha":876,"x_min":0,"x_max":0,"o":"m 403 453 b 600 311 560 432 600 389 l 600 304 b 444 176 600 232 549 176 l 432 176 b 272 369 328 176 272 233 l 47 369 l 47 357 b 438 -18 47 96 182 -18 b 829 311 692 -18 829 103 l 829 325 b 474 639 829 526 710 607 b 283 781 315 660 283 701 l 283 788 b 426 907 283 857 336 907 l 439 907 b 596 700 553 907 596 842 l 821 700 l 821 729 b 438 1101 821 983 704 1101 b 56 779 190 1101 56 975 l 56 764 b 403 453 56 568 167 485 z m 536 -61 l 339 -61 l 339 -189 l 449 -189 b 332 -239 431 -226 390 -239 l 332 -314 b 536 -140 469 -314 536 -264 z "},"ẞ":{"ha":1118,"x_min":0,"x_max":0,"o":"m 422 636 l 422 482 l 690 450 b 857 311 810 438 857 389 l 857 304 b 743 176 857 221 810 176 l 731 176 b 606 369 663 176 606 222 l 381 369 l 381 357 b 733 -18 381 76 497 -18 b 1085 311 961 -18 1085 103 l 1085 325 b 729 639 1085 526 964 608 l 686 644 l 843 896 l 843 1050 b 536 1101 760 1083 653 1101 b 71 740 214 1101 71 976 l 71 0 l 296 0 l 296 733 b 536 907 296 849 378 907 b 592 904 554 907 572 906 z "},"Ŧ":{"ha":774,"x_min":0,"x_max":0,"o":"m 499 889 l 750 889 l 750 1083 l 24 1083 l 24 889 l 274 889 l 274 643 l 117 643 l 117 463 l 274 463 l 274 0 l 499 0 l 499 463 l 657 463 l 657 643 l 499 643 z "},"Ť":{"ha":774,"x_min":0,"x_max":0,"o":"m 499 889 l 750 889 l 750 1083 l 24 1083 l 24 889 l 274 889 l 274 0 l 499 0 z m 103 1319 l 275 1167 l 497 1167 l 669 1319 l 472 1319 l 386 1257 l 300 1319 z "},"Ţ":{"ha":774,"x_min":0,"x_max":0,"o":"m 499 889 l 750 889 l 750 1083 l 24 1083 l 24 889 l 274 889 l 274 0 l 499 0 z m 485 -61 l 288 -61 l 288 -189 l 397 -189 b 281 -239 379 -226 339 -239 l 281 -314 b 485 -140 418 -314 485 -264 z "},"Ṫ":{"ha":774,"x_min":0,"x_max":0,"o":"m 499 889 l 750 889 l 750 1083 l 24 1083 l 24 889 l 274 889 l 274 0 l 499 0 z m 479 1313 l 293 1313 l 293 1174 l 479 1174 z "},"Ú":{"ha":921,"x_min":0,"x_max":0,"o":"m 460 -18 b 850 343 754 -18 850 107 l 850 1083 l 625 1083 l 625 350 b 460 176 625 235 588 176 b 296 350 332 176 296 235 l 296 1083 l 71 1083 l 71 343 b 460 -18 71 107 165 -18 z m 428 1319 l 351 1167 l 568 1167 l 657 1319 z "},"Ŭ":{"ha":921,"x_min":0,"x_max":0,"o":"m 460 1146 b 714 1319 664 1146 714 1225 l 563 1319 b 460 1264 563 1283 533 1264 b 357 1319 386 1264 357 1283 l 206 1319 b 460 1146 206 1225 256 1146 z m 460 -18 b 850 343 754 -18 850 107 l 850 1083 l 625 1083 l 625 350 b 460 176 625 235 588 176 b 296 350 332 176 296 235 l 296 1083 l 71 1083 l 71 343 b 460 -18 71 107 165 -18 z "},"Û":{"ha":921,"x_min":0,"x_max":0,"o":"m 460 -18 b 850 343 754 -18 850 107 l 850 1083 l 625 1083 l 625 350 b 460 176 625 235 588 176 b 296 350 332 176 296 235 l 296 1083 l 71 1083 l 71 343 b 460 -18 71 107 165 -18 z m 374 1167 l 460 1228 l 546 1167 l 743 1167 l 571 1319 l 349 1319 l 176 1167 z "},"Ü":{"ha":921,"x_min":0,"x_max":0,"o":"m 460 -18 b 850 343 754 -18 850 107 l 850 1083 l 625 1083 l 625 350 b 460 176 625 235 588 176 b 296 350 332 176 296 235 l 296 1083 l 71 1083 l 71 343 b 460 -18 71 107 165 -18 z m 431 1313 l 246 1313 l 246 1174 l 431 1174 z m 674 1313 l 489 1313 l 489 1174 l 674 1174 z "},"Ù":{"ha":921,"x_min":0,"x_max":0,"o":"m 460 -18 b 850 343 754 -18 850 107 l 850 1083 l 625 1083 l 625 350 b 460 176 625 235 588 176 b 296 350 332 176 296 235 l 296 1083 l 71 1083 l 71 343 b 460 -18 71 107 165 -18 z m 263 1319 l 351 1167 l 568 1167 l 492 1319 z "},"Ű":{"ha":921,"x_min":0,"x_max":0,"o":"m 460 -18 b 850 343 754 -18 850 107 l 850 1083 l 625 1083 l 625 350 b 460 176 625 235 588 176 b 296 350 332 176 296 235 l 296 1083 l 71 1083 l 71 343 b 460 -18 71 107 165 -18 z m 554 1319 l 479 1167 l 672 1167 l 761 1319 z m 311 1319 l 247 1167 l 440 1167 l 518 1319 z "},"Ū":{"ha":921,"x_min":0,"x_max":0,"o":"m 460 -18 b 850 343 754 -18 850 107 l 850 1083 l 625 1083 l 625 350 b 460 176 625 235 588 176 b 296 350 332 176 296 235 l 296 1083 l 71 1083 l 71 343 b 460 -18 71 107 165 -18 z m 253 1176 l 667 1176 l 667 1310 l 253 1310 z "},"Ų":{"ha":921,"x_min":0,"x_max":0,"o":"m 542 -96 b 628 0 542 -54 571 -14 b 850 343 788 40 850 160 l 850 1083 l 625 1083 l 625 350 b 460 176 625 235 588 176 b 296 350 332 176 296 235 l 296 1083 l 71 1083 l 71 343 b 425 -17 71 117 158 -7 b 379 -149 396 -53 379 -97 b 567 -299 379 -250 454 -299 b 710 -264 624 -299 681 -282 l 660 -131 b 601 -146 649 -137 628 -146 b 542 -96 565 -146 542 -125 z "},"Ů":{"ha":921,"x_min":0,"x_max":0,"o":"m 460 -18 b 850 343 754 -18 850 107 l 850 1083 l 625 1083 l 625 350 b 460 176 625 235 588 176 b 296 350 332 176 296 235 l 296 1083 l 71 1083 l 71 343 b 460 -18 71 107 165 -18 z m 314 1192 b 460 1044 314 1111 379 1044 b 606 1192 540 1044 606 1111 b 460 1338 606 1272 540 1338 b 314 1192 379 1338 314 1272 z m 389 1192 b 460 1261 389 1231 421 1261 b 531 1192 499 1261 531 1231 b 460 1121 531 1153 499 1121 b 389 1192 421 1121 389 1153 z "},"Ũ":{"ha":921,"x_min":0,"x_max":0,"o":"m 599 1315 b 553 1269 599 1279 578 1269 b 346 1336 500 1269 435 1336 b 203 1171 271 1336 203 1293 l 321 1171 b 367 1217 321 1207 342 1217 b 574 1150 419 1217 485 1150 b 717 1315 649 1150 717 1193 z m 460 -18 b 850 343 754 -18 850 107 l 850 1083 l 625 1083 l 625 350 b 460 176 625 235 588 176 b 296 350 332 176 296 235 l 296 1083 l 71 1083 l 71 343 b 460 -18 71 107 165 -18 z "},"Ẃ":{"ha":1301,"x_min":0,"x_max":0,"o":"m 807 -3 l 1096 -3 l 1275 1083 l 1040 1083 l 936 304 l 790 1083 l 511 1083 l 365 304 l 261 1083 l 26 1083 l 206 -3 l 493 -3 l 650 826 z m 618 1319 l 542 1167 l 758 1167 l 847 1319 z "},"Ŵ":{"ha":1301,"x_min":0,"x_max":0,"o":"m 807 -3 l 1096 -3 l 1275 1083 l 1040 1083 l 936 304 l 790 1083 l 511 1083 l 365 304 l 261 1083 l 26 1083 l 206 -3 l 493 -3 l 650 826 z m 564 1167 l 650 1228 l 736 1167 l 933 1167 l 761 1319 l 539 1319 l 367 1167 z "},"Ẅ":{"ha":1301,"x_min":0,"x_max":0,"o":"m 807 -3 l 1096 -3 l 1275 1083 l 1040 1083 l 936 304 l 790 1083 l 511 1083 l 365 304 l 261 1083 l 26 1083 l 206 -3 l 493 -3 l 650 826 z m 621 1313 l 436 1313 l 436 1174 l 621 1174 z m 864 1313 l 679 1313 l 679 1174 l 864 1174 z "},"Ẁ":{"ha":1301,"x_min":0,"x_max":0,"o":"m 807 -3 l 1096 -3 l 1275 1083 l 1040 1083 l 936 304 l 790 1083 l 511 1083 l 365 304 l 261 1083 l 26 1083 l 206 -3 l 493 -3 l 650 826 z m 453 1319 l 542 1167 l 758 1167 l 682 1319 z "},"Ý":{"ha":868,"x_min":0,"x_max":0,"o":"m 547 332 l 857 1083 l 611 1083 l 435 610 l 257 1083 l 11 1083 l 322 332 l 322 0 l 547 0 z m 403 1319 l 326 1167 l 543 1167 l 632 1319 z "},"Ŷ":{"ha":868,"x_min":0,"x_max":0,"o":"m 547 332 l 857 1083 l 611 1083 l 435 610 l 257 1083 l 11 1083 l 322 332 l 322 0 l 547 0 z m 349 1167 l 435 1228 l 521 1167 l 718 1167 l 546 1319 l 324 1319 l 151 1167 z "},"Ÿ":{"ha":868,"x_min":0,"x_max":0,"o":"m 547 332 l 857 1083 l 611 1083 l 435 610 l 257 1083 l 11 1083 l 322 332 l 322 0 l 547 0 z m 649 1313 l 464 1313 l 464 1174 l 649 1174 z m 406 1313 l 221 1313 l 221 1174 l 406 1174 z "},"Ỳ":{"ha":868,"x_min":0,"x_max":0,"o":"m 547 332 l 857 1083 l 611 1083 l 435 610 l 257 1083 l 11 1083 l 322 332 l 322 0 l 547 0 z m 238 1319 l 326 1167 l 543 1167 l 467 1319 z "},"Ȳ":{"ha":868,"x_min":0,"x_max":0,"o":"m 547 332 l 857 1083 l 611 1083 l 435 610 l 257 1083 l 11 1083 l 322 332 l 322 0 l 547 0 z m 228 1176 l 642 1176 l 642 1310 l 228 1310 z "},"Ź":{"ha":832,"x_min":0,"x_max":0,"o":"m 383 1319 l 307 1167 l 524 1167 l 613 1319 z m 56 154 l 56 0 l 776 0 l 776 194 l 529 194 l 331 190 l 763 929 l 763 1083 l 69 1083 l 69 889 l 289 889 l 488 893 z "},"Ž":{"ha":832,"x_min":0,"x_max":0,"o":"m 132 1319 l 304 1167 l 526 1167 l 699 1319 l 501 1319 l 415 1257 l 329 1319 z m 56 154 l 56 0 l 776 0 l 776 194 l 529 194 l 331 190 l 763 929 l 763 1083 l 69 1083 l 69 889 l 289 889 l 488 893 z "},"Ż":{"ha":832,"x_min":0,"x_max":0,"o":"m 508 1313 l 322 1313 l 322 1174 l 508 1174 z m 56 154 l 56 0 l 776 0 l 776 194 l 529 194 l 331 190 l 763 929 l 763 1083 l 69 1083 l 69 889 l 289 889 l 488 893 z "},"å":{"ha":763,"x_min":0,"x_max":0,"o":"m 511 0 l 708 0 l 694 208 l 694 474 b 382 754 694 651 622 754 b 69 506 139 754 69 633 l 69 493 l 276 493 b 375 588 276 542 296 588 b 475 479 450 588 474 551 l 306 453 b 42 217 151 429 42 376 l 42 203 b 267 -18 42 85 101 -18 b 497 76 369 -18 446 21 z m 236 956 b 382 808 236 875 301 808 b 528 956 463 808 528 875 b 382 1101 528 1036 463 1101 b 236 956 301 1101 236 1036 z m 347 160 b 260 235 283 160 260 197 l 260 243 b 350 331 260 288 282 319 l 475 350 l 475 215 b 347 160 451 190 410 160 z m 311 956 b 382 1025 311 994 343 1025 b 453 956 421 1025 453 994 b 382 885 453 917 421 885 b 311 956 343 885 311 917 z "},"á":{"ha":763,"x_min":0,"x_max":0,"o":"m 511 0 l 708 0 l 694 208 l 694 474 b 382 754 694 651 622 754 b 69 506 139 754 69 633 l 69 493 l 276 493 b 375 588 276 542 296 588 b 475 479 450 588 474 551 l 306 453 b 42 217 151 429 42 376 l 42 203 b 267 -18 42 85 101 -18 b 497 76 369 -18 446 21 z m 399 1083 l 272 828 l 489 828 l 638 1083 z m 347 160 b 260 235 283 160 260 197 l 260 243 b 350 331 260 288 282 319 l 475 350 l 475 215 b 347 160 451 190 410 160 z "},"ă":{"ha":763,"x_min":0,"x_max":0,"o":"m 511 0 l 708 0 l 694 208 l 694 474 b 382 754 694 651 622 754 b 69 506 139 754 69 633 l 69 493 l 276 493 b 375 588 276 542 296 588 b 475 479 450 588 474 551 l 306 453 b 42 217 151 429 42 376 l 42 203 b 267 -18 42 85 101 -18 b 497 76 369 -18 446 21 z m 381 808 b 640 1083 575 808 643 925 l 483 1083 b 381 975 483 1001 440 975 b 278 1083 321 975 278 1001 l 121 1083 b 381 808 118 925 186 808 z m 347 160 b 260 235 283 160 260 197 l 260 243 b 350 331 260 288 282 319 l 475 350 l 475 215 b 347 160 451 190 410 160 z "},"â":{"ha":763,"x_min":0,"x_max":0,"o":"m 511 0 l 708 0 l 694 208 l 694 474 b 382 754 694 651 622 754 b 69 506 139 754 69 633 l 69 493 l 276 493 b 375 588 276 542 296 588 b 475 479 450 588 474 551 l 306 453 b 42 217 151 429 42 376 l 42 203 b 267 -18 42 85 101 -18 b 497 76 369 -18 446 21 z m 281 828 l 381 942 l 481 828 l 672 828 l 486 1083 l 275 1083 l 89 828 z m 347 160 b 260 235 283 160 260 197 l 260 243 b 350 331 260 288 282 319 l 475 350 l 475 215 b 347 160 451 190 410 160 z "},"ä":{"ha":763,"x_min":0,"x_max":0,"o":"m 511 0 l 708 0 l 694 208 l 694 474 b 382 754 694 651 622 754 b 69 506 139 754 69 633 l 69 493 l 276 493 b 375 588 276 542 296 588 b 475 479 450 588 474 551 l 306 453 b 42 217 151 429 42 376 l 42 203 b 267 -18 42 85 101 -18 b 497 76 369 -18 446 21 z m 346 1072 l 117 1072 l 117 842 l 346 842 z m 644 1072 l 415 1072 l 415 842 l 644 842 z m 347 160 b 260 235 283 160 260 197 l 260 243 b 350 331 260 288 282 319 l 475 350 l 475 215 b 347 160 451 190 410 160 z "},"à":{"ha":763,"x_min":0,"x_max":0,"o":"m 511 0 l 708 0 l 694 208 l 694 474 b 382 754 694 651 622 754 b 69 506 139 754 69 633 l 69 493 l 276 493 b 375 588 276 542 296 588 b 475 479 450 588 474 551 l 306 453 b 42 217 151 429 42 376 l 42 203 b 267 -18 42 85 101 -18 b 497 76 369 -18 446 21 z m 124 1083 l 272 828 l 489 828 l 363 1083 z m 347 160 b 260 235 283 160 260 197 l 260 243 b 350 331 260 288 282 319 l 475 350 l 475 215 b 347 160 451 190 410 160 z "},"ā":{"ha":763,"x_min":0,"x_max":0,"o":"m 511 0 l 708 0 l 694 208 l 694 474 b 382 754 694 651 622 754 b 69 506 139 754 69 633 l 69 493 l 276 493 b 375 588 276 542 296 588 b 475 479 450 588 474 551 l 306 453 b 42 217 151 429 42 376 l 42 203 b 267 -18 42 85 101 -18 b 497 76 369 -18 446 21 z m 172 860 l 589 860 l 589 1051 l 172 1051 z m 347 160 b 260 235 283 160 260 197 l 260 243 b 350 331 260 288 282 319 l 475 350 l 475 215 b 347 160 451 190 410 160 z "},"ą":{"ha":763,"x_min":0,"x_max":0,"o":"m 347 160 b 260 235 283 160 260 197 l 260 243 b 350 331 260 288 282 319 l 475 350 l 475 215 b 347 160 451 190 410 160 z m 457 -149 b 644 -299 457 -250 532 -299 b 788 -264 701 -299 758 -282 l 738 -131 b 679 -146 726 -137 706 -146 b 619 -96 643 -146 619 -125 b 706 0 619 -54 651 -24 l 708 0 l 694 208 l 694 474 b 382 754 694 651 622 754 b 69 506 139 754 69 633 l 69 493 l 276 493 b 375 588 276 542 296 588 b 475 479 450 588 474 551 l 306 453 b 42 217 151 429 42 376 l 42 203 b 267 -18 42 85 101 -18 b 497 76 369 -18 446 21 l 513 -6 b 457 -149 478 -44 457 -92 z "},"ã":{"ha":763,"x_min":0,"x_max":0,"o":"m 511 0 l 708 0 l 694 208 l 694 474 b 382 754 694 651 622 754 b 69 506 139 754 69 633 l 69 493 l 276 493 b 375 588 276 542 296 588 b 475 479 450 588 474 551 l 306 453 b 42 217 151 429 42 376 l 42 203 b 267 -18 42 85 101 -18 b 497 76 369 -18 446 21 z m 514 1072 b 471 1021 514 1035 496 1021 b 256 1093 415 1021 344 1093 b 101 872 169 1093 101 1028 l 247 872 b 290 924 247 910 265 924 b 506 851 346 924 417 851 b 660 1072 592 851 660 917 z m 347 160 b 260 235 283 160 260 197 l 260 243 b 350 331 260 288 282 319 l 475 350 l 475 215 b 347 160 451 190 410 160 z "},"ḃ":{"ha":797,"x_min":0,"x_max":0,"o":"m 293 1111 l 74 1111 l 74 208 l 61 0 l 257 0 l 272 89 b 482 -18 314 26 379 -18 b 756 343 683 -18 756 131 l 756 393 b 482 754 756 606 683 754 b 293 674 394 754 335 722 z m 293 240 l 293 496 b 418 565 311 522 353 565 b 536 393 503 565 536 501 l 536 343 b 418 171 536 235 503 171 b 293 240 353 171 311 214 z m 275 1313 l 89 1313 l 89 1174 l 275 1174 z "},"ć":{"ha":732,"x_min":0,"x_max":0,"o":"m 261 343 l 261 393 b 379 565 261 501 294 565 b 485 450 449 565 485 525 l 692 450 l 692 482 b 375 754 692 644 586 754 b 42 393 143 754 42 606 l 42 343 b 375 -18 42 131 143 -18 b 692 242 586 -18 692 90 l 692 272 l 485 272 b 379 171 485 214 450 171 b 261 343 294 171 261 235 z m 393 1083 l 267 828 l 483 828 l 632 1083 z "},"č":{"ha":732,"x_min":0,"x_max":0,"o":"m 261 343 l 261 393 b 379 565 261 501 294 565 b 485 450 449 565 485 525 l 692 450 l 692 482 b 375 754 692 644 586 754 b 42 393 143 754 42 606 l 42 343 b 375 -18 42 131 143 -18 b 692 242 586 -18 692 90 l 692 272 l 485 272 b 379 171 485 214 450 171 b 261 343 294 171 261 235 z m 83 1083 l 269 828 l 481 828 l 667 1083 l 475 1083 l 375 968 l 275 1083 z "},"ç":{"ha":732,"x_min":0,"x_max":0,"o":"m 229 -264 b 378 -299 256 -281 310 -299 b 544 -176 488 -299 544 -256 b 406 -56 544 -99 483 -61 l 419 -15 b 692 242 601 -1 692 101 l 692 272 l 485 272 b 379 171 485 214 450 171 b 261 343 294 171 261 235 l 261 393 b 379 565 261 501 294 565 b 485 450 449 565 485 525 l 692 450 l 692 482 b 375 754 692 644 586 754 b 42 393 143 754 42 606 l 42 343 b 319 -14 42 147 126 7 l 286 -100 l 307 -139 b 360 -132 307 -139 335 -132 b 426 -164 404 -132 426 -143 b 361 -196 426 -183 410 -196 b 261 -172 325 -196 283 -186 z "},"ĉ":{"ha":732,"x_min":0,"x_max":0,"o":"m 261 343 l 261 393 b 379 565 261 501 294 565 b 485 450 449 565 485 525 l 692 450 l 692 482 b 375 754 692 644 586 754 b 42 393 143 754 42 606 l 42 343 b 375 -18 42 131 143 -18 b 692 242 586 -18 692 90 l 692 272 l 485 272 b 379 171 485 214 450 171 b 261 343 294 171 261 235 z m 275 828 l 375 942 l 475 828 l 667 828 l 481 1083 l 269 1083 l 83 828 z "},"ċ":{"ha":732,"x_min":0,"x_max":0,"o":"m 261 343 l 261 393 b 379 565 261 501 294 565 b 485 450 449 565 485 525 l 692 450 l 692 482 b 375 754 692 644 586 754 b 42 393 143 754 42 606 l 42 343 b 375 -18 42 131 143 -18 b 692 242 586 -18 692 90 l 692 272 l 485 272 b 379 171 485 214 450 171 b 261 343 294 171 261 235 z m 490 1072 l 260 1072 l 260 842 l 490 842 z "},"ď":{"ha":808,"x_min":0,"x_max":0,"o":"m 326 754 b 53 393 125 754 53 606 l 53 343 b 326 -18 53 131 125 -18 b 535 88 428 -18 493 26 l 550 0 l 747 0 l 735 208 l 735 1111 l 515 1111 l 515 674 b 326 754 474 722 413 754 z m 515 496 l 515 240 b 390 171 497 214 456 171 b 271 343 304 171 271 235 l 271 393 b 390 565 271 501 304 565 b 515 496 456 565 497 522 z m 811 1111 l 811 828 l 908 828 l 944 1111 z "},"đ":{"ha":808,"x_min":0,"x_max":0,"o":"m 828 1001 l 733 1001 l 733 1111 l 515 1111 l 515 1001 l 358 1001 l 358 846 l 515 846 l 515 674 b 326 754 474 721 413 754 b 53 393 125 754 53 606 l 53 343 b 326 -18 53 131 125 -18 b 535 89 428 -18 494 26 l 551 0 l 746 0 l 733 208 l 733 846 l 828 846 z m 515 496 l 515 240 b 389 169 497 213 456 169 b 271 343 304 169 271 233 l 271 393 b 389 567 271 503 304 567 b 515 496 456 567 497 524 z "},"ḋ":{"ha":808,"x_min":0,"x_max":0,"o":"m 326 754 b 53 393 125 754 53 606 l 53 343 b 326 -18 53 131 125 -18 b 535 88 428 -18 493 26 l 550 0 l 747 0 l 735 208 l 735 1111 l 515 1111 l 515 674 b 326 754 474 722 413 754 z m 515 496 l 515 240 b 390 171 497 214 456 171 b 271 343 304 171 271 235 l 271 393 b 390 565 271 501 304 565 b 515 496 456 565 497 522 z m 718 1313 l 532 1313 l 532 1174 l 718 1174 z "},"ð":{"ha":772,"x_min":0,"x_max":0,"o":"m 43 935 b 199 907 99 929 150 921 l 82 843 l 82 719 l 326 856 b 413 786 360 836 389 813 b 447 740 425 772 438 757 b 353 754 418 750 386 754 b 43 393 150 754 43 606 l 43 343 b 386 -18 43 131 150 -18 b 731 343 624 -18 731 131 l 731 393 b 583 910 731 563 701 758 b 529 968 567 931 549 950 l 597 1006 l 597 1129 l 431 1036 b 43 1129 319 1096 185 1119 z m 386 169 b 260 343 299 169 260 235 l 260 393 b 386 567 260 501 299 567 b 513 393 474 567 513 501 l 513 343 b 386 169 513 235 474 169 z "},"é":{"ha":772,"x_min":0,"x_max":0,"o":"m 731 289 l 731 388 b 390 754 731 600 624 754 b 42 388 158 754 42 600 l 42 349 b 399 -18 42 136 154 -18 b 731 231 611 -18 731 90 l 731 236 l 524 236 b 400 149 524 192 476 149 b 261 289 318 149 269 186 z m 408 1083 l 282 828 l 499 828 l 647 1083 z m 386 588 b 510 447 464 588 503 543 l 263 447 b 386 588 269 543 308 588 z "},"ĕ":{"ha":772,"x_min":0,"x_max":0,"o":"m 731 289 l 731 388 b 390 754 731 600 624 754 b 42 388 158 754 42 600 l 42 349 b 399 -18 42 136 154 -18 b 731 231 611 -18 731 90 l 731 236 l 524 236 b 400 149 524 192 476 149 b 261 289 318 149 269 186 z m 390 808 b 650 1083 585 808 653 925 l 493 1083 b 390 975 493 1001 450 975 b 288 1083 331 975 288 1001 l 131 1083 b 390 808 128 925 196 808 z m 386 588 b 510 447 464 588 503 543 l 263 447 b 386 588 269 543 308 588 z "},"ě":{"ha":772,"x_min":0,"x_max":0,"o":"m 731 289 l 731 388 b 390 754 731 600 624 754 b 42 388 158 754 42 600 l 42 349 b 399 -18 42 136 154 -18 b 731 231 611 -18 731 90 l 731 236 l 524 236 b 400 149 524 192 476 149 b 261 289 318 149 269 186 z m 99 1083 l 285 828 l 496 828 l 682 1083 l 490 1083 l 390 968 l 290 1083 z m 386 588 b 510 447 464 588 503 543 l 263 447 b 386 588 269 543 308 588 z "},"ê":{"ha":772,"x_min":0,"x_max":0,"o":"m 731 289 l 731 388 b 390 754 731 600 624 754 b 42 388 158 754 42 600 l 42 349 b 399 -18 42 136 154 -18 b 731 231 611 -18 731 90 l 731 236 l 524 236 b 400 149 524 192 476 149 b 261 289 318 149 269 186 z m 290 828 l 390 942 l 490 828 l 682 828 l 496 1083 l 285 1083 l 99 828 z m 386 588 b 510 447 464 588 503 543 l 263 447 b 386 588 269 543 308 588 z "},"ë":{"ha":772,"x_min":0,"x_max":0,"o":"m 731 289 l 731 388 b 390 754 731 600 624 754 b 42 388 158 754 42 600 l 42 349 b 399 -18 42 136 154 -18 b 731 231 611 -18 731 90 l 731 236 l 524 236 b 400 149 524 192 476 149 b 261 289 318 149 269 186 z m 654 1072 l 425 1072 l 425 842 l 654 842 z m 356 1072 l 126 1072 l 126 842 l 356 842 z m 386 588 b 510 447 464 588 503 543 l 263 447 b 386 588 269 543 308 588 z "},"ė":{"ha":772,"x_min":0,"x_max":0,"o":"m 731 289 l 731 388 b 390 754 731 600 624 754 b 42 388 158 754 42 600 l 42 349 b 399 -18 42 136 154 -18 b 731 231 611 -18 731 90 l 731 236 l 524 236 b 400 149 524 192 476 149 b 261 289 318 149 269 186 z m 506 1072 l 275 1072 l 275 842 l 506 842 z m 386 588 b 510 447 464 588 503 543 l 263 447 b 386 588 269 543 308 588 z "},"è":{"ha":772,"x_min":0,"x_max":0,"o":"m 731 289 l 731 388 b 390 754 731 600 624 754 b 42 388 158 754 42 600 l 42 349 b 399 -18 42 136 154 -18 b 731 231 611 -18 731 90 l 731 236 l 524 236 b 400 149 524 192 476 149 b 261 289 318 149 269 186 z m 133 1083 l 282 828 l 499 828 l 372 1083 z m 386 588 b 510 447 464 588 503 543 l 263 447 b 386 588 269 543 308 588 z "},"ē":{"ha":772,"x_min":0,"x_max":0,"o":"m 731 289 l 731 388 b 390 754 731 600 624 754 b 42 388 158 754 42 600 l 42 349 b 399 -18 42 136 154 -18 b 731 231 611 -18 731 90 l 731 236 l 524 236 b 400 149 524 192 476 149 b 261 289 318 149 269 186 z m 182 860 l 599 860 l 599 1051 l 182 1051 z m 386 588 b 510 447 464 588 503 543 l 263 447 b 386 588 269 543 308 588 z "},"ę":{"ha":772,"x_min":0,"x_max":0,"o":"m 731 289 l 731 388 b 390 754 731 600 624 754 b 42 388 158 754 42 600 l 42 349 b 338 -14 42 154 135 8 b 289 -149 307 -51 289 -96 b 476 -299 289 -250 364 -299 b 619 -264 533 -299 590 -282 l 569 -131 b 511 -146 558 -137 538 -146 b 451 -96 475 -146 451 -125 b 538 0 451 -54 482 -17 b 731 231 658 35 731 124 l 731 236 l 524 236 b 400 149 524 192 476 149 b 261 289 318 149 269 186 z m 386 588 b 510 447 464 588 503 543 l 263 447 b 386 588 269 543 308 588 z "},"ḟ":{"ha":571,"x_min":0,"x_max":0,"o":"m 358 832 b 467 940 358 922 400 940 b 533 931 490 940 525 935 l 533 1111 b 415 1129 521 1118 482 1129 b 139 856 250 1129 139 1058 l 139 736 l 26 736 l 26 544 l 139 544 l 139 0 l 358 0 l 358 544 l 519 544 l 519 736 l 358 736 z m 432 1313 l 246 1313 l 246 1174 l 432 1174 z "},"ğ":{"ha":797,"x_min":0,"x_max":0,"o":"m 504 15 b 379 -118 504 -85 464 -118 b 263 0 288 -118 263 -69 l 56 0 l 56 -29 b 383 -296 56 -178 138 -296 b 724 14 615 -296 724 -189 l 724 528 l 736 736 l 540 736 l 525 651 b 315 754 483 711 418 754 b 42 410 119 754 42 607 l 42 371 b 315 26 42 161 119 26 b 504 101 401 26 463 56 z m 389 808 b 649 1083 583 808 651 925 l 492 1083 b 389 975 492 1001 449 975 b 286 1083 329 975 286 1001 l 129 1083 b 389 808 126 925 194 808 z m 504 496 l 504 285 b 379 215 488 258 446 215 b 261 371 300 215 261 265 l 261 410 b 379 565 261 503 300 565 b 504 496 446 565 488 522 z "},"ĝ":{"ha":797,"x_min":0,"x_max":0,"o":"m 504 15 b 379 -118 504 -85 464 -118 b 263 0 288 -118 263 -69 l 56 0 l 56 -29 b 383 -296 56 -178 138 -296 b 724 14 615 -296 724 -189 l 724 528 l 736 736 l 540 736 l 525 651 b 315 754 483 711 418 754 b 42 410 119 754 42 607 l 42 371 b 315 26 42 161 119 26 b 504 101 401 26 463 56 z m 289 828 l 389 942 l 489 828 l 681 828 l 494 1083 l 283 1083 l 97 828 z m 504 285 b 379 215 488 258 446 215 b 261 371 300 215 261 265 l 261 410 b 379 565 261 503 300 565 b 504 496 446 565 488 522 z "},"ģ":{"ha":797,"x_min":0,"x_max":0,"o":"m 506 15 b 379 -119 506 -85 464 -119 b 263 0 288 -119 263 -69 l 57 0 l 57 -29 b 383 -296 57 -178 139 -296 b 724 14 614 -296 724 -189 l 724 528 l 736 736 l 540 736 l 525 653 b 315 754 485 713 418 754 b 43 410 121 754 43 607 l 43 371 b 315 26 43 163 121 26 b 506 101 403 26 464 56 z m 379 214 b 260 371 299 214 260 265 l 260 410 b 379 567 260 504 299 567 b 506 496 446 567 488 524 l 506 285 b 379 214 488 257 446 214 z m 286 828 l 482 828 l 482 967 l 369 967 b 490 1026 386 1011 426 1026 l 490 1101 b 286 918 350 1101 286 1047 z "},"ġ":{"ha":797,"x_min":0,"x_max":0,"o":"m 504 15 b 379 -118 504 -85 464 -118 b 263 0 288 -118 263 -69 l 56 0 l 56 -29 b 383 -296 56 -178 138 -296 b 724 14 615 -296 724 -189 l 724 528 l 736 736 l 540 736 l 525 651 b 315 754 483 711 418 754 b 42 410 119 754 42 607 l 42 371 b 315 26 42 161 119 26 b 504 101 401 26 463 56 z m 504 496 l 504 285 b 379 215 488 258 446 215 b 261 371 300 215 261 265 l 261 410 b 379 565 261 503 300 565 b 504 496 446 565 488 522 z m 499 1072 l 268 1072 l 268 842 l 499 842 z "},"ħ":{"ha":804,"x_min":0,"x_max":0,"o":"m 293 1111 l 75 1111 l 75 1001 l -19 1001 l -19 846 l 75 846 l 75 0 l 293 0 l 293 496 b 422 567 311 524 353 567 b 521 463 499 567 521 515 l 521 0 l 738 0 l 738 499 b 510 754 738 632 676 754 b 293 665 411 754 340 718 l 293 846 l 450 846 l 450 1001 l 293 1001 z "},"ĥ":{"ha":804,"x_min":0,"x_max":0,"o":"m 294 1111 l 75 1111 l 75 0 l 294 0 l 294 496 b 424 565 311 522 354 565 b 521 463 499 565 521 515 l 521 0 l 739 0 l 739 499 b 511 754 739 632 678 754 b 294 665 413 754 342 718 z m 97 1167 l 183 1228 l 269 1167 l 467 1167 l 294 1319 l 72 1319 l -100 1167 z "},"í":{"ha":368,"x_min":0,"x_max":0,"o":"m 75 0 l 293 0 l 293 736 l 75 736 z m 203 1083 l 76 828 l 293 828 l 442 1083 z "},"ĭ":{"ha":368,"x_min":0,"x_max":0,"o":"m 75 0 l 293 0 l 293 736 l 75 736 z m 185 808 b 444 1083 379 808 447 925 l 288 1083 b 185 975 288 1001 244 975 b 82 1083 125 975 82 1001 l -75 1083 b 185 808 -78 925 -10 808 z "},"î":{"ha":368,"x_min":0,"x_max":0,"o":"m 75 0 l 293 0 l 293 736 l 75 736 z m 85 828 l 185 942 l 285 828 l 476 828 l 290 1083 l 79 1083 l -107 828 z "},"ï":{"ha":368,"x_min":0,"x_max":0,"o":"m 75 0 l 293 0 l 293 736 l 75 736 z m 150 1072 l -79 1072 l -79 842 l 150 842 z m 449 1072 l 219 1072 l 219 842 l 449 842 z "},"ì":{"ha":369,"x_min":0,"x_max":0,"o":"m 75 0 l 293 0 l 293 736 l 75 736 z m -72 1083 l 76 828 l 293 828 l 167 1083 z "},"ī":{"ha":369,"x_min":0,"x_max":0,"o":"m 75 0 l 293 0 l 293 736 l 75 736 z m -24 860 l 393 860 l 393 1051 l -24 1051 z "},"į":{"ha":369,"x_min":0,"x_max":0,"o":"m 44 -149 b 232 -299 44 -250 119 -299 b 375 -264 289 -299 346 -282 l 325 -131 b 267 -146 314 -137 293 -146 b 207 -96 231 -146 207 -125 b 293 0 207 -54 239 -24 l 294 0 l 294 736 l 75 736 l 75 -39 b 44 -149 56 -71 44 -107 z m 300 1072 l 69 1072 l 69 840 l 300 840 z "},"ĩ":{"ha":369,"x_min":0,"x_max":0,"o":"m 75 0 l 293 0 l 293 736 l 75 736 z m 318 1072 b 275 1021 318 1035 300 1021 b 60 1093 219 1021 149 1093 b -94 872 -26 1093 -94 1028 l 51 872 b 94 924 51 910 69 924 b 310 851 150 924 221 851 b 464 1072 396 851 464 917 z "},"ĵ":{"ha":369,"x_min":0,"x_max":0,"o":"m 75 1 b -33 -108 75 -90 32 -108 b -101 -99 -58 -108 -93 -101 l -101 -278 b 18 -296 -89 -285 -50 -296 b 293 -22 182 -296 293 -225 l 293 736 l 75 736 z m 85 828 l 185 942 l 285 828 l 476 828 l 290 1083 l 79 1083 l -107 828 z "},"ķ":{"ha":781,"x_min":0,"x_max":0,"o":"m 69 0 l 289 0 l 289 200 l 361 283 l 500 0 l 756 0 l 513 457 l 756 736 l 493 736 l 289 486 l 289 1111 l 69 1111 z m 486 -61 l 289 -61 l 289 -189 l 399 -189 b 282 -239 381 -226 340 -239 l 282 -314 b 486 -140 419 -314 486 -264 z "},"ĸ":{"ha":781,"x_min":0,"x_max":0,"o":"m 69 0 l 289 0 l 289 200 l 361 283 l 500 0 l 756 0 l 513 457 l 756 736 l 493 736 l 289 486 l 289 736 l 69 736 z "},"ĺ":{"ha":369,"x_min":0,"x_max":0,"o":"m 75 0 l 294 0 l 294 1111 l 75 1111 z m 153 1319 l 76 1167 l 293 1167 l 382 1319 z "},"ľ":{"ha":369,"x_min":0,"x_max":0,"o":"m 75 0 l 294 0 l 294 1111 l 75 1111 z m 372 1111 l 372 828 l 469 828 l 506 1111 z "},"ļ":{"ha":369,"x_min":0,"x_max":0,"o":"m 75 0 l 294 0 l 294 1111 l 75 1111 z m 283 -61 l 86 -61 l 86 -189 l 196 -189 b 79 -239 178 -226 138 -239 l 79 -314 b 283 -140 217 -314 283 -264 z "},"ŀ":{"ha":610,"x_min":0,"x_max":0,"o":"m 75 0 l 294 0 l 294 1111 l 75 1111 z m 606 603 l 375 603 l 375 371 l 606 371 z "},"ł":{"ha":533,"x_min":0,"x_max":0,"o":"m 32 264 l 156 342 l 156 0 l 375 0 l 375 482 l 515 571 l 515 754 l 375 665 l 375 1111 l 156 1111 l 156 526 l 32 449 z "},"ṁ":{"ha":1199,"x_min":0,"x_max":0,"o":"m 1132 0 l 1132 507 b 914 754 1132 646 1067 754 b 688 640 804 754 732 706 b 494 754 656 710 593 754 b 274 647 389 754 318 710 l 258 736 l 63 736 l 75 528 l 75 0 l 294 0 l 294 501 b 407 565 311 528 346 565 b 494 472 468 565 494 531 l 494 0 l 713 0 l 713 501 b 826 565 731 528 764 565 b 914 472 888 565 914 531 l 914 0 z m 719 1072 l 489 1072 l 489 842 l 719 842 z "},"ń":{"ha":806,"x_min":0,"x_max":0,"o":"m 739 0 l 739 499 b 511 754 739 632 678 754 b 275 642 397 754 321 707 l 258 736 l 63 736 l 75 528 l 75 0 l 294 0 l 294 496 b 424 565 311 522 354 565 b 521 463 499 565 521 515 l 521 0 z m 425 1083 l 299 828 l 515 828 l 664 1083 z "},"ň":{"ha":806,"x_min":0,"x_max":0,"o":"m 739 0 l 739 499 b 511 754 739 632 678 754 b 275 642 397 754 321 707 l 258 736 l 63 736 l 75 528 l 75 0 l 294 0 l 294 496 b 424 565 311 522 354 565 b 521 463 499 565 521 515 l 521 0 z m 115 1083 l 301 828 l 513 828 l 699 1083 l 507 1083 l 407 968 l 307 1083 z "},"ņ":{"ha":806,"x_min":0,"x_max":0,"o":"m 739 0 l 739 499 b 511 754 739 632 678 754 b 275 642 397 754 321 707 l 258 736 l 63 736 l 75 528 l 75 0 l 294 0 l 294 496 b 424 565 311 522 354 565 b 521 463 499 565 521 515 l 521 0 z m 506 -61 l 308 -61 l 308 -189 l 418 -189 b 301 -239 400 -226 360 -239 l 301 -314 b 506 -140 439 -314 506 -264 z "},"ñ":{"ha":806,"x_min":0,"x_max":0,"o":"m 739 0 l 739 499 b 511 754 739 632 678 754 b 275 642 397 754 321 707 l 258 736 l 63 736 l 75 528 l 75 0 l 294 0 l 294 496 b 424 565 311 522 354 565 b 521 463 499 565 521 515 l 521 0 z m 540 1072 b 497 1021 540 1035 522 1021 b 282 1093 442 1021 371 1093 b 128 872 196 1093 128 1028 l 274 872 b 317 924 274 910 292 924 b 532 851 372 924 443 851 b 686 1072 618 851 686 917 z "},"ŋ":{"ha":806,"x_min":0,"x_max":0,"o":"m 519 1 b 411 -107 519 -89 476 -107 b 343 -97 386 -107 351 -101 l 343 -278 b 463 -296 356 -285 396 -296 b 739 -22 626 -296 739 -225 l 739 499 b 511 754 739 632 678 754 b 275 642 397 754 321 707 l 258 736 l 63 736 l 75 528 l 75 0 l 294 0 l 294 496 b 424 565 311 522 354 565 b 519 463 499 565 519 515 z "},"ó":{"ha":772,"x_min":0,"x_max":0,"o":"m 386 -18 b 731 343 624 -18 731 131 l 731 393 b 386 754 731 606 624 754 b 42 393 150 754 42 606 l 42 343 b 386 -18 42 131 150 -18 z m 386 171 b 261 343 300 171 261 235 l 261 393 b 386 565 261 501 300 565 b 511 393 474 565 511 501 l 511 343 b 386 171 511 235 474 171 z m 404 1083 l 278 828 l 494 828 l 643 1083 z "},"ŏ":{"ha":772,"x_min":0,"x_max":0,"o":"m 386 -18 b 731 343 624 -18 731 131 l 731 393 b 386 754 731 606 624 754 b 42 393 150 754 42 606 l 42 343 b 386 -18 42 131 150 -18 z m 386 808 b 646 1083 581 808 649 925 l 489 1083 b 386 975 489 1001 446 975 b 283 1083 326 975 283 1001 l 126 1083 b 386 808 124 925 192 808 z m 386 171 b 261 343 300 171 261 235 l 261 393 b 386 565 261 501 300 565 b 511 393 474 565 511 501 l 511 343 b 386 171 511 235 474 171 z "},"ô":{"ha":772,"x_min":0,"x_max":0,"o":"m 386 -18 b 731 343 624 -18 731 131 l 731 393 b 386 754 731 606 624 754 b 42 393 150 754 42 606 l 42 343 b 386 -18 42 131 150 -18 z m 286 828 l 386 942 l 486 828 l 678 828 l 492 1083 l 281 1083 l 94 828 z m 386 171 b 261 343 300 171 261 235 l 261 393 b 386 565 261 501 300 565 b 511 393 474 565 511 501 l 511 343 b 386 171 511 235 474 171 z "},"ö":{"ha":772,"x_min":0,"x_max":0,"o":"m 386 -18 b 731 343 624 -18 731 131 l 731 393 b 386 754 731 606 624 754 b 42 393 150 754 42 606 l 42 343 b 386 -18 42 131 150 -18 z m 386 171 b 261 343 300 171 261 235 l 261 393 b 386 565 261 501 300 565 b 511 393 474 565 511 501 l 511 343 b 386 171 511 235 474 171 z m 351 1072 l 122 1072 l 122 842 l 351 842 z m 650 1072 l 421 1072 l 421 842 l 650 842 z "},"ò":{"ha":772,"x_min":0,"x_max":0,"o":"m 386 -18 b 731 343 624 -18 731 131 l 731 393 b 386 754 731 606 624 754 b 42 393 150 754 42 606 l 42 343 b 386 -18 42 131 150 -18 z m 386 171 b 261 343 300 171 261 235 l 261 393 b 386 565 261 501 300 565 b 511 393 474 565 511 501 l 511 343 b 386 171 511 235 474 171 z m 129 1083 l 278 828 l 494 828 l 368 1083 z "},"ő":{"ha":772,"x_min":0,"x_max":0,"o":"m 386 -18 b 731 343 624 -18 731 131 l 731 393 b 386 754 731 606 624 754 b 42 393 150 754 42 606 l 42 343 b 386 -18 42 131 150 -18 z m 386 171 b 261 343 300 171 261 235 l 261 393 b 386 565 261 501 300 565 b 511 393 474 565 511 501 l 511 343 b 386 171 511 235 474 171 z m 282 1083 l 189 828 l 360 828 l 476 1083 z m 538 1083 l 411 828 l 582 828 l 731 1083 z "},"ō":{"ha":772,"x_min":0,"x_max":0,"o":"m 386 -18 b 731 343 624 -18 731 131 l 731 393 b 386 754 731 606 624 754 b 42 393 150 754 42 606 l 42 343 b 386 -18 42 131 150 -18 z m 386 171 b 261 343 300 171 261 235 l 261 393 b 386 565 261 501 300 565 b 511 393 474 565 511 501 l 511 343 b 386 171 511 235 474 171 z m 178 860 l 594 860 l 594 1051 l 178 1051 z "},"õ":{"ha":772,"x_min":0,"x_max":0,"o":"m 386 -18 b 731 343 624 -18 731 131 l 731 393 b 386 754 731 606 624 754 b 42 393 150 754 42 606 l 42 343 b 386 -18 42 131 150 -18 z m 519 1072 b 476 1021 519 1035 501 1021 b 261 1093 421 1021 350 1093 b 107 872 175 1093 107 1028 l 253 872 b 296 924 253 910 271 924 b 511 851 351 924 422 851 b 665 1072 597 851 665 917 z m 386 171 b 261 343 300 171 261 235 l 261 393 b 386 565 261 501 300 565 b 511 393 474 565 511 501 l 511 343 b 386 171 511 235 474 171 z "},"ṗ":{"ha":797,"x_min":0,"x_max":0,"o":"m 482 -18 b 756 343 683 -18 756 131 l 756 393 b 482 754 756 606 683 754 b 272 646 379 754 314 708 l 257 736 l 61 736 l 74 528 l 74 -278 l 293 -278 l 293 63 b 482 -18 335 14 394 -18 z m 293 496 b 418 565 311 522 353 565 b 536 393 503 565 536 501 l 536 343 b 418 171 536 235 503 171 b 293 240 353 171 311 214 z m 529 1072 l 299 1072 l 299 842 l 529 842 z "},"ŕ":{"ha":535,"x_min":0,"x_max":0,"o":"m 469 754 b 274 650 383 754 317 711 l 258 736 l 63 736 l 75 528 l 75 0 l 294 0 l 294 478 b 453 542 314 506 364 542 l 490 542 l 490 753 b 469 754 485 754 476 754 z m 300 1083 l 174 828 l 390 828 l 539 1083 z "},"ř":{"ha":535,"x_min":0,"x_max":0,"o":"m 469 754 b 274 650 383 754 317 711 l 258 736 l 63 736 l 75 528 l 75 0 l 294 0 l 294 478 b 453 542 314 506 364 542 l 490 542 l 490 753 b 469 754 485 754 476 754 z m -10 1083 l 176 828 l 388 828 l 574 1083 l 382 1083 l 282 968 l 182 1083 z "},"ŗ":{"ha":535,"x_min":0,"x_max":0,"o":"m 469 754 b 274 650 383 754 317 711 l 258 736 l 63 736 l 75 528 l 75 0 l 294 0 l 294 478 b 453 542 314 506 364 542 l 490 542 l 490 753 b 469 754 485 754 476 754 z m 283 -61 l 86 -61 l 86 -189 l 196 -189 b 79 -239 178 -226 138 -239 l 79 -314 b 283 -140 217 -314 283 -264 z "},"ś":{"ha":733,"x_min":0,"x_max":0,"o":"m 367 149 b 267 233 293 149 267 185 l 49 233 l 49 226 b 367 -18 49 83 151 -18 b 686 229 579 -18 686 76 l 686 242 b 379 450 686 397 564 435 b 274 521 294 457 274 476 b 367 588 274 561 306 588 b 461 494 433 588 461 553 l 676 494 l 676 501 b 367 754 676 660 583 754 b 57 514 192 754 57 683 l 57 501 b 356 294 57 363 147 311 b 465 221 442 288 465 267 b 367 149 465 179 438 149 z m 385 1083 l 258 828 l 475 828 l 624 1083 z "},"š":{"ha":733,"x_min":0,"x_max":0,"o":"m 367 149 b 267 233 293 149 267 185 l 49 233 l 49 226 b 367 -18 49 83 151 -18 b 686 229 579 -18 686 76 l 686 242 b 379 450 686 397 564 435 b 274 521 294 457 274 476 b 367 588 274 561 306 588 b 461 494 433 588 461 553 l 676 494 l 676 501 b 367 754 676 660 583 754 b 57 514 192 754 57 683 l 57 501 b 356 294 57 363 147 311 b 465 221 442 288 465 267 b 367 149 465 179 438 149 z m 75 1083 l 261 828 l 472 828 l 658 1083 l 467 1083 l 367 968 l 267 1083 z "},"ş":{"ha":733,"x_min":0,"x_max":0,"o":"m 219 -264 b 368 -299 246 -281 300 -299 b 535 -176 478 -299 535 -256 b 396 -56 535 -99 474 -61 l 410 -17 b 686 229 593 -4 686 88 l 686 242 b 379 450 686 397 564 435 b 274 521 294 457 274 476 b 367 588 274 561 306 588 b 461 494 433 588 461 553 l 676 494 l 676 501 b 367 754 676 660 583 754 b 57 514 192 754 57 683 l 57 501 b 356 294 57 363 147 311 b 465 221 442 288 465 267 b 367 149 465 179 438 149 b 267 233 293 149 267 185 l 49 233 l 49 226 b 310 -15 49 96 133 0 l 276 -100 l 297 -139 b 350 -132 297 -139 325 -132 b 417 -164 394 -132 417 -143 b 351 -196 417 -183 400 -196 b 251 -172 315 -196 274 -186 z "},"ŝ":{"ha":733,"x_min":0,"x_max":0,"o":"m 367 149 b 267 233 293 149 267 185 l 49 233 l 49 226 b 367 -18 49 83 151 -18 b 686 229 579 -18 686 76 l 686 242 b 379 450 686 397 564 435 b 274 521 294 457 274 476 b 367 588 274 561 306 588 b 461 494 433 588 461 553 l 676 494 l 676 501 b 367 754 676 660 583 754 b 57 514 192 754 57 683 l 57 501 b 356 294 57 363 147 311 b 465 221 442 288 465 267 b 367 149 465 179 438 149 z m 267 828 l 367 942 l 467 828 l 658 828 l 472 1083 l 261 1083 l 75 828 z "},"ș":{"ha":733,"x_min":0,"x_max":0,"o":"m 367 149 b 267 233 293 149 267 185 l 49 233 l 49 226 b 367 -18 49 83 151 -18 b 686 229 579 -18 686 76 l 686 242 b 379 450 686 397 564 435 b 274 521 294 457 274 476 b 367 588 274 561 306 588 b 461 494 433 588 461 553 l 676 494 l 676 501 b 367 754 676 660 583 754 b 57 514 192 754 57 683 l 57 501 b 356 294 57 363 147 311 b 465 221 442 288 465 267 b 367 149 465 179 438 149 z m 465 -61 l 268 -61 l 268 -189 l 378 -189 b 261 -239 360 -226 319 -239 l 261 -314 b 465 -140 399 -314 465 -264 z "},"ŧ":{"ha":599,"x_min":0,"x_max":0,"o":"m 358 736 l 358 944 l 139 944 l 139 736 l 26 736 l 26 544 l 139 544 l 139 447 l 49 447 l 49 289 l 139 289 l 139 256 b 415 -18 139 53 250 -18 b 533 0 482 -18 521 -7 l 533 181 b 467 171 525 176 490 171 b 358 279 400 171 358 189 l 358 289 l 492 289 l 492 447 l 358 447 l 358 544 l 547 544 l 547 736 z "},"ť":{"ha":599,"x_min":0,"x_max":0,"o":"m 358 736 l 358 944 l 139 944 l 139 736 l 26 736 l 26 544 l 139 544 l 139 256 b 415 -18 139 53 250 -18 b 533 0 482 -18 521 -7 l 533 181 b 467 171 525 176 490 171 b 358 279 400 171 358 189 l 358 544 l 547 544 l 547 736 z m 436 1111 l 436 828 l 533 828 l 569 1111 z "},"ţ":{"ha":599,"x_min":0,"x_max":0,"o":"m 358 736 l 358 944 l 139 944 l 139 736 l 26 736 l 26 544 l 139 544 l 139 256 b 415 -18 139 53 250 -18 b 533 0 482 -18 521 -7 l 533 181 b 467 171 525 176 490 171 b 358 279 400 171 358 189 l 358 544 l 547 544 l 547 736 z m 429 -61 l 232 -61 l 232 -189 l 342 -189 b 225 -239 324 -226 283 -239 l 225 -314 b 429 -140 363 -314 429 -264 z "},"ṫ":{"ha":599,"x_min":0,"x_max":0,"o":"m 358 736 l 358 944 l 139 944 l 139 736 l 26 736 l 26 544 l 139 544 l 139 256 b 415 -18 139 53 250 -18 b 533 0 482 -18 521 -7 l 533 181 b 467 171 525 176 490 171 b 358 279 400 171 358 189 l 358 544 l 547 544 l 547 736 z m 342 1146 l 156 1146 l 156 1007 l 342 1007 z "},"ú":{"ha":806,"x_min":0,"x_max":0,"o":"m 67 736 l 67 238 b 294 -18 67 104 126 -18 b 531 93 407 -18 483 28 l 547 0 l 743 0 l 731 208 l 731 736 l 511 736 l 511 240 b 382 171 493 214 451 171 b 285 274 307 171 285 221 l 285 736 z m 415 1083 l 289 828 l 506 828 l 654 1083 z "},"ŭ":{"ha":806,"x_min":0,"x_max":0,"o":"m 67 736 l 67 238 b 294 -18 67 104 126 -18 b 531 93 407 -18 483 28 l 547 0 l 743 0 l 731 208 l 731 736 l 511 736 l 511 240 b 382 171 493 214 451 171 b 285 274 307 171 285 221 l 285 736 z m 397 808 b 657 1083 592 808 660 925 l 500 1083 b 397 975 500 1001 457 975 b 294 1083 338 975 294 1001 l 138 1083 b 397 808 135 925 203 808 z "},"û":{"ha":806,"x_min":0,"x_max":0,"o":"m 67 736 l 67 238 b 294 -18 67 104 126 -18 b 531 93 407 -18 483 28 l 547 0 l 743 0 l 731 208 l 731 736 l 511 736 l 511 240 b 382 171 493 214 451 171 b 285 274 307 171 285 221 l 285 736 z m 297 828 l 397 942 l 497 828 l 689 828 l 503 1083 l 292 1083 l 106 828 z "},"ü":{"ha":806,"x_min":0,"x_max":0,"o":"m 67 736 l 67 238 b 294 -18 67 104 126 -18 b 531 93 407 -18 483 28 l 547 0 l 743 0 l 731 208 l 731 736 l 511 736 l 511 240 b 382 171 493 214 451 171 b 285 274 307 171 285 221 l 285 736 z m 661 1072 l 432 1072 l 432 842 l 661 842 z m 363 1072 l 133 1072 l 133 842 l 363 842 z "},"ù":{"ha":806,"x_min":0,"x_max":0,"o":"m 67 736 l 67 238 b 294 -18 67 104 126 -18 b 531 93 407 -18 483 28 l 547 0 l 743 0 l 731 208 l 731 736 l 511 736 l 511 240 b 382 171 493 214 451 171 b 285 274 307 171 285 221 l 285 736 z m 140 1083 l 289 828 l 506 828 l 379 1083 z "},"ű":{"ha":806,"x_min":0,"x_max":0,"o":"m 67 736 l 67 238 b 294 -18 67 104 126 -18 b 531 93 407 -18 483 28 l 547 0 l 743 0 l 731 208 l 731 736 l 511 736 l 511 240 b 382 171 493 214 451 171 b 285 274 307 171 285 221 l 285 736 z m 293 1083 l 200 828 l 371 828 l 488 1083 z m 549 1083 l 422 828 l 593 828 l 742 1083 z "},"ū":{"ha":806,"x_min":0,"x_max":0,"o":"m 67 736 l 67 238 b 294 -18 67 104 126 -18 b 531 93 407 -18 483 28 l 547 0 l 743 0 l 731 208 l 731 736 l 511 736 l 511 240 b 382 171 493 214 451 171 b 285 274 307 171 285 221 l 285 736 z m 189 860 l 606 860 l 606 1051 l 189 1051 z "},"ų":{"ha":806,"x_min":0,"x_max":0,"o":"m 67 736 l 67 238 b 294 -18 67 104 126 -18 b 531 93 407 -18 483 28 l 549 -7 b 494 -149 515 -44 494 -93 b 682 -299 494 -250 569 -299 b 825 -264 739 -299 796 -282 l 775 -131 b 717 -146 764 -137 743 -146 b 657 -96 681 -146 657 -125 b 743 0 657 -54 689 -24 l 731 208 l 731 736 l 511 736 l 511 240 b 382 171 493 214 451 171 b 285 274 307 171 285 221 l 285 736 z "},"ů":{"ha":806,"x_min":0,"x_max":0,"o":"m 67 736 l 67 238 b 294 -18 67 104 126 -18 b 531 93 407 -18 483 28 l 547 0 l 743 0 l 731 208 l 731 736 l 511 736 l 511 240 b 382 171 493 214 451 171 b 285 274 307 171 285 221 l 285 736 z m 251 956 b 397 808 251 875 317 808 b 543 956 478 808 543 875 b 397 1101 543 1036 478 1101 b 251 956 317 1101 251 1036 z m 326 956 b 397 1025 326 994 358 1025 b 468 956 436 1025 468 994 b 397 885 468 917 436 885 b 326 956 358 885 326 917 z "},"ũ":{"ha":806,"x_min":0,"x_max":0,"o":"m 67 736 l 67 238 b 294 -18 67 104 126 -18 b 531 93 407 -18 483 28 l 547 0 l 743 0 l 731 208 l 731 736 l 511 736 l 511 240 b 382 171 493 214 451 171 b 285 274 307 171 285 221 l 285 736 z m 531 1072 b 488 1021 531 1035 513 1021 b 272 1093 432 1021 361 1093 b 118 872 186 1093 118 1028 l 264 872 b 307 924 264 910 282 924 b 522 851 363 924 433 851 b 676 1072 608 851 676 917 z "},"ẃ":{"ha":1064,"x_min":0,"x_max":0,"o":"m 532 507 l 635 0 l 910 0 l 1038 736 l 822 736 l 767 238 l 663 736 l 400 736 l 297 238 l 242 736 l 26 736 l 153 0 l 429 0 z m 550 1083 l 424 828 l 640 828 l 789 1083 z "},"ŵ":{"ha":1064,"x_min":0,"x_max":0,"o":"m 532 507 l 635 0 l 910 0 l 1038 736 l 822 736 l 767 238 l 663 736 l 400 736 l 297 238 l 242 736 l 26 736 l 153 0 l 429 0 z m 432 828 l 532 942 l 632 828 l 824 828 l 638 1083 l 426 1083 l 240 828 z "},"ẅ":{"ha":1064,"x_min":0,"x_max":0,"o":"m 532 507 l 635 0 l 910 0 l 1038 736 l 822 736 l 767 238 l 663 736 l 400 736 l 297 238 l 242 736 l 26 736 l 153 0 l 429 0 z m 497 1072 l 268 1072 l 268 842 l 497 842 z m 796 1072 l 567 1072 l 567 842 l 796 842 z "},"ẁ":{"ha":1064,"x_min":0,"x_max":0,"o":"m 532 507 l 635 0 l 910 0 l 1038 736 l 822 736 l 767 238 l 663 736 l 400 736 l 297 238 l 242 736 l 26 736 l 153 0 l 429 0 z m 275 1083 l 424 828 l 640 828 l 514 1083 z "},"ý":{"ha":765,"x_min":0,"x_max":0,"o":"m 385 267 l 246 736 l 7 736 l 265 39 l 147 -278 l 408 -278 l 503 39 l 763 736 l 524 736 z m 403 1083 l 276 828 l 493 828 l 642 1083 z "},"ŷ":{"ha":765,"x_min":0,"x_max":0,"o":"m 385 267 l 246 736 l 7 736 l 265 39 l 147 -278 l 408 -278 l 503 39 l 763 736 l 524 736 z m 285 828 l 385 942 l 485 828 l 676 828 l 490 1083 l 279 1083 l 93 828 z "},"ÿ":{"ha":765,"x_min":0,"x_max":0,"o":"m 385 267 l 246 736 l 7 736 l 265 39 l 147 -278 l 408 -278 l 503 39 l 763 736 l 524 736 z m 649 1072 l 419 1072 l 419 842 l 649 842 z m 350 1072 l 121 1072 l 121 842 l 350 842 z "},"ỳ":{"ha":765,"x_min":0,"x_max":0,"o":"m 385 267 l 246 736 l 7 736 l 265 39 l 147 -278 l 408 -278 l 503 39 l 763 736 l 524 736 z m 128 1083 l 276 828 l 493 828 l 367 1083 z "},"ȳ":{"ha":765,"x_min":0,"x_max":0,"o":"m 385 267 l 246 736 l 7 736 l 265 39 l 147 -278 l 408 -278 l 503 39 l 763 736 l 524 736 z m 176 860 l 593 860 l 593 1051 l 176 1051 z "},"ĳ":{"ha":668,"x_min":0,"x_max":0,"o":"m 375 1 b 267 -107 375 -89 332 -107 b 199 -97 242 -107 207 -101 l 199 -278 b 318 -296 211 -285 251 -296 b 594 -22 482 -296 594 -225 l 594 736 l 375 736 z m 75 0 l 294 0 l 294 736 l 75 736 z m 300 1072 l 69 1072 l 69 840 l 300 840 z m 600 1072 l 369 1072 l 369 840 l 600 840 z "},"ź":{"ha":693,"x_min":0,"x_max":0,"o":"m 364 1083 l 238 828 l 454 828 l 603 1083 z m 33 150 l 33 0 l 660 0 l 660 192 l 474 192 l 321 188 l 646 586 l 646 736 l 47 736 l 47 544 l 206 544 l 358 549 z "},"ž":{"ha":693,"x_min":0,"x_max":0,"o":"m 54 1083 l 240 828 l 451 828 l 638 1083 l 446 1083 l 346 968 l 246 1083 z m 33 150 l 33 0 l 660 0 l 660 192 l 474 192 l 321 188 l 646 586 l 646 736 l 47 736 l 47 544 l 206 544 l 358 549 z "},"ż":{"ha":693,"x_min":0,"x_max":0,"o":"m 33 150 l 33 0 l 660 0 l 660 192 l 474 192 l 321 188 l 646 586 l 646 736 l 47 736 l 47 544 l 206 544 l 358 549 z m 461 1072 l 231 1072 l 231 842 l 461 842 z "},"ª":{"ha":596,"x_min":0,"x_max":0,"o":"m 388 538 l 560 538 l 550 693 l 550 890 b 304 1101 550 1026 492 1101 b 60 915 117 1101 60 1015 l 60 906 l 240 906 b 299 958 240 932 253 958 b 358 900 340 958 356 939 l 242 882 b 39 703 118 864 39 822 l 39 693 b 211 524 39 604 81 524 b 376 593 285 524 339 551 z m 557 251 l 557 417 l 54 417 l 54 251 z m 282 676 b 229 722 242 676 229 699 l 229 728 b 282 779 229 753 244 774 l 358 792 l 358 707 b 282 676 342 693 314 676 z "},"º":{"ha":615,"x_min":0,"x_max":0,"o":"m 572 792 l 572 833 b 307 1103 572 994 489 1103 b 43 833 125 1103 43 994 l 43 792 b 307 524 43 632 125 524 b 572 792 489 524 572 632 z m 56 251 l 560 251 l 560 417 l 56 417 z m 233 792 l 233 833 b 307 939 233 901 256 939 b 382 833 360 939 382 901 l 382 792 b 307 688 382 725 360 688 b 233 792 256 688 233 725 z "},"æ":{"ha":1193,"x_min":0,"x_max":0,"o":"m 1164 289 l 1164 388 b 825 754 1164 600 1057 754 b 608 672 728 754 657 724 b 382 754 568 724 499 754 b 69 506 139 754 69 633 l 69 493 l 276 493 b 375 588 276 542 296 588 b 475 479 450 588 474 551 l 307 453 b 42 217 153 429 42 376 l 42 203 b 283 -18 42 85 107 -18 b 563 85 393 -18 492 24 b 832 -18 621 19 710 -18 b 1164 231 1044 -18 1164 90 l 1164 236 l 957 236 b 833 149 957 192 910 149 b 694 289 751 149 703 186 z m 488 226 b 347 154 471 201 424 154 b 260 228 283 154 260 192 l 260 238 b 351 325 260 282 283 314 l 475 344 b 489 228 475 303 481 264 z m 819 588 b 943 447 897 588 936 543 l 696 447 b 819 588 703 543 742 588 z "},"‰":{"ha":1946,"x_min":0,"x_max":0,"o":"m 799 260 l 799 243 b 1063 -18 799 74 910 -18 b 1325 243 1214 -18 1325 74 l 1325 260 b 1063 522 1325 429 1214 522 b 799 260 910 522 799 429 z m 1382 260 l 1382 243 b 1646 -18 1382 74 1493 -18 b 1908 243 1797 -18 1908 74 l 1908 260 b 1646 522 1908 429 1797 522 b 1382 260 1493 522 1382 429 z m 961 243 l 961 261 b 1058 358 961 319 1000 358 l 1067 358 b 1163 261 1125 358 1163 319 l 1163 243 b 1067 144 1163 185 1125 144 l 1058 144 b 961 243 1000 144 961 185 z m 1544 243 l 1544 261 b 1642 358 1544 319 1583 358 l 1650 358 b 1746 261 1708 358 1746 319 l 1746 243 b 1650 144 1746 185 1708 144 l 1642 144 b 1544 243 1583 144 1544 185 z m 401 840 l 401 822 b 306 725 401 764 364 725 l 297 725 b 200 822 239 725 200 764 l 200 840 b 297 939 200 899 239 939 l 306 939 b 401 840 364 939 401 899 z m 411 1082 b 301 1101 378 1094 340 1101 b 38 840 149 1101 38 1010 l 38 824 b 301 561 38 654 149 561 b 564 824 453 561 564 654 l 564 840 b 563 872 564 851 563 863 b 628 868 583 869 604 868 b 726 879 672 868 707 875 l 360 0 l 551 0 l 961 983 l 961 1088 b 668 1043 917 1072 790 1043 b 411 1082 551 1043 490 1053 z "},"€":{"ha":833,"x_min":0,"x_max":0,"o":"m 135 429 b 479 -18 151 115 267 -18 b 781 335 690 -18 781 89 l 781 347 l 589 347 b 492 178 589 232 556 178 l 479 178 b 365 429 406 178 374 267 l 550 429 l 646 625 l 364 625 b 479 906 369 806 401 906 l 492 906 b 589 694 563 906 589 842 l 781 694 l 781 746 b 479 1101 781 994 690 1101 b 133 625 260 1101 144 960 l 43 625 l 43 429 z "},"⁰":{"ha":417,"x_min":0,"x_max":0,"o":"m 399 686 l 399 939 b 208 1101 399 1033 326 1101 b 18 939 90 1101 18 1033 l 18 686 b 208 524 18 592 90 524 b 399 686 326 524 399 592 z m 185 689 l 185 936 b 206 957 185 947 193 957 l 211 957 b 232 936 224 957 232 947 l 232 689 b 211 668 232 678 224 668 l 206 668 b 185 689 193 668 185 678 z "},"¹":{"ha":417,"x_min":0,"x_max":0,"o":"m 403 542 l 403 685 l 304 685 l 304 1085 l 179 1085 l 7 968 l 89 850 l 138 882 l 138 685 l 38 685 l 38 542 z "},"²":{"ha":417,"x_min":0,"x_max":0,"o":"m 394 685 l 249 685 l 335 781 b 394 915 374 825 394 856 l 394 940 b 207 1101 394 999 358 1101 b 18 924 54 1101 18 999 l 18 903 l 185 903 b 204 957 185 938 190 957 l 208 957 b 228 919 222 957 228 935 l 228 904 b 210 860 228 888 221 872 l 18 647 l 18 542 l 394 542 z "},"³":{"ha":417,"x_min":0,"x_max":0,"o":"m 182 715 l 15 715 l 15 704 b 208 524 15 594 90 524 b 400 683 326 524 400 589 l 400 697 b 328 818 400 760 365 797 b 394 936 364 838 394 874 l 394 950 b 207 1101 394 1001 358 1101 b 18 915 54 1101 18 999 l 18 903 l 185 903 b 204 957 185 938 190 957 l 208 957 b 228 922 222 957 228 932 l 228 919 b 207 885 228 897 222 885 l 139 885 l 139 751 l 208 751 b 235 717 226 751 235 738 l 235 710 b 211 668 235 682 221 668 l 207 668 b 182 715 197 668 182 679 z "},"⁴":{"ha":417,"x_min":0,"x_max":0,"o":"m 357 542 l 357 636 l 401 636 l 401 781 l 357 781 l 357 1083 l 189 1083 l 14 764 l 14 636 l 190 636 l 190 542 z m 190 860 l 190 781 l 147 781 z "},"⁵":{"ha":417,"x_min":0,"x_max":0,"o":"m 15 715 l 15 704 b 208 524 15 594 90 524 b 400 704 326 524 400 586 l 400 721 b 233 894 400 822 344 894 b 169 885 210 894 189 890 l 172 939 l 390 939 l 390 1083 l 35 1083 l 22 792 l 167 743 b 200 758 176 753 190 758 l 201 758 b 235 717 222 758 235 746 l 235 710 b 210 668 235 682 222 668 l 204 668 b 182 715 194 668 182 679 z "},"⁶":{"ha":417,"x_min":0,"x_max":0,"o":"m 386 1101 b 94 999 257 1101 158 1078 b 15 753 35 924 15 839 l 15 740 b 207 524 15 625 74 524 b 400 706 342 524 400 604 l 400 713 b 258 883 400 821 343 883 b 196 865 235 883 214 876 b 221 908 203 883 210 897 b 386 957 251 939 307 957 z m 206 740 l 211 740 b 235 710 221 740 235 731 l 235 703 b 211 668 235 681 221 668 l 206 668 b 182 722 196 668 182 679 l 182 725 b 206 740 189 735 196 740 z "},"⁷":{"ha":417,"x_min":0,"x_max":0,"o":"m 11 889 l 156 889 l 156 939 l 222 939 l 50 542 l 228 542 l 406 981 l 406 1083 l 11 1083 z "},"⁸":{"ha":417,"x_min":0,"x_max":0,"o":"m 208 524 b 400 683 326 524 400 589 l 400 699 b 332 818 400 758 368 797 b 394 936 365 839 394 876 l 394 950 b 208 1101 394 1001 358 1101 b 22 950 58 1101 22 1001 l 22 936 b 85 818 22 876 51 839 b 17 699 49 797 17 758 l 17 683 b 208 524 17 589 90 524 z m 206 746 l 211 746 b 235 708 229 746 235 731 l 235 703 b 211 665 235 681 226 665 l 206 665 b 182 703 190 665 182 681 l 182 708 b 206 746 182 731 188 746 z m 210 890 l 207 890 b 189 922 194 890 189 900 l 189 928 b 207 960 189 950 194 960 l 210 960 b 228 928 222 960 228 950 l 228 922 b 210 890 228 900 222 890 z "},"⁹":{"ha":417,"x_min":0,"x_max":0,"o":"m 31 524 b 322 626 160 524 258 547 b 401 872 382 701 401 786 l 401 885 b 210 1101 401 1000 343 1101 b 17 919 75 1101 17 1021 l 17 913 b 158 742 17 804 74 742 b 221 760 182 742 203 749 b 196 717 214 742 207 728 b 31 668 165 686 110 668 z m 206 885 b 182 915 196 885 182 894 l 182 922 b 206 957 182 944 196 957 l 211 957 b 235 903 221 957 235 946 l 235 900 b 211 885 228 890 221 885 z "},"⁺":{"ha":417,"x_min":0,"x_max":0,"o":"m 136 996 l 136 885 l 25 885 l 25 740 l 136 740 l 136 629 l 281 629 l 281 740 l 392 740 l 392 885 l 281 885 l 281 996 z "},"⁻":{"ha":417,"x_min":0,"x_max":0,"o":"m 25 740 l 392 740 l 392 885 l 25 885 z "},"⁼":{"ha":417,"x_min":0,"x_max":0,"o":"m 25 825 l 392 825 l 392 969 l 25 969 z m 25 656 l 392 656 l 392 800 l 25 800 z "},"⁽":{"ha":285,"x_min":0,"x_max":0,"o":"m 21 806 b 103 542 21 671 60 586 l 274 542 b 186 806 239 592 186 686 l 186 819 b 274 1083 186 939 239 1033 l 103 1083 b 21 819 60 1038 21 953 z "},"⁾":{"ha":285,"x_min":0,"x_max":0,"o":"m 263 819 b 181 1083 263 953 224 1038 l 11 1083 b 97 819 46 1033 97 939 l 97 806 b 11 542 97 686 46 592 l 181 542 b 263 806 224 586 263 671 z "},"⁄":{"ha":278,"x_min":0,"x_max":0,"o":"m -168 0 l 632 1083 l 446 1083 l -354 0 z "},"₀":{"ha":417,"x_min":0,"x_max":0,"o":"m 399 144 l 399 397 b 208 560 399 492 326 560 b 18 397 90 560 18 492 l 18 144 b 208 -18 18 50 90 -18 b 399 144 326 -18 399 50 z m 185 147 l 185 394 b 206 415 185 406 193 415 l 211 415 b 232 394 224 415 232 406 l 232 147 b 211 126 232 136 224 126 l 206 126 b 185 147 193 126 185 136 z "},"₁":{"ha":417,"x_min":0,"x_max":0,"o":"m 403 0 l 403 143 l 304 143 l 304 543 l 179 543 l 7 426 l 89 308 l 138 340 l 138 143 l 38 143 l 38 0 z "},"₂":{"ha":417,"x_min":0,"x_max":0,"o":"m 394 143 l 249 143 l 335 239 b 394 374 374 283 394 314 l 394 399 b 207 560 394 457 358 560 b 18 382 54 560 18 457 l 18 361 l 185 361 b 204 415 185 396 190 415 l 208 415 b 228 378 222 415 228 393 l 228 363 b 210 318 228 346 221 331 l 18 106 l 18 0 l 394 0 z "},"₃":{"ha":417,"x_min":0,"x_max":0,"o":"m 182 174 l 15 174 l 15 163 b 208 -18 15 53 90 -18 b 400 142 326 -18 400 47 l 400 156 b 328 276 400 218 365 256 b 394 394 364 296 394 332 l 394 408 b 207 560 394 460 358 560 b 18 374 54 560 18 457 l 18 361 l 185 361 b 204 415 185 396 190 415 l 208 415 b 228 381 222 415 228 390 l 228 378 b 207 343 228 356 222 343 l 139 343 l 139 210 l 208 210 b 235 175 226 210 235 196 l 235 168 b 211 126 235 140 221 126 l 207 126 b 182 174 197 126 182 138 z "},"₄":{"ha":417,"x_min":0,"x_max":0,"o":"m 357 0 l 357 94 l 401 94 l 401 239 l 357 239 l 357 542 l 189 542 l 14 222 l 14 94 l 190 94 l 190 0 z m 190 318 l 190 239 l 147 239 z "},"₅":{"ha":417,"x_min":0,"x_max":0,"o":"m 15 174 l 15 163 b 208 -18 15 53 90 -18 b 400 163 326 -18 400 44 l 400 179 b 233 353 400 281 344 353 b 169 343 210 353 189 349 l 172 397 l 390 397 l 390 542 l 35 542 l 22 250 l 167 201 b 200 217 176 211 190 217 l 201 217 b 235 175 222 217 235 204 l 235 168 b 210 126 235 140 222 126 l 204 126 b 182 174 194 126 182 138 z "},"₆":{"ha":417,"x_min":0,"x_max":0,"o":"m 386 560 b 94 457 257 560 158 536 b 15 211 35 382 15 297 l 15 199 b 207 -18 15 83 74 -18 b 400 164 342 -18 400 63 l 400 171 b 258 342 400 279 343 342 b 196 324 235 342 214 335 b 221 367 203 342 210 356 b 386 415 251 397 307 415 z m 206 199 l 211 199 b 235 168 221 199 235 189 l 235 161 b 211 126 235 139 221 126 l 206 126 b 182 181 196 126 182 138 l 182 183 b 206 199 189 193 196 199 z "},"₇":{"ha":417,"x_min":0,"x_max":0,"o":"m 11 347 l 156 347 l 156 397 l 222 397 l 50 0 l 228 0 l 406 439 l 406 542 l 11 542 z "},"₈":{"ha":417,"x_min":0,"x_max":0,"o":"m 208 -18 b 400 142 326 -18 400 47 l 400 157 b 332 276 400 217 368 256 b 394 394 365 297 394 335 l 394 408 b 208 560 394 460 358 560 b 22 408 58 560 22 460 l 22 394 b 85 276 22 335 51 297 b 17 157 49 256 17 217 l 17 142 b 208 -18 17 47 90 -18 z m 206 204 l 211 204 b 235 167 229 204 235 189 l 235 161 b 211 124 235 139 226 124 l 206 124 b 182 161 190 124 182 139 l 182 167 b 206 204 182 189 188 204 z m 210 349 l 207 349 b 189 381 194 349 189 358 l 189 386 b 207 418 189 408 194 418 l 210 418 b 228 386 222 418 228 408 l 228 381 b 210 349 228 358 222 349 z "},"₉":{"ha":417,"x_min":0,"x_max":0,"o":"m 31 -18 b 322 85 160 -18 258 6 b 401 331 382 160 401 244 l 401 343 b 210 560 401 458 343 560 b 17 378 75 560 17 479 l 17 371 b 158 200 17 263 74 200 b 221 218 182 200 203 207 b 196 175 214 200 207 186 b 31 126 165 144 110 126 z m 206 343 b 182 374 196 343 182 353 l 182 381 b 206 415 182 403 196 415 l 211 415 b 235 361 221 415 235 404 l 235 358 b 211 343 228 349 221 343 z "},"₊":{"ha":417,"x_min":0,"x_max":0,"o":"m 136 454 l 136 343 l 25 343 l 25 199 l 136 199 l 136 88 l 281 88 l 281 199 l 392 199 l 392 343 l 281 343 l 281 454 z "},"₋":{"ha":417,"x_min":0,"x_max":0,"o":"m 25 199 l 392 199 l 392 343 l 25 343 z "},"₌":{"ha":417,"x_min":0,"x_max":0,"o":"m 25 283 l 392 283 l 392 428 l 25 428 z m 25 114 l 392 114 l 392 258 l 25 258 z "},"₍":{"ha":285,"x_min":0,"x_max":0,"o":"m 21 264 b 103 0 21 129 60 44 l 274 0 b 186 264 239 50 186 144 l 186 278 b 274 542 186 397 239 492 l 103 542 b 21 278 60 496 21 411 z "},"₎":{"ha":285,"x_min":0,"x_max":0,"o":"m 263 278 b 181 542 263 411 224 496 l 11 542 b 97 278 46 492 97 397 l 97 264 b 11 0 97 144 46 50 l 181 0 b 263 264 224 44 263 129 z "},"":{"ha":417,"x_min":0,"x_max":0,"o":"m 399 -133 l 399 119 b 208 282 399 214 326 282 b 18 119 90 282 18 214 l 18 -133 b 208 -296 18 -228 90 -296 b 399 -133 326 -296 399 -228 z m 185 -131 l 185 117 b 206 138 185 128 193 138 l 211 138 b 232 117 224 138 232 128 l 232 -131 b 211 -151 232 -142 224 -151 l 206 -151 b 185 -131 193 -151 185 -142 z "},"":{"ha":417,"x_min":0,"x_max":0,"o":"m 403 -278 l 403 -135 l 304 -135 l 304 265 l 179 265 l 7 149 l 89 31 l 138 63 l 138 -135 l 38 -135 l 38 -278 z "},"":{"ha":417,"x_min":0,"x_max":0,"o":"m 394 -135 l 249 -135 l 335 -39 b 394 96 374 6 394 36 l 394 121 b 207 282 394 179 358 282 b 18 104 54 282 18 179 l 18 83 l 185 83 b 204 138 185 118 190 138 l 208 138 b 228 100 222 138 228 115 l 228 85 b 210 40 228 68 221 53 l 18 -172 l 18 -278 l 394 -278 z "},"":{"ha":417,"x_min":0,"x_max":0,"o":"m 182 -104 l 15 -104 l 15 -115 b 208 -296 15 -225 90 -296 b 400 -136 326 -296 400 -231 l 400 -122 b 328 -1 400 -58 365 -21 b 394 117 364 18 394 54 l 394 131 b 207 282 394 182 358 282 b 18 96 54 282 18 179 l 18 83 l 185 83 b 204 138 185 118 190 138 l 208 138 b 228 103 222 138 228 113 l 228 100 b 207 65 228 78 222 65 l 139 65 l 139 -68 l 208 -68 b 235 -103 226 -68 235 -82 l 235 -110 b 211 -151 235 -137 221 -151 l 207 -151 b 182 -104 197 -151 182 -140 z "},"":{"ha":417,"x_min":0,"x_max":0,"o":"m 357 -278 l 357 -183 l 401 -183 l 401 -39 l 357 -39 l 357 264 l 189 264 l 14 -56 l 14 -183 l 190 -183 l 190 -278 z m 190 40 l 190 -39 l 147 -39 z "},"":{"ha":417,"x_min":0,"x_max":0,"o":"m 15 -104 l 15 -115 b 208 -296 15 -225 90 -296 b 400 -115 326 -296 400 -233 l 400 -99 b 233 75 400 3 344 75 b 169 65 210 75 189 71 l 172 119 l 390 119 l 390 264 l 35 264 l 22 -28 l 167 -76 b 200 -61 176 -67 190 -61 l 201 -61 b 235 -103 222 -61 235 -74 l 235 -110 b 210 -151 235 -137 222 -151 l 204 -151 b 182 -104 194 -151 182 -140 z "},"":{"ha":417,"x_min":0,"x_max":0,"o":"m 386 282 b 94 179 257 282 158 258 b 15 -67 35 104 15 19 l 15 -79 b 207 -296 15 -194 74 -296 b 400 -114 342 -296 400 -215 l 400 -107 b 258 64 400 1 343 64 b 196 46 235 64 214 57 b 221 89 203 64 210 78 b 386 138 251 119 307 138 z m 206 -79 l 211 -79 b 235 -110 221 -79 235 -89 l 235 -117 b 211 -151 235 -139 221 -151 l 206 -151 b 182 -97 196 -151 182 -140 l 182 -94 b 206 -79 189 -83 196 -79 z "},"":{"ha":417,"x_min":0,"x_max":0,"o":"m 11 69 l 156 69 l 156 119 l 222 119 l 50 -278 l 228 -278 l 406 161 l 406 264 l 11 264 z "},"":{"ha":417,"x_min":0,"x_max":0,"o":"m 208 -296 b 400 -136 326 -296 400 -231 l 400 -121 b 332 0 400 -60 368 -22 b 394 117 365 19 394 57 l 394 131 b 208 282 394 182 358 282 b 22 131 58 282 22 182 l 22 117 b 85 0 22 57 51 19 b 17 -121 49 -22 17 -60 l 17 -136 b 208 -296 17 -231 90 -296 z m 206 -74 l 211 -74 b 235 -111 229 -74 235 -89 l 235 -117 b 211 -154 235 -139 226 -154 l 206 -154 b 182 -117 190 -154 182 -139 l 182 -111 b 206 -74 182 -89 188 -74 z m 210 71 l 207 71 b 189 103 194 71 189 81 l 189 108 b 207 140 189 131 194 140 l 210 140 b 228 108 222 140 228 131 l 228 103 b 210 71 228 81 222 71 z "},"":{"ha":417,"x_min":0,"x_max":0,"o":"m 31 -296 b 322 -193 160 -296 258 -272 b 401 53 382 -118 401 -33 l 401 65 b 210 282 401 181 343 282 b 17 100 75 282 17 201 l 17 93 b 158 -78 17 -15 74 -78 b 221 -60 182 -78 203 -71 b 196 -103 214 -78 207 -92 b 31 -151 165 -133 110 -151 z m 206 65 b 182 96 196 65 182 75 l 182 103 b 206 138 182 125 196 138 l 211 138 b 235 83 221 138 235 126 l 235 81 b 211 65 228 71 221 65 z "},"":{"ha":417,"x_min":0,"x_max":0,"o":"m 136 176 l 136 65 l 25 65 l 25 -79 l 136 -79 l 136 -190 l 281 -190 l 281 -79 l 392 -79 l 392 65 l 281 65 l 281 176 z "},"":{"ha":417,"x_min":0,"x_max":0,"o":"m 25 -79 l 392 -79 l 392 65 l 25 65 z "},"":{"ha":417,"x_min":0,"x_max":0,"o":"m 25 6 l 392 6 l 392 150 l 25 150 z m 25 -164 l 392 -164 l 392 -19 l 25 -19 z "},"":{"ha":285,"x_min":0,"x_max":0,"o":"m 21 -14 b 103 -278 21 -149 60 -233 l 274 -278 b 186 -14 239 -228 186 -133 l 186 0 b 274 264 186 119 239 214 l 103 264 b 21 0 60 218 21 133 z "},"":{"ha":285,"x_min":0,"x_max":0,"o":"m 263 0 b 181 264 263 133 224 218 l 11 264 b 97 0 46 214 97 119 l 97 -14 b 11 -278 97 -133 46 -228 l 181 -278 b 263 -14 224 -233 263 -149 z "},"":{"ha":417,"x_min":0,"x_max":0,"o":"m 324 232 l 93 232 l 93 0 l 324 0 z "},"":{"ha":417,"x_min":0,"x_max":0,"o":"m 324 232 l 93 232 l 93 0 l 210 0 b 86 -89 196 -60 153 -89 l 86 -199 b 324 49 243 -199 324 -114 z "},"":{"ha":417,"x_min":0,"x_max":0,"o":"m 324 232 l 93 232 l 93 0 l 324 0 z m 324 658 l 93 658 l 93 426 l 324 426 z "},"":{"ha":417,"x_min":0,"x_max":0,"o":"m 324 232 l 93 232 l 93 0 l 210 0 b 86 -89 196 -60 153 -89 l 86 -199 b 324 49 243 -199 324 -114 z m 324 658 l 93 658 l 93 426 l 324 426 z "},"№":{"ha":1564,"x_min":0,"x_max":0,"o":"m 871 1083 l 657 1083 l 657 629 l 664 411 l 315 1083 l 78 1083 l 78 0 l 290 0 l 290 454 l 283 672 l 633 0 l 871 0 z m 1521 792 l 1521 833 b 1256 1103 1521 994 1438 1103 b 992 833 1074 1103 992 994 l 992 792 b 1256 524 992 632 1074 524 b 1521 792 1438 524 1521 632 z m 1004 251 l 1508 251 l 1508 417 l 1004 417 z m 1182 792 l 1182 833 b 1256 939 1182 901 1204 939 b 1331 833 1308 939 1331 901 l 1331 792 b 1256 688 1331 725 1308 688 b 1182 792 1204 688 1182 725 z "},"⅟":{"ha":694,"x_min":0,"x_max":0,"o":"m 249 0 l 1049 1083 l 863 1083 l 63 0 z m 403 542 l 403 685 l 304 685 l 304 1085 l 179 1085 l 7 968 l 89 850 l 138 882 l 138 685 l 38 685 l 38 542 z "},"½":{"ha":1111,"x_min":0,"x_max":0,"o":"m 249 0 l 1049 1083 l 863 1083 l 63 0 z m 1089 143 l 943 143 l 1029 239 b 1089 374 1068 283 1089 314 l 1089 399 b 901 560 1089 457 1053 560 b 713 382 749 560 713 457 l 713 361 l 879 361 b 899 415 879 396 885 415 l 903 415 b 922 378 917 415 922 393 l 922 363 b 904 318 922 346 915 331 l 713 106 l 713 0 l 1089 0 z m 403 542 l 403 685 l 304 685 l 304 1085 l 179 1085 l 7 968 l 89 850 l 138 882 l 138 685 l 38 685 l 38 542 z "},"⅓":{"ha":1111,"x_min":0,"x_max":0,"o":"m 249 0 l 1049 1083 l 863 1083 l 63 0 z m 876 174 l 710 174 l 710 163 b 903 -18 710 53 785 -18 b 1094 142 1021 -18 1094 47 l 1094 156 b 1022 276 1094 218 1060 256 b 1089 394 1058 296 1089 332 l 1089 408 b 901 560 1089 460 1053 560 b 713 374 749 560 713 457 l 713 361 l 879 361 b 899 415 879 396 885 415 l 903 415 b 922 381 917 415 922 390 l 922 378 b 901 343 922 356 917 343 l 833 343 l 833 210 l 903 210 b 929 175 921 210 929 196 l 929 168 b 906 126 929 140 915 126 l 901 126 b 876 174 892 126 876 138 z m 403 542 l 403 685 l 304 685 l 304 1085 l 179 1085 l 7 968 l 89 850 l 138 882 l 138 685 l 38 685 l 38 542 z "},"⅔":{"ha":1111,"x_min":0,"x_max":0,"o":"m 249 0 l 1049 1083 l 863 1083 l 63 0 z m 876 174 l 710 174 l 710 163 b 903 -18 710 53 785 -18 b 1094 142 1021 -18 1094 47 l 1094 156 b 1022 276 1094 218 1060 256 b 1089 394 1058 296 1089 332 l 1089 408 b 901 560 1089 460 1053 560 b 713 374 749 560 713 457 l 713 361 l 879 361 b 899 415 879 396 885 415 l 903 415 b 922 381 917 415 922 390 l 922 378 b 901 343 922 356 917 343 l 833 343 l 833 210 l 903 210 b 929 175 921 210 929 196 l 929 168 b 906 126 929 140 915 126 l 901 126 b 876 174 892 126 876 138 z m 394 685 l 249 685 l 335 781 b 394 915 374 825 394 856 l 394 940 b 207 1101 394 999 358 1101 b 18 924 54 1101 18 999 l 18 903 l 185 903 b 204 957 185 938 190 957 l 208 957 b 228 919 222 957 228 935 l 228 904 b 210 860 228 888 221 872 l 18 647 l 18 542 l 394 542 z "},"¼":{"ha":1111,"x_min":0,"x_max":0,"o":"m 249 0 l 1049 1083 l 863 1083 l 63 0 z m 1051 0 l 1051 94 l 1096 94 l 1096 239 l 1051 239 l 1051 542 l 883 542 l 708 222 l 708 94 l 885 94 l 885 0 z m 403 542 l 403 685 l 304 685 l 304 1085 l 179 1085 l 7 968 l 89 850 l 138 882 l 138 685 l 38 685 l 38 542 z m 885 318 l 885 239 l 842 239 z "},"¾":{"ha":1111,"x_min":0,"x_max":0,"o":"m 249 0 l 1049 1083 l 863 1083 l 63 0 z m 182 715 l 15 715 l 15 704 b 208 524 15 594 90 524 b 400 683 326 524 400 589 l 400 697 b 328 818 400 760 365 797 b 394 936 364 838 394 874 l 394 950 b 207 1101 394 1001 358 1101 b 18 915 54 1101 18 999 l 18 903 l 185 903 b 204 957 185 938 190 957 l 208 957 b 228 922 222 957 228 932 l 228 919 b 207 885 228 897 222 885 l 139 885 l 139 751 l 208 751 b 235 717 226 751 235 738 l 235 710 b 211 668 235 682 221 668 l 207 668 b 182 715 197 668 182 679 z m 1051 0 l 1051 94 l 1096 94 l 1096 239 l 1051 239 l 1051 542 l 883 542 l 708 222 l 708 94 l 885 94 l 885 0 z m 885 318 l 885 239 l 842 239 z "},"⅕":{"ha":1111,"x_min":0,"x_max":0,"o":"m 249 0 l 1049 1083 l 863 1083 l 63 0 z m 710 174 l 710 163 b 903 -18 710 53 785 -18 b 1094 163 1021 -18 1094 44 l 1094 179 b 928 353 1094 281 1039 353 b 864 343 904 353 883 349 l 867 397 l 1085 397 l 1085 542 l 729 542 l 717 250 l 861 201 b 894 217 871 211 885 217 l 896 217 b 929 175 917 217 929 204 l 929 168 b 904 126 929 140 917 126 l 899 126 b 876 174 889 126 876 138 z m 403 542 l 403 685 l 304 685 l 304 1085 l 179 1085 l 7 968 l 89 850 l 138 882 l 138 685 l 38 685 l 38 542 z "},"⅖":{"ha":1111,"x_min":0,"x_max":0,"o":"m 249 0 l 1049 1083 l 863 1083 l 63 0 z m 710 174 l 710 163 b 903 -18 710 53 785 -18 b 1094 163 1021 -18 1094 44 l 1094 179 b 928 353 1094 281 1039 353 b 864 343 904 353 883 349 l 867 397 l 1085 397 l 1085 542 l 729 542 l 717 250 l 861 201 b 894 217 871 211 885 217 l 896 217 b 929 175 917 217 929 204 l 929 168 b 904 126 929 140 917 126 l 899 126 b 876 174 889 126 876 138 z m 394 685 l 249 685 l 335 781 b 394 915 374 825 394 856 l 394 940 b 207 1101 394 999 358 1101 b 18 924 54 1101 18 999 l 18 903 l 185 903 b 204 957 185 938 190 957 l 208 957 b 228 919 222 957 228 935 l 228 904 b 210 860 228 888 221 872 l 18 647 l 18 542 l 394 542 z "},"⅗":{"ha":1111,"x_min":0,"x_max":0,"o":"m 249 0 l 1049 1083 l 863 1083 l 63 0 z m 710 174 l 710 163 b 903 -18 710 53 785 -18 b 1094 163 1021 -18 1094 44 l 1094 179 b 928 353 1094 281 1039 353 b 864 343 904 353 883 349 l 867 397 l 1085 397 l 1085 542 l 729 542 l 717 250 l 861 201 b 894 217 871 211 885 217 l 896 217 b 929 175 917 217 929 204 l 929 168 b 904 126 929 140 917 126 l 899 126 b 876 174 889 126 876 138 z m 182 715 l 15 715 l 15 704 b 208 524 15 594 90 524 b 400 683 326 524 400 589 l 400 697 b 328 818 400 760 365 797 b 394 936 364 838 394 874 l 394 950 b 207 1101 394 1001 358 1101 b 18 915 54 1101 18 999 l 18 903 l 185 903 b 204 957 185 938 190 957 l 208 957 b 228 922 222 957 228 932 l 228 919 b 207 885 228 897 222 885 l 139 885 l 139 751 l 208 751 b 235 717 226 751 235 738 l 235 710 b 211 668 235 682 221 668 l 207 668 b 182 715 197 668 182 679 z "},"⅘":{"ha":1111,"x_min":0,"x_max":0,"o":"m 249 0 l 1049 1083 l 863 1083 l 63 0 z m 710 174 l 710 163 b 903 -18 710 53 785 -18 b 1094 163 1021 -18 1094 44 l 1094 179 b 928 353 1094 281 1039 353 b 864 343 904 353 883 349 l 867 397 l 1085 397 l 1085 542 l 729 542 l 717 250 l 861 201 b 894 217 871 211 885 217 l 896 217 b 929 175 917 217 929 204 l 929 168 b 904 126 929 140 917 126 l 899 126 b 876 174 889 126 876 138 z m 357 542 l 357 636 l 401 636 l 401 781 l 357 781 l 357 1083 l 189 1083 l 14 764 l 14 636 l 190 636 l 190 542 z m 190 860 l 190 781 l 147 781 z "},"⅙":{"ha":1111,"x_min":0,"x_max":0,"o":"m 249 0 l 1049 1083 l 863 1083 l 63 0 z m 1081 560 b 789 457 951 560 853 536 b 710 211 729 382 710 297 l 710 199 b 901 -18 710 83 768 -18 b 1094 164 1036 -18 1094 63 l 1094 171 b 953 342 1094 279 1038 342 b 890 324 929 342 908 335 b 915 367 897 342 904 356 b 1081 415 946 397 1001 415 z m 403 542 l 403 685 l 304 685 l 304 1085 l 179 1085 l 7 968 l 89 850 l 138 882 l 138 685 l 38 685 l 38 542 z m 900 199 l 906 199 b 929 168 915 199 929 189 l 929 161 b 906 126 929 139 915 126 l 900 126 b 876 181 890 126 876 138 l 876 183 b 900 199 883 193 890 199 z "},"⅚":{"ha":1111,"x_min":0,"x_max":0,"o":"m 249 0 l 1049 1083 l 863 1083 l 63 0 z m 15 715 l 15 704 b 208 524 15 594 90 524 b 400 704 326 524 400 586 l 400 721 b 233 894 400 822 344 894 b 169 885 210 894 189 890 l 172 939 l 390 939 l 390 1083 l 35 1083 l 22 792 l 167 743 b 200 758 176 753 190 758 l 201 758 b 235 717 222 758 235 746 l 235 710 b 210 668 235 682 222 668 l 204 668 b 182 715 194 668 182 679 z m 1081 560 b 789 457 951 560 853 536 b 710 211 729 382 710 297 l 710 199 b 901 -18 710 83 768 -18 b 1094 164 1036 -18 1094 63 l 1094 171 b 953 342 1094 279 1038 342 b 890 324 929 342 908 335 b 915 367 897 342 904 356 b 1081 415 946 397 1001 415 z m 900 199 l 906 199 b 929 168 915 199 929 189 l 929 161 b 906 126 929 139 915 126 l 900 126 b 876 181 890 126 876 138 l 876 183 b 900 199 883 193 890 199 z "},"⅛":{"ha":1111,"x_min":0,"x_max":0,"o":"m 249 0 l 1049 1083 l 863 1083 l 63 0 z m 903 -18 b 1094 142 1021 -18 1094 47 l 1094 157 b 1026 276 1094 217 1063 256 b 1089 394 1060 297 1089 335 l 1089 408 b 903 560 1089 460 1053 560 b 717 408 753 560 717 460 l 717 394 b 779 276 717 335 746 297 b 711 157 743 256 711 217 l 711 142 b 903 -18 711 47 785 -18 z m 403 542 l 403 685 l 304 685 l 304 1085 l 179 1085 l 7 968 l 89 850 l 138 882 l 138 685 l 38 685 l 38 542 z m 900 204 l 906 204 b 929 167 924 204 929 189 l 929 161 b 906 124 929 139 921 124 l 900 124 b 876 161 885 124 876 139 l 876 167 b 900 204 876 189 882 204 z m 904 349 l 901 349 b 883 381 889 349 883 358 l 883 386 b 901 418 883 408 889 418 l 904 418 b 922 386 917 418 922 408 l 922 381 b 904 349 922 358 917 349 z "},"⅜":{"ha":1111,"x_min":0,"x_max":0,"o":"m 249 0 l 1049 1083 l 863 1083 l 63 0 z m 903 -18 b 1094 142 1021 -18 1094 47 l 1094 157 b 1026 276 1094 217 1063 256 b 1089 394 1060 297 1089 335 l 1089 408 b 903 560 1089 460 1053 560 b 717 408 753 560 717 460 l 717 394 b 779 276 717 335 746 297 b 711 157 743 256 711 217 l 711 142 b 903 -18 711 47 785 -18 z m 182 715 l 15 715 l 15 704 b 208 524 15 594 90 524 b 400 683 326 524 400 589 l 400 697 b 328 818 400 760 365 797 b 394 936 364 838 394 874 l 394 950 b 207 1101 394 1001 358 1101 b 18 915 54 1101 18 999 l 18 903 l 185 903 b 204 957 185 938 190 957 l 208 957 b 228 922 222 957 228 932 l 228 919 b 207 885 228 897 222 885 l 139 885 l 139 751 l 208 751 b 235 717 226 751 235 738 l 235 710 b 211 668 235 682 221 668 l 207 668 b 182 715 197 668 182 679 z m 900 204 l 906 204 b 929 167 924 204 929 189 l 929 161 b 906 124 929 139 921 124 l 900 124 b 876 161 885 124 876 139 l 876 167 b 900 204 876 189 882 204 z m 904 349 l 901 349 b 883 381 889 349 883 358 l 883 386 b 901 418 883 408 889 418 l 904 418 b 922 386 917 418 922 408 l 922 381 b 904 349 922 358 917 349 z "},"⅝":{"ha":1111,"x_min":0,"x_max":0,"o":"m 249 0 l 1049 1083 l 863 1083 l 63 0 z m 903 -18 b 1094 142 1021 -18 1094 47 l 1094 157 b 1026 276 1094 217 1063 256 b 1089 394 1060 297 1089 335 l 1089 408 b 903 560 1089 460 1053 560 b 717 408 753 560 717 460 l 717 394 b 779 276 717 335 746 297 b 711 157 743 256 711 217 l 711 142 b 903 -18 711 47 785 -18 z m 15 715 l 15 704 b 208 524 15 594 90 524 b 400 704 326 524 400 586 l 400 721 b 233 894 400 822 344 894 b 169 885 210 894 189 890 l 172 939 l 390 939 l 390 1083 l 35 1083 l 22 792 l 167 743 b 200 758 176 753 190 758 l 201 758 b 235 717 222 758 235 746 l 235 710 b 210 668 235 682 222 668 l 204 668 b 182 715 194 668 182 679 z m 900 204 l 906 204 b 929 167 924 204 929 189 l 929 161 b 906 124 929 139 921 124 l 900 124 b 876 161 885 124 876 139 l 876 167 b 900 204 876 189 882 204 z m 904 349 l 901 349 b 883 381 889 349 883 358 l 883 386 b 901 418 883 408 889 418 l 904 418 b 922 386 917 418 922 408 l 922 381 b 904 349 922 358 917 349 z "},"⅞":{"ha":1111,"x_min":0,"x_max":0,"o":"m 249 0 l 1049 1083 l 863 1083 l 63 0 z m 903 -18 b 1094 142 1021 -18 1094 47 l 1094 157 b 1026 276 1094 217 1063 256 b 1089 394 1060 297 1089 335 l 1089 408 b 903 560 1089 460 1053 560 b 717 408 753 560 717 460 l 717 394 b 779 276 717 335 746 297 b 711 157 743 256 711 217 l 711 142 b 903 -18 711 47 785 -18 z m 11 889 l 156 889 l 156 939 l 222 939 l 50 542 l 228 542 l 406 981 l 406 1083 l 11 1083 z m 900 204 l 906 204 b 929 167 924 204 929 189 l 929 161 b 906 124 929 139 921 124 l 900 124 b 876 161 885 124 876 139 l 876 167 b 900 204 876 189 882 204 z m 904 349 l 901 349 b 883 381 889 349 883 358 l 883 386 b 901 418 883 408 889 418 l 904 418 b 922 386 917 418 922 408 l 922 381 b 904 349 922 358 917 349 z "},"":{"ha":1528,"x_min":0,"x_max":0,"o":"m 249 0 l 1049 1083 l 863 1083 l 63 0 z m 1497 560 b 1206 457 1368 560 1269 536 b 1126 211 1146 382 1126 297 l 1126 199 b 1318 -18 1126 83 1185 -18 b 1511 164 1453 -18 1511 63 l 1511 171 b 1369 342 1511 279 1454 342 b 1307 324 1346 342 1325 335 b 1332 367 1314 342 1321 356 b 1497 415 1363 397 1418 415 z m 1097 0 l 1097 143 l 999 143 l 999 543 l 874 543 l 701 426 l 783 308 l 832 340 l 832 143 l 732 143 l 732 0 z m 403 542 l 403 685 l 304 685 l 304 1085 l 179 1085 l 7 968 l 89 850 l 138 882 l 138 685 l 38 685 l 38 542 z m 1317 199 l 1322 199 b 1346 168 1332 199 1346 189 l 1346 161 b 1322 126 1346 139 1332 126 l 1317 126 b 1293 181 1307 126 1293 138 l 1293 183 b 1317 199 1300 193 1307 199 z "},"":{"ha":1528,"x_min":0,"x_max":0,"o":"m 249 0 l 1049 1083 l 863 1083 l 63 0 z m 1497 560 b 1206 457 1368 560 1269 536 b 1126 211 1146 382 1126 297 l 1126 199 b 1318 -18 1126 83 1185 -18 b 1511 164 1453 -18 1511 63 l 1511 171 b 1369 342 1511 279 1454 342 b 1307 324 1346 342 1325 335 b 1332 367 1314 342 1321 356 b 1497 415 1363 397 1418 415 z m 182 715 l 15 715 l 15 704 b 208 524 15 594 90 524 b 400 683 326 524 400 589 l 400 697 b 328 818 400 760 365 797 b 394 936 364 838 394 874 l 394 950 b 207 1101 394 1001 358 1101 b 18 915 54 1101 18 999 l 18 903 l 185 903 b 204 957 185 938 190 957 l 208 957 b 228 922 222 957 228 932 l 228 919 b 207 885 228 897 222 885 l 139 885 l 139 751 l 208 751 b 235 717 226 751 235 738 l 235 710 b 211 668 235 682 221 668 l 207 668 b 182 715 197 668 182 679 z m 1097 0 l 1097 143 l 999 143 l 999 543 l 874 543 l 701 426 l 783 308 l 832 340 l 832 143 l 732 143 l 732 0 z m 1317 199 l 1322 199 b 1346 168 1332 199 1346 189 l 1346 161 b 1322 126 1346 139 1332 126 l 1317 126 b 1293 181 1307 126 1293 138 l 1293 183 b 1317 199 1300 193 1307 199 z "},"":{"ha":1528,"x_min":0,"x_max":0,"o":"m 249 0 l 1049 1083 l 863 1083 l 63 0 z m 15 715 l 15 704 b 208 524 15 594 90 524 b 400 704 326 524 400 586 l 400 721 b 233 894 400 822 344 894 b 169 885 210 894 189 890 l 172 939 l 390 939 l 390 1083 l 35 1083 l 22 792 l 167 743 b 200 758 176 753 190 758 l 201 758 b 235 717 222 758 235 746 l 235 710 b 210 668 235 682 222 668 l 204 668 b 182 715 194 668 182 679 z m 1497 560 b 1206 457 1368 560 1269 536 b 1126 211 1146 382 1126 297 l 1126 199 b 1318 -18 1126 83 1185 -18 b 1511 164 1453 -18 1511 63 l 1511 171 b 1369 342 1511 279 1454 342 b 1307 324 1346 342 1325 335 b 1332 367 1314 342 1321 356 b 1497 415 1363 397 1418 415 z m 1097 0 l 1097 143 l 999 143 l 999 543 l 874 543 l 701 426 l 783 308 l 832 340 l 832 143 l 732 143 l 732 0 z m 1317 199 l 1322 199 b 1346 168 1332 199 1346 189 l 1346 161 b 1322 126 1346 139 1332 126 l 1317 126 b 1293 181 1307 126 1293 138 l 1293 183 b 1317 199 1300 193 1307 199 z "},"":{"ha":1528,"x_min":0,"x_max":0,"o":"m 249 0 l 1049 1083 l 863 1083 l 63 0 z m 1497 560 b 1206 457 1368 560 1269 536 b 1126 211 1146 382 1126 297 l 1126 199 b 1318 -18 1126 83 1185 -18 b 1511 164 1453 -18 1511 63 l 1511 171 b 1369 342 1511 279 1454 342 b 1307 324 1346 342 1325 335 b 1332 367 1314 342 1321 356 b 1497 415 1363 397 1418 415 z m 1097 0 l 1097 143 l 999 143 l 999 543 l 874 543 l 701 426 l 783 308 l 832 340 l 832 143 l 732 143 l 732 0 z m 11 889 l 156 889 l 156 939 l 222 939 l 50 542 l 228 542 l 406 981 l 406 1083 l 11 1083 z m 1317 199 l 1322 199 b 1346 168 1332 199 1346 189 l 1346 161 b 1322 126 1346 139 1332 126 l 1317 126 b 1293 181 1307 126 1293 138 l 1293 183 b 1317 199 1300 193 1307 199 z "},"":{"ha":1528,"x_min":0,"x_max":0,"o":"m 249 0 l 1049 1083 l 863 1083 l 63 0 z m 1497 560 b 1206 457 1368 560 1269 536 b 1126 211 1146 382 1126 297 l 1126 199 b 1318 -18 1126 83 1185 -18 b 1511 164 1453 -18 1511 63 l 1511 171 b 1369 342 1511 279 1454 342 b 1307 324 1346 342 1325 335 b 1332 367 1314 342 1321 356 b 1497 415 1363 397 1418 415 z m 31 524 b 322 626 160 524 258 547 b 401 872 382 701 401 786 l 401 885 b 210 1101 401 1000 343 1101 b 17 919 75 1101 17 1021 l 17 913 b 158 742 17 804 74 742 b 219 760 182 742 203 749 b 196 717 214 740 206 726 b 31 668 165 686 110 668 z m 1097 0 l 1097 143 l 999 143 l 999 543 l 874 543 l 701 426 l 783 308 l 832 340 l 832 143 l 732 143 l 732 0 z m 1317 199 l 1322 199 b 1346 168 1332 199 1346 189 l 1346 161 b 1322 126 1346 139 1332 126 l 1317 126 b 1293 181 1307 126 1293 138 l 1293 183 b 1317 199 1300 193 1307 199 z "},"":{"ha":1944,"x_min":0,"x_max":0,"o":"m 665 0 l 1465 1083 l 1279 1083 l 479 0 z m 1914 560 b 1622 457 1785 560 1686 536 b 1543 211 1563 382 1543 297 l 1543 199 b 1735 -18 1543 83 1601 -18 b 1928 164 1869 -18 1928 63 l 1928 171 b 1786 342 1928 279 1871 342 b 1724 324 1763 342 1742 335 b 1749 367 1731 342 1738 356 b 1914 415 1779 397 1835 415 z m 403 542 l 403 685 l 304 685 l 304 1085 l 179 1085 l 7 968 l 89 850 l 138 882 l 138 685 l 38 685 l 38 542 z m 819 542 l 819 685 l 721 685 l 721 1085 l 596 1085 l 424 968 l 506 850 l 554 882 l 554 685 l 454 685 l 454 542 z m 1514 0 l 1514 143 l 1415 143 l 1415 543 l 1290 543 l 1118 426 l 1200 308 l 1249 340 l 1249 143 l 1149 143 l 1149 0 z m 1733 199 l 1739 199 b 1763 168 1749 199 1763 189 l 1763 161 b 1739 126 1763 139 1749 126 l 1733 126 b 1710 181 1724 126 1710 138 l 1710 183 b 1733 199 1717 193 1724 199 z "},"":{"ha":1944,"x_min":0,"x_max":0,"o":"m 665 0 l 1465 1083 l 1279 1083 l 479 0 z m 1914 560 b 1622 457 1785 560 1686 536 b 1543 211 1563 382 1543 297 l 1543 199 b 1735 -18 1543 83 1601 -18 b 1928 164 1869 -18 1928 63 l 1928 171 b 1786 342 1928 279 1871 342 b 1724 324 1763 342 1742 335 b 1749 367 1731 342 1738 356 b 1914 415 1779 397 1835 415 z m 599 715 l 432 715 l 432 704 b 625 524 432 594 507 524 b 817 683 743 524 817 589 l 817 697 b 744 818 817 760 782 797 b 811 936 781 838 811 874 l 811 950 b 624 1101 811 1001 775 1101 b 435 915 471 1101 435 999 l 435 903 l 601 903 b 621 957 601 938 607 957 l 625 957 b 644 922 639 957 644 932 l 644 919 b 624 885 644 897 639 885 l 556 885 l 556 751 l 625 751 b 651 717 643 751 651 738 l 651 710 b 628 668 651 682 638 668 l 624 668 b 599 715 614 668 599 679 z m 403 542 l 403 685 l 304 685 l 304 1085 l 179 1085 l 7 968 l 89 850 l 138 882 l 138 685 l 38 685 l 38 542 z m 1514 0 l 1514 143 l 1415 143 l 1415 543 l 1290 543 l 1118 426 l 1200 308 l 1249 340 l 1249 143 l 1149 143 l 1149 0 z m 1733 199 l 1739 199 b 1763 168 1749 199 1763 189 l 1763 161 b 1739 126 1763 139 1749 126 l 1733 126 b 1710 181 1724 126 1710 138 l 1710 183 b 1733 199 1717 193 1724 199 z "},"":{"ha":1944,"x_min":0,"x_max":0,"o":"m 665 0 l 1465 1083 l 1279 1083 l 479 0 z m 432 715 l 432 704 b 625 524 432 594 507 524 b 817 704 743 524 817 586 l 817 721 b 650 894 817 822 761 894 b 586 885 626 894 606 890 l 589 939 l 807 939 l 807 1083 l 451 1083 l 439 792 l 583 743 b 617 758 593 753 607 758 l 618 758 b 651 717 639 758 651 746 l 651 710 b 626 668 651 682 639 668 l 621 668 b 599 715 611 668 599 679 z m 1914 560 b 1622 457 1785 560 1686 536 b 1543 211 1563 382 1543 297 l 1543 199 b 1735 -18 1543 83 1601 -18 b 1928 164 1869 -18 1928 63 l 1928 171 b 1786 342 1928 279 1871 342 b 1724 324 1763 342 1742 335 b 1749 367 1731 342 1738 356 b 1914 415 1779 397 1835 415 z m 403 542 l 403 685 l 304 685 l 304 1085 l 179 1085 l 7 968 l 89 850 l 138 882 l 138 685 l 38 685 l 38 542 z m 1514 0 l 1514 143 l 1415 143 l 1415 543 l 1290 543 l 1118 426 l 1200 308 l 1249 340 l 1249 143 l 1149 143 l 1149 0 z m 1733 199 l 1739 199 b 1763 168 1749 199 1763 189 l 1763 161 b 1739 126 1763 139 1749 126 l 1733 126 b 1710 181 1724 126 1710 138 l 1710 183 b 1733 199 1717 193 1724 199 z "},"☒":{"ha":944,"x_min":0,"x_max":0,"o":"m 97 736 l 97 0 l 833 0 l 833 736 z m 640 543 l 640 193 l 290 193 l 290 543 z m 600 233 l 600 503 l 331 503 l 331 233 z "},"":{"ha":940,"x_min":0,"x_max":0,"o":"m 358 832 b 467 940 358 922 400 940 b 533 931 490 940 525 935 l 533 1111 b 415 1129 521 1118 482 1129 b 139 856 250 1129 139 1058 l 139 736 l 26 736 l 26 544 l 139 544 l 139 0 l 358 0 l 358 544 l 519 544 l 519 736 l 358 736 z m 646 0 l 865 0 l 865 736 l 646 736 z m 871 1072 l 640 1072 l 640 840 l 871 840 z "},"ﬁ":{"ha":940,"x_min":0,"x_max":0,"o":"m 358 832 b 467 940 358 922 400 940 b 533 931 490 940 525 935 l 533 1111 b 415 1129 521 1118 482 1129 b 139 856 250 1129 139 1058 l 139 736 l 26 736 l 26 544 l 139 544 l 139 0 l 358 0 l 358 544 l 519 544 l 519 736 l 358 736 z m 646 0 l 865 0 l 865 736 l 646 736 z m 871 1072 l 640 1072 l 640 840 l 871 840 z "},"":{"ha":940,"x_min":0,"x_max":0,"o":"m 358 832 b 467 940 358 922 400 940 b 533 931 490 940 525 935 l 533 1111 b 415 1129 521 1118 482 1129 b 139 856 250 1129 139 1058 l 139 736 l 26 736 l 26 544 l 139 544 l 139 0 l 358 0 l 358 544 l 519 544 l 519 736 l 358 736 z m 646 0 l 865 0 l 865 1111 l 646 1111 z "},"ﬂ":{"ha":940,"x_min":0,"x_max":0,"o":"m 358 832 b 467 940 358 922 400 940 b 533 931 490 940 525 935 l 533 1111 b 415 1129 521 1118 482 1129 b 139 856 250 1129 139 1058 l 139 736 l 26 736 l 26 544 l 139 544 l 139 0 l 358 0 l 358 544 l 519 544 l 519 736 l 358 736 z m 646 0 l 865 0 l 865 1111 l 646 1111 z "}}}
